SplineFontDB: 2.0
FontName: THKrub-BoldItalic
FullName: THKrub-BoldItalic
FamilyName: TH Krub
Weight: Bold
Copyright: Copyright (c) 2006 by Department of Intellectual Property (DIP), Ministry of Commerce and Software Industry Promotion Agency (Public Organization) (SIPA). All rights reserved.
Version: 1.1
ItalicAngle: -12
UnderlinePosition: -58
UnderlineWidth: 35
Ascent: 800
Descent: 200
Order2: 1
XUID: [1021 375 425136265 11733929]
FSType: 0
OS2Version: 3
OS2_WeightWidthSlopeOnly: 0
OS2_UseTypoMetrics: 1
CreationTime: 1157677620
ModificationTime: 1196153677
PfmFamily: 17
TTFWeight: 700
TTFWidth: 5
LineGap: 21
VLineGap: 0
Panose: 2 0 5 6 4 0 0 2 0 4
OS2TypoAscent: 0
OS2TypoAOffset: 1
OS2TypoDescent: 0
OS2TypoDOffset: 1
OS2TypoLinegap: 0
OS2WinAscent: -83
OS2WinAOffset: 1
OS2WinDescent: -208
OS2WinDOffset: 1
HheadAscent: -5
HheadAOffset: 1
HheadDescent: 170
HheadDOffset: 1
OS2SubXSize: 700
OS2SubYSize: 650
OS2SubXOff: 0
OS2SubYOff: 140
OS2SupXSize: 700
OS2SupYSize: 650
OS2SupXOff: 0
OS2SupYOff: 477
OS2StrikeYSize: 50
OS2StrikeYPos: 250
OS2FamilyClass: 2053
OS2Vendor: 'b513'
Lookup: 4 0 1 "'rlig' Required Ligatures in Latin lookup 0"  {"'rlig' Required Ligatures in Latin lookup 0 subtable"  } ['rlig' ('latn' <'dflt' > ) ]
Lookup: 4 0 0 "'frac' Diagonal Fractions in Latin lookup 1"  {"'frac' Diagonal Fractions in Latin lookup 1 subtable"  } ['frac' ('latn' <'dflt' > ) ]
Lookup: 4 0 0 "'ccmp' Glyph Composition/Decomposition in Latin lookup 2"  {"'ccmp' Glyph Composition/Decomposition in Latin lookup 2 subtable"  } ['ccmp' ('latn' <'dflt' > ) ]
Lookup: 6 0 0 "'liga' Standard Ligatures in Latin lookup 3"  {"'liga' Standard Ligatures in Latin lookup 3 subtable"  } ['liga' ('latn' <'dflt' > ) ]
Lookup: 6 0 0 "'liga' Standard Ligatures in Latin lookup 4"  {"'liga' Standard Ligatures in Latin lookup 4 subtable"  } ['liga' ('latn' <'dflt' > ) ]

StartChar: exclam
Encoding: 33 33 2
Width: 281
VWidth: 1473
Flags: W
HStem: 0 116<100 205> 696 20G<224.578 357>
VStem: 77 280<0 716 1.53064e-18 1.53064e-18>
Fore
357 716 m 1,0,-1
 231 225 l 1,1,-1
 144 225 l 1,2,-1
 228 716 l 1,3,-1
 357 716 l 1,0,-1
77 0 m 1,4,-1
 100 116 l 1,5,-1
 228 116 l 1,6,-1
 205 0 l 1,7,-1
 77 0 l 1,4,-1
EndSplineSet
EndChar
StartChar: quotedbl
Encoding: 34 34 3
Width: 331
VWidth: 1473
Flags: W
HStem: 517 237<211 242 358 389 161 439 211 211>
Fore
211 754 m 1,0,-1
 292 754 l 1,1,-1
 242 517 l 1,2,-1
 161 517 l 1,3,-1
 211 754 l 1,0,-1
358 754 m 1,4,-1
 439 754 l 1,5,-1
 389 517 l 1,6,-1
 308 517 l 1,7,-1
 358 754 l 1,4,-1
EndSplineSet
EndChar
StartChar: numbersign
Encoding: 35 35 4
Width: 530
VWidth: 1473
Flags: W
HStem: 0 21G<90 173.299 277 361.204> 211 60<82 166 262 354 449 524> 405 61<150 236 331 423 520 592>
Fore
524 211 m 1,0,-1
 430 211 l 1,1,-1
 354 0 l 1,2,-1
 277 0 l 1,3,-1
 354 211 l 1,4,-1
 243 211 l 1,5,-1
 166 0 l 1,6,-1
 90 0 l 1,7,-1
 166 211 l 1,8,-1
 69 211 l 1,9,-1
 82 271 l 1,10,-1
 186 271 l 1,11,-1
 236 405 l 1,12,-1
 137 405 l 1,13,-1
 150 466 l 1,14,-1
 253 466 l 1,15,-1
 333 689 l 1,16,-1
 411 689 l 1,17,-1
 331 466 l 1,18,-1
 442 466 l 1,19,-1
 520 689 l 1,20,-1
 598 689 l 1,21,-1
 520 466 l 1,22,-1
 605 466 l 1,23,-1
 592 405 l 1,24,-1
 498 405 l 1,25,-1
 449 271 l 1,26,-1
 538 271 l 1,27,-1
 524 211 l 1,0,-1
311 405 m 1,28,-1
 262 271 l 1,29,-1
 373 271 l 1,30,-1
 423 405 l 1,31,-1
 311 405 l 1,28,-1
EndSplineSet
EndChar
StartChar: dollar
Encoding: 36 36 5
Width: 623
VWidth: 1473
Flags: W
HStem: 0 68<263.41 286 352 394.284> 651 69<388.27 423 491 538.076>
Fore
461 828 m 1,0,-1
 514 828 l 1,1,-1
 491 720 l 1,2,3
 529 719 529 719 560.5 706.5 c 128,-1,4
 592 694 592 694 615.5 675 c 128,-1,5
 639 656 639 656 654 633 c 128,-1,6
 669 610 669 610 675 588 c 1,7,8
 673 588 673 588 663 580 c 128,-1,9
 653 572 653 572 639.5 562 c 128,-1,10
 626 552 626 552 615 544 c 128,-1,11
 604 536 604 536 601 535 c 1,12,13
 585 583 585 583 557.5 612.5 c 128,-1,14
 530 642 530 642 476 650 c 1,15,-1
 423 401 l 1,16,17
 463 389 463 389 502.5 373.5 c 128,-1,18
 542 358 542 358 571.5 333 c 128,-1,19
 601 308 601 308 616 271 c 128,-1,20
 631 234 631 234 619 181 c 0,21,22
 608 130 608 130 580 95 c 128,-1,23
 552 60 552 60 514.5 39.5 c 128,-1,24
 477 19 477 19 431.5 9.5 c 128,-1,25
 386 0 386 0 339 0 c 1,26,-1
 309 -133 l 1,27,-1
 256 -133 l 1,28,-1
 286 0 l 1,29,30
 203 3 203 3 145 45.5 c 128,-1,31
 87 88 87 88 66 164 c 1,32,-1
 146 215 l 1,33,34
 153 186 153 186 164 158.5 c 128,-1,35
 175 131 175 131 193.5 111 c 128,-1,36
 212 91 212 91 238 79.5 c 128,-1,37
 264 68 264 68 299 68 c 1,38,-1
 357 334 l 1,39,40
 318 346 318 346 281.5 361 c 128,-1,41
 245 376 245 376 217.5 398 c 128,-1,42
 190 420 190 420 177.5 454 c 128,-1,43
 165 488 165 488 175 536 c 0,44,45
 186 588 186 588 210 622.5 c 128,-1,46
 234 657 234 657 268.5 678.5 c 128,-1,47
 303 700 303 700 346.5 709.5 c 128,-1,48
 390 719 390 719 438 720 c 1,49,-1
 461 828 l 1,0,-1
423 651 m 1,50,51
 357 651 357 651 317.5 624.5 c 128,-1,52
 278 598 278 598 267 541 c 0,53,54
 261 510 261 510 266 489 c 128,-1,55
 271 468 271 468 285 455 c 128,-1,56
 299 442 299 442 322.5 433 c 128,-1,57
 346 424 346 424 374 417 c 1,58,-1
 423 651 l 1,50,51
352 68 m 1,59,60
 423 69 423 69 470 98 c 128,-1,61
 517 127 517 127 529 184 c 0,62,63
 536 221 536 221 529 243 c 128,-1,64
 522 265 522 265 504 279 c 128,-1,65
 486 293 486 293 460.5 302 c 128,-1,66
 435 311 435 311 407 321 c 1,67,-1
 352 68 l 1,59,60
EndSplineSet
EndChar
StartChar: percent
Encoding: 37 37 6
Width: 879
VWidth: 1473
Flags: W
HStem: 0 69<593.716 707.487> 256 68<647.406 744.415> 390 70<284.169 381.681> 645 71<337.058 435.07>
Fore
393 716 m 0,0,1
 427 716 427 716 454.5 702.5 c 128,-1,2
 482 689 482 689 499 667 c 128,-1,3
 516 645 516 645 522.5 615.5 c 128,-1,4
 529 586 529 586 522 552 c 256,5,6
 514 519 514 519 495 489.5 c 128,-1,7
 476 460 476 460 449.5 437.5 c 128,-1,8
 423 415 423 415 390.5 402.5 c 128,-1,9
 358 390 358 390 324 390 c 0,10,11
 292 390 292 390 264.5 402.5 c 128,-1,12
 237 415 237 415 220 437.5 c 128,-1,13
 203 460 203 460 196.5 489.5 c 128,-1,14
 190 519 190 519 197 552 c 256,15,16
 205 586 205 586 224 615.5 c 128,-1,17
 243 645 243 645 269.5 667 c 128,-1,18
 296 689 296 689 328.5 702.5 c 128,-1,19
 361 716 361 716 393 716 c 0,0,1
379 645 m 128,-1,21
 340 645 340 645 307 618.5 c 128,-1,22
 274 592 274 592 267 552 c 0,23,24
 258 514 258 514 279.5 487 c 128,-1,25
 301 460 301 460 339 460 c 0,26,27
 379 460 379 460 412 487 c 128,-1,28
 445 514 445 514 452 552 c 0,29,30
 461 592 461 592 439.5 618.5 c 128,-1,20
 418 645 418 645 379 645 c 128,-1,21
703 324 m 0,31,32
 737 324 737 324 764 311.5 c 128,-1,33
 791 299 791 299 808.5 277 c 128,-1,34
 826 255 826 255 833 225.5 c 128,-1,35
 840 196 840 196 832 162 c 0,36,37
 825 130 825 130 806 100.5 c 128,-1,38
 787 71 787 71 760.5 49 c 128,-1,39
 734 27 734 27 701.5 13.5 c 128,-1,40
 669 0 669 0 635 0 c 0,41,42
 603 0 603 0 575.5 13.5 c 128,-1,43
 548 27 548 27 530.5 49 c 128,-1,44
 513 71 513 71 506 100.5 c 128,-1,45
 499 130 499 130 507 162 c 0,46,47
 514 196 514 196 533 225.5 c 128,-1,48
 552 255 552 255 578.5 277 c 128,-1,49
 605 299 605 299 637.5 311.5 c 128,-1,50
 670 324 670 324 703 324 c 0,31,32
688 256 m 0,51,52
 650 256 650 256 617.5 228 c 128,-1,53
 585 200 585 200 577 162 c 0,54,55
 567 124 567 124 588.5 96.5 c 128,-1,56
 610 69 610 69 648 69 c 0,57,58
 688 69 688 69 722 96.5 c 128,-1,59
 756 124 756 124 763 162 c 0,60,61
 772 200 772 200 750 228 c 128,-1,62
 728 256 728 256 688 256 c 0,51,52
277 -10 m 1,63,-1
 202 -10 l 1,64,-1
 753 726 l 1,65,-1
 829 726 l 1,66,-1
 277 -10 l 1,63,-1
EndSplineSet
EndChar
StartChar: ampersand
Encoding: 38 38 7
Width: 702
VWidth: 1473
Flags: W
HStem: -10 75<192.543 374.146 594.784 626> 650 76<379.418 464.871>
VStem: 589 74<287.49 336>
Fore
442 124 m 1,0,1
 427 141 427 141 411 167.5 c 128,-1,2
 395 194 395 194 378.5 224.5 c 128,-1,3
 362 255 362 255 348 285 c 128,-1,4
 334 315 334 315 324 340 c 1,5,6
 258 306 258 306 218 269.5 c 128,-1,7
 178 233 178 233 165 171 c 0,8,9
 153 119 153 119 185.5 92 c 128,-1,10
 218 65 218 65 274 65 c 0,11,12
 337 65 337 65 379 85 c 128,-1,13
 421 105 421 105 442 124 c 1,0,1
370 443 m 1,14,15
 420 470 420 470 446.5 504 c 128,-1,16
 473 538 473 538 480 575 c 0,17,18
 483 586 483 586 483 598.5 c 128,-1,19
 483 611 483 611 478.5 623 c 128,-1,20
 474 635 474 635 463 642.5 c 128,-1,21
 452 650 452 650 432 650 c 0,22,23
 396 650 396 650 377 625.5 c 128,-1,24
 358 601 358 601 351 569 c 0,25,26
 343 535 343 535 349 504 c 128,-1,27
 355 473 355 473 370 443 c 1,14,15
663 324 m 1,28,29
 648 268 648 268 617 214.5 c 128,-1,30
 586 161 586 161 544 113 c 1,31,32
 569 93 569 93 594 80.5 c 128,-1,33
 619 68 619 68 657 65 c 1,34,-1
 626 -10 l 1,35,36
 577 -7 577 -7 543.5 13.5 c 128,-1,37
 510 34 510 34 480 68 c 1,38,39
 433 29 433 29 372.5 9.5 c 128,-1,40
 312 -10 312 -10 255 -10 c 0,41,42
 214 -10 214 -10 177 1.5 c 128,-1,43
 140 13 140 13 115 36 c 128,-1,44
 90 59 90 59 79 94.5 c 128,-1,45
 68 130 68 130 78 175 c 0,46,47
 93 243 93 243 142.5 297.5 c 128,-1,48
 192 352 192 352 293 404 c 1,49,50
 277 442 277 442 270.5 487 c 128,-1,51
 264 532 264 532 274 576 c 0,52,53
 289 648 289 648 336 687 c 128,-1,54
 383 726 383 726 451 726 c 0,55,56
 513 726 513 726 544.5 687 c 128,-1,57
 576 648 576 648 561 582 c 0,58,59
 547 510 547 510 504 462 c 128,-1,60
 461 414 461 414 399 376 c 1,61,62
 429 317 429 317 450 267 c 128,-1,63
 471 217 471 217 507 168 c 1,64,65
 532 197 532 197 555.5 243 c 128,-1,66
 579 289 579 289 589 336 c 1,67,-1
 663 324 l 1,28,29
EndSplineSet
EndChar
StartChar: quotesingle
Encoding: 39 39 8
Width: 235
VWidth: 1473
Flags: W
HStem: 517 237<233 271 183 321 233 233>
Fore
233 754 m 1,0,-1
 321 754 l 1,1,-1
 271 517 l 1,2,-1
 183 517 l 1,3,-1
 233 754 l 1,0,-1
EndSplineSet
EndChar
StartChar: parenleft
Encoding: 40 40 9
Width: 397
VWidth: 1473
Flags: W
VStem: 138 102<19.9376 251.875>
Fore
517 874 m 1,0,1
 458 819 458 819 416 758 c 128,-1,2
 374 697 374 697 344.5 634.5 c 128,-1,3
 315 572 315 572 296 509 c 128,-1,4
 277 446 277 446 265 389 c 0,5,6
 252 330 252 330 244.5 267.5 c 128,-1,7
 237 205 237 205 240 142.5 c 128,-1,8
 243 80 243 80 259 18 c 128,-1,9
 275 -44 275 -44 309 -99 c 1,10,-1
 194 -99 l 1,11,12
 166 -44 166 -44 153 18 c 128,-1,13
 140 80 140 80 138 142.5 c 128,-1,14
 136 205 136 205 143 267.5 c 128,-1,15
 150 330 150 330 164 389 c 0,16,17
 175 446 175 446 194.5 509 c 128,-1,18
 214 572 214 572 242.5 634.5 c 128,-1,19
 271 697 271 697 310 758 c 128,-1,20
 349 819 349 819 402 874 c 1,21,-1
 517 874 l 1,0,1
EndSplineSet
EndChar
StartChar: parenright
Encoding: 41 41 10
Width: 397
VWidth: 1473
Flags: W
VStem: 322 101.5<522.775 756.093>
Fore
44 -99 m 1,0,1
 103 -44 103 -44 145 18 c 128,-1,2
 187 80 187 80 217 142.5 c 128,-1,3
 247 205 247 205 266.5 267.5 c 128,-1,4
 286 330 286 330 299 389 c 0,5,6
 311 446 311 446 318.5 509 c 128,-1,7
 326 572 326 572 322 634.5 c 128,-1,8
 318 697 318 697 302 758 c 128,-1,9
 286 819 286 819 252 874 c 1,10,-1
 367 874 l 1,11,12
 396 819 396 819 408.5 758 c 128,-1,13
 421 697 421 697 423.5 634.5 c 128,-1,14
 426 572 426 572 418.5 509 c 128,-1,15
 411 446 411 446 399 389 c 0,16,17
 386 330 386 330 367 267.5 c 128,-1,18
 348 205 348 205 319 142.5 c 128,-1,19
 290 80 290 80 251 18 c 128,-1,20
 212 -44 212 -44 159 -99 c 1,21,-1
 44 -99 l 1,0,1
EndSplineSet
EndChar
StartChar: asterisk
Encoding: 42 42 11
Width: 736
VWidth: 1473
Flags: W
HStem: 604 460<545 600 545 545>
VStem: 308 482<852 857 852 852>
Fore
592 869 m 1,0,-1
 779 944 l 1,1,-1
 790 857 l 1,2,-1
 594 807 l 1,3,-1
 688 666 l 1,4,-1
 600 604 l 1,5,-1
 533 766 l 1,6,-1
 396 604 l 1,7,-1
 331 659 l 1,8,-1
 489 807 l 1,9,-1
 308 852 l 1,10,-1
 359 941 l 1,11,-1
 519 869 l 1,12,-1
 545 1064 l 1,13,-1
 645 1064 l 1,14,-1
 592 869 l 1,0,-1
EndSplineSet
EndChar
StartChar: plus
Encoding: 43 43 12
Width: 751
VWidth: 1473
Flags: W
HStem: 270 79<147 385 496 734> 569 20G<449.667 548>
Fore
454 589 m 1,0,-1
 548 589 l 1,1,-1
 496 349 l 1,2,-1
 751 349 l 1,3,-1
 734 270 l 1,4,-1
 479 270 l 1,5,-1
 429 29 l 1,6,-1
 334 29 l 1,7,-1
 385 270 l 1,8,-1
 130 270 l 1,9,-1
 147 349 l 1,10,-1
 402 349 l 1,11,-1
 454 589 l 1,0,-1
EndSplineSet
EndChar
StartChar: comma
Encoding: 44 44 13
Width: 315
VWidth: 1473
Flags: W
HStem: -171 287<112 246 246 246>
Fore
246 116 m 1,0,-1
 222 0 l 1,1,-1
 112 -171 l 1,2,-1
 55 -171 l 1,3,-1
 141 0 l 1,4,-1
 93 0 l 1,5,-1
 116 116 l 1,6,-1
 246 116 l 1,0,-1
EndSplineSet
EndChar
StartChar: hyphen
Encoding: 45 45 14
Width: 490
VWidth: 1473
Flags: W
HStem: 299 88<143 492 125 510 143 143>
Fore
125 299 m 1,0,-1
 143 387 l 1,1,-1
 510 387 l 1,2,-1
 492 299 l 1,3,-1
 125 299 l 1,0,-1
EndSplineSet
EndChar
StartChar: period
Encoding: 46 46 15
Width: 315
VWidth: 1473
Flags: W
HStem: 0 116<116 222 93 246 116 116>
Fore
93 0 m 1,0,-1
 116 116 l 1,1,-1
 246 116 l 1,2,-1
 222 0 l 1,3,-1
 93 0 l 1,0,-1
EndSplineSet
EndChar
StartChar: slash
Encoding: 47 47 16
Width: 331
VWidth: 1473
Flags: W
Fore
87 -56 m 1,0,-1
 -12 -56 l 1,1,-1
 442 829 l 1,2,-1
 536 829 l 1,3,-1
 87 -56 l 1,0,-1
EndSplineSet
EndChar
StartChar: zero
Encoding: 48 48 17
Width: 626
VWidth: 1473
Flags: W
HStem: -7 72<237.933 423.272> 601 74<341.822 530.242>
VStem: 105.5 89<139.059 250.816> 573 88<329.589 525.287>
Fore
311 -7 m 0,0,1
 240 -7 240 -7 195 15.5 c 128,-1,2
 150 38 150 38 128 81.5 c 128,-1,3
 106 125 106 125 105.5 187 c 128,-1,4
 105 249 105 249 121 327 c 0,5,6
 156 494 156 494 235 584.5 c 128,-1,7
 314 675 314 675 457 675 c 0,8,9
 527 675 527 675 572 651.5 c 128,-1,10
 617 628 617 628 639 583.5 c 128,-1,11
 661 539 661 539 661 474.5 c 128,-1,12
 661 410 661 410 644 327 c 0,13,14
 611 171 611 171 531.5 82 c 128,-1,15
 452 -7 452 -7 311 -7 c 0,0,1
327 65 m 256,16,17
 382 65 382 65 418 80.5 c 128,-1,18
 454 96 454 96 479.5 128.5 c 128,-1,19
 505 161 505 161 521.5 210 c 128,-1,20
 538 259 538 259 552 327 c 0,21,22
 569 401 569 401 573 453 c 128,-1,23
 577 505 577 505 566 538.5 c 128,-1,24
 555 572 555 572 525 586.5 c 128,-1,25
 495 601 495 601 440 601 c 256,26,27
 386 601 386 601 349 586.5 c 128,-1,28
 312 572 312 572 287 538.5 c 128,-1,29
 262 505 262 505 246 453 c 128,-1,30
 230 401 230 401 214 327 c 0,31,32
 199 259 199 259 194.5 210 c 128,-1,33
 190 161 190 161 201 128.5 c 128,-1,34
 212 96 212 96 242.5 80.5 c 128,-1,35
 273 65 273 65 327 65 c 256,16,17
EndSplineSet
EndChar
StartChar: one
Encoding: 49 49 18
Width: 475
VWidth: 1473
Flags: W
HStem: 0 68<80 211 296 410>
VStem: 66 358<0 672 -11.2086 0>
Fore
66 0 m 1,0,-1
 80 68 l 1,1,-1
 211 68 l 1,2,-1
 318 573 l 1,3,-1
 189 544 l 1,4,-1
 202 608 l 1,5,-1
 370 672 l 1,6,-1
 424 672 l 1,7,-1
 296 68 l 1,8,-1
 423 68 l 1,9,-1
 410 0 l 1,10,-1
 66 0 l 1,0,-1
EndSplineSet
EndChar
StartChar: two
Encoding: 50 50 19
Width: 558
VWidth: 1473
Flags: W
HStem: 0 72<152 488> 604 72<334.722 492.765>
Fore
169 491 m 1,0,1
 206 582 206 582 279 629 c 128,-1,2
 352 676 352 676 438 676 c 0,3,4
 539 676 539 676 579.5 622.5 c 128,-1,5
 620 569 620 569 601 482 c 0,6,7
 583 401 583 401 520.5 345 c 128,-1,8
 458 289 458 289 355 247 c 0,9,10
 290 222 290 222 252 199.5 c 128,-1,11
 214 177 214 177 193 155.5 c 128,-1,12
 172 134 172 134 164 113.5 c 128,-1,13
 156 93 156 93 152 72 c 1,14,-1
 502 72 l 1,15,-1
 488 0 l 1,16,-1
 59 0 l 1,17,-1
 69 55 l 2,18,19
 77 88 77 88 88 120.5 c 128,-1,20
 99 153 99 153 125.5 185 c 128,-1,21
 152 217 152 217 200.5 249 c 128,-1,22
 249 281 249 281 330 312 c 0,23,24
 385 333 385 333 418 354.5 c 128,-1,25
 451 376 451 376 469.5 397 c 128,-1,26
 488 418 488 418 496.5 440.5 c 128,-1,27
 505 463 505 463 510 486 c 0,28,29
 520 538 520 538 501.5 571 c 128,-1,30
 483 604 483 604 417 604 c 0,31,32
 370 604 370 604 325.5 577.5 c 128,-1,33
 281 551 281 551 247 477 c 1,34,-1
 169 491 l 1,0,1
EndSplineSet
EndChar
StartChar: three
Encoding: 51 51 20
Width: 584
VWidth: 1473
Flags: W
HStem: -10 73<219.609 395.992> 320 72<273 438.562> 605 71<332.862 497.514>
Fore
155 166 m 1,0,1
 181 102 181 102 221 82.5 c 128,-1,2
 261 63 261 63 306 63 c 0,3,4
 380 63 380 63 417.5 101.5 c 128,-1,5
 455 140 455 140 466 190 c 0,6,7
 482 264 482 264 448 292 c 128,-1,8
 414 320 414 320 320 320 c 2,9,-1
 258 320 l 1,10,-1
 273 392 l 1,11,-1
 324 392 l 2,12,13
 414 392 414 392 456.5 418.5 c 128,-1,14
 499 445 499 445 513 511 c 0,15,16
 523 554 523 554 501.5 579.5 c 128,-1,17
 480 605 480 605 412 605 c 0,18,19
 376 605 376 605 336 587 c 128,-1,20
 296 569 296 569 250 524 c 1,21,-1
 202 573 l 1,22,23
 262 629 262 629 319.5 652.5 c 128,-1,24
 377 676 377 676 433 676 c 0,25,26
 527 676 527 676 576 638.5 c 128,-1,27
 625 601 625 601 607 517 c 0,28,29
 592 449 592 449 557 411.5 c 128,-1,30
 522 374 522 374 470 358 c 1,31,32
 492 352 492 352 511 340.5 c 128,-1,33
 530 329 530 329 543.5 309 c 128,-1,34
 557 289 557 289 562 261 c 128,-1,35
 567 233 567 233 558 193 c 0,36,37
 539 97 539 97 477 43.5 c 128,-1,38
 415 -10 415 -10 287 -10 c 0,39,40
 124 -10 124 -10 77 124 c 1,41,-1
 155 166 l 1,0,1
EndSplineSet
EndChar
StartChar: four
Encoding: 52 52 21
Width: 545
VWidth: 1473
Flags: W
HStem: 0 21G<343 432.969> 131 74<166 370 471 557>
Fore
72 202 m 1,0,-1
 464 672 l 1,1,-1
 570 672 l 1,2,-1
 471 205 l 1,3,-1
 573 205 l 1,4,-1
 557 131 l 1,5,-1
 455 131 l 1,6,-1
 429 0 l 1,7,-1
 343 0 l 1,8,-1
 370 131 l 1,9,-1
 56 131 l 1,10,-1
 72 202 l 1,0,-1
166 205 m 1,11,-1
 386 205 l 1,12,-1
 464 575 l 1,13,-1
 457 575 l 1,14,-1
 166 205 l 1,11,-1
EndSplineSet
EndChar
StartChar: five
Encoding: 53 53 22
Width: 608
VWidth: 1473
Flags: W
HStem: -10 73<229.869 373.411> 379 73<342.491 475.757> 600 72<330 619>
Fore
153 303 m 1,0,-1
 262 672 l 1,1,-1
 633 672 l 1,2,-1
 619 600 l 1,3,-1
 330 600 l 1,4,-1
 270 402 l 1,5,6
 306 432 306 432 342.5 442 c 128,-1,7
 379 452 379 452 414 452 c 0,8,9
 463 452 463 452 500.5 439 c 128,-1,10
 538 426 538 426 562 398.5 c 128,-1,11
 586 371 586 371 594.5 327.5 c 128,-1,12
 603 284 603 284 589 224 c 0,13,14
 576 159 576 159 547.5 114 c 128,-1,15
 519 69 519 69 478.5 42 c 128,-1,16
 438 15 438 15 387.5 2.5 c 128,-1,17
 337 -10 337 -10 280 -10 c 0,18,19
 249 -10 249 -10 218 -2 c 128,-1,20
 187 6 187 6 161.5 21.5 c 128,-1,21
 136 37 136 37 117.5 61 c 128,-1,22
 99 85 99 85 90 116 c 1,23,-1
 164 161 l 1,24,25
 180 105 180 105 214.5 84 c 128,-1,26
 249 63 249 63 302 63 c 0,27,28
 393 63 393 63 436 103 c 128,-1,29
 479 143 479 143 495 220 c 0,30,31
 514 309 514 309 489 344 c 128,-1,32
 464 379 464 379 387 379 c 0,33,34
 345 379 345 379 295 359 c 128,-1,35
 245 339 245 339 215 296 c 1,36,-1
 153 303 l 1,0,-1
EndSplineSet
EndChar
StartChar: six
Encoding: 54 54 23
Width: 601
VWidth: 1473
Flags: W
HStem: -10 75<260.337 434.916> 345 72<325.314 484.308> 605 71<361.365 522.437>
Fore
583 557 m 1,0,1
 561 582 561 582 526.5 593.5 c 128,-1,2
 492 605 492 605 454 605 c 0,3,4
 404 605 404 605 368.5 590.5 c 128,-1,5
 333 576 333 576 307 543.5 c 128,-1,6
 281 511 281 511 263 459.5 c 128,-1,7
 245 408 245 408 228 336 c 1,8,9
 271 374 271 374 322 395.5 c 128,-1,10
 373 417 373 417 429 417 c 0,11,12
 491 417 491 417 527 400 c 128,-1,13
 563 383 563 383 580.5 353.5 c 128,-1,14
 598 324 598 324 599.5 284.5 c 128,-1,15
 601 245 601 245 591 197 c 0,16,17
 570 100 570 100 501 45 c 128,-1,18
 432 -10 432 -10 320 -10 c 0,19,20
 180 -10 180 -10 138 67 c 128,-1,21
 96 144 96 144 131 309 c 0,22,23
 150 398 150 398 179 465.5 c 128,-1,24
 208 533 208 533 249 580.5 c 128,-1,25
 290 628 290 628 344.5 652 c 128,-1,26
 399 676 399 676 470 676 c 0,27,28
 514 676 514 676 560.5 662 c 128,-1,29
 607 648 607 648 636 622 c 1,30,-1
 583 557 l 1,0,1
396 345 m 0,31,32
 359 345 359 345 326 331.5 c 128,-1,33
 293 318 293 318 268 299.5 c 128,-1,34
 243 281 243 281 227.5 263.5 c 128,-1,35
 212 246 212 246 211 237 c 0,36,37
 199 183 199 183 202.5 149 c 128,-1,38
 206 115 206 115 224 96 c 128,-1,39
 242 77 242 77 270.5 71 c 128,-1,40
 299 65 299 65 337 65 c 0,41,42
 415 65 415 65 449 97.5 c 128,-1,43
 483 130 483 130 499 208 c 0,44,45
 516 277 516 277 495 311 c 128,-1,46
 474 345 474 345 396 345 c 0,31,32
EndSplineSet
EndChar
StartChar: seven
Encoding: 55 55 24
Width: 499
VWidth: 1473
Flags: W
HStem: 0 21G<84 199.552> 600 72<186 496>
Fore
186 672 m 1,0,-1
 611 672 l 1,1,-1
 600 611 l 1,2,-1
 186 0 l 1,3,-1
 84 0 l 1,4,-1
 496 600 l 1,5,-1
 171 600 l 1,6,-1
 186 672 l 1,0,-1
EndSplineSet
EndChar
StartChar: eight
Encoding: 56 56 25
Width: 623
VWidth: 1473
Flags: W
HStem: -10 73<226.77 430.427> 607 71<345.516 526.336>
Fore
638 501 m 0,0,1
 628 457 628 457 586.5 417 c 128,-1,2
 545 377 545 377 479 355 c 1,3,4
 557 317 557 317 581 273.5 c 128,-1,5
 605 230 605 230 594 178 c 0,6,7
 575 87 575 87 505 38.5 c 128,-1,8
 435 -10 435 -10 309 -10 c 256,9,10
 184 -10 184 -10 134 38.5 c 128,-1,11
 84 87 84 87 103 178 c 0,12,13
 115 230 115 230 157 273.5 c 128,-1,14
 199 317 199 317 295 355 c 1,15,16
 236 377 236 377 211.5 417 c 128,-1,17
 187 457 187 457 197 501 c 0,18,19
 215 586 215 586 282 632 c 128,-1,20
 349 678 349 678 455 678 c 256,21,22
 561 678 561 678 608.5 632 c 128,-1,23
 656 586 656 586 638 501 c 0,0,1
326 63 m 0,24,25
 399 63 399 63 444 92 c 128,-1,26
 489 121 489 121 501 178 c 0,27,28
 507 205 507 205 502.5 225 c 128,-1,29
 498 245 498 245 483 260 c 128,-1,30
 468 275 468 275 442.5 290 c 128,-1,31
 417 305 417 305 380 321 c 1,32,33
 334 305 334 305 302.5 290 c 128,-1,34
 271 275 271 275 249 260 c 128,-1,35
 227 245 227 245 214.5 225 c 128,-1,36
 202 205 202 205 196 178 c 0,37,38
 172 63 172 63 326 63 c 0,24,25
393 387 m 1,39,40
 460 404 460 404 499 432.5 c 128,-1,41
 538 461 538 461 547 504 c 0,42,43
 570 607 570 607 440 607 c 0,44,45
 312 607 312 607 289 504 c 0,46,47
 273 421 273 421 393 387 c 1,39,40
EndSplineSet
EndChar
StartChar: nine
Encoding: 57 57 26
Width: 599
VWidth: 1473
Flags: W
HStem: -9 72<236.338 378.589> 250 74<256.431 416.202> 604 74<307.355 479.194>
Fore
146 112 m 1,0,1
 166 87 166 87 207.5 75 c 128,-1,2
 249 63 249 63 287 63 c 0,3,4
 337 63 337 63 372.5 78 c 128,-1,5
 408 93 408 93 434 125.5 c 128,-1,6
 460 158 460 158 479 209.5 c 128,-1,7
 498 261 498 261 513 333 c 1,8,9
 470 295 470 295 420 272.5 c 128,-1,10
 370 250 370 250 314 250 c 0,11,12
 252 250 252 250 215 267 c 128,-1,13
 178 284 178 284 160.5 313.5 c 128,-1,14
 143 343 143 343 141.5 383.5 c 128,-1,15
 140 424 140 424 150 470 c 0,16,17
 171 567 171 567 240 622.5 c 128,-1,18
 309 678 309 678 420 678 c 0,19,20
 560 678 560 678 602 601 c 128,-1,21
 644 524 644 524 608 359 c 0,22,23
 589 271 589 271 565 202.5 c 128,-1,24
 541 134 541 134 502 87 c 128,-1,25
 463 40 463 40 407.5 15.5 c 128,-1,26
 352 -9 352 -9 271 -9 c 0,27,28
 249 -9 249 -9 223 -5 c 128,-1,29
 197 -1 197 -1 173 6 c 128,-1,30
 149 13 149 13 127 23.5 c 128,-1,31
 105 34 105 34 90 47 c 1,32,-1
 146 112 l 1,0,1
343 324 m 0,33,34
 382 324 382 324 415 337.5 c 128,-1,35
 448 351 448 351 473 368.5 c 128,-1,36
 498 386 498 386 514 403.5 c 128,-1,37
 530 421 530 421 532 430 c 0,38,39
 544 486 544 486 539.5 520 c 128,-1,40
 535 554 535 554 517 572.5 c 128,-1,41
 499 591 499 591 470.5 597.5 c 128,-1,42
 442 604 442 604 404 604 c 0,43,44
 326 604 326 604 292 571 c 128,-1,45
 258 538 258 538 242 460 c 0,46,47
 227 392 227 392 246 358 c 128,-1,48
 265 324 265 324 343 324 c 0,33,34
EndSplineSet
EndChar
StartChar: colon
Encoding: 58 58 27
Width: 331
VWidth: 1473
Flags: W
HStem: 0 122<124 233> 364 122<202 309>
VStem: 99 237<0 486 274.212 372.248>
Fore
99 0 m 1,0,-1
 124 122 l 1,1,-1
 258 122 l 1,2,-1
 233 0 l 1,3,-1
 99 0 l 1,0,-1
175 364 m 1,4,-1
 202 486 l 1,5,-1
 336 486 l 1,6,-1
 309 364 l 1,7,-1
 175 364 l 1,4,-1
EndSplineSet
EndChar
StartChar: semicolon
Encoding: 59 59 28
Width: 331
VWidth: 1473
Flags: W
HStem: 364 122<202 309>
VStem: 57 279<-180 486 218.747 316.784>
Fore
258 122 m 1,0,-1
 233 0 l 1,1,-1
 118 -180 l 1,2,-1
 57 -180 l 1,3,-1
 150 0 l 1,4,-1
 99 0 l 1,5,-1
 124 122 l 1,6,-1
 258 122 l 1,0,-1
175 364 m 1,7,-1
 202 486 l 1,8,-1
 336 486 l 1,9,-1
 309 364 l 1,10,-1
 175 364 l 1,7,-1
EndSplineSet
EndChar
StartChar: less
Encoding: 60 60 29
Width: 715
VWidth: 1473
Flags: W
HStem: -7 21G<625.35 670.615>
Fore
666 -7 m 1,0,-1
 103 270 l 1,1,-1
 121 351 l 1,2,-1
 801 628 l 1,3,-1
 782 536 l 1,4,-1
 208 311 l 1,5,-1
 687 84 l 1,6,-1
 666 -7 l 1,0,-1
EndSplineSet
EndChar
StartChar: equal
Encoding: 61 61 30
Width: 715
VWidth: 1473
Flags: W
HStem: 159 78<97 701> 398 78<147 753>
Fore
753 398 m 1,0,-1
 131 398 l 1,1,-1
 147 476 l 1,2,-1
 769 476 l 1,3,-1
 753 398 l 1,0,-1
701 159 m 1,4,-1
 80 159 l 1,5,-1
 97 237 l 1,6,-1
 719 237 l 1,7,-1
 701 159 l 1,4,-1
EndSplineSet
EndChar
StartChar: greater
Encoding: 62 62 31
Width: 715
VWidth: 1473
Flags: W
HStem: -7 21G<48.6154 94.4833>
Fore
65 84 m 1,0,-1
 638 311 l 1,1,-1
 161 536 l 1,2,-1
 180 628 l 1,3,-1
 744 358 l 1,4,-1
 723 262 l 1,5,-1
 44 -7 l 1,6,-1
 65 84 l 1,0,-1
EndSplineSet
EndChar
StartChar: question
Encoding: 63 63 32
Width: 508
VWidth: 1473
Flags: W
HStem: 0 122<178 301> 787 87<375.38 492.12>
VStem: 153 465<0 763 1.53064e-18 1.53064e-18>
Fore
187 726 m 1,0,1
 206 760 206 760 235 787.5 c 128,-1,2
 264 815 264 815 298.5 834 c 128,-1,3
 333 853 333 853 371.5 863.5 c 128,-1,4
 410 874 410 874 448 874 c 0,5,6
 492 874 492 874 527.5 861.5 c 128,-1,7
 563 849 563 849 586.5 824.5 c 128,-1,8
 610 800 610 800 618 763 c 128,-1,9
 626 726 626 726 616 679 c 0,10,11
 604 620 604 620 565.5 579 c 128,-1,12
 527 538 527 538 484.5 501 c 128,-1,13
 442 464 442 464 403.5 423 c 128,-1,14
 365 382 365 382 352 320 c 2,15,-1
 339 262 l 1,16,-1
 231 262 l 1,17,-1
 245 320 l 2,18,19
 256 377 256 377 295 422 c 128,-1,20
 334 467 334 467 378.5 509 c 128,-1,21
 423 551 423 551 462 595 c 128,-1,22
 501 639 501 639 513 695 c 0,23,24
 520 729 520 729 498.5 758 c 128,-1,25
 477 787 477 787 427 787 c 0,26,27
 368 787 368 787 329 753.5 c 128,-1,28
 290 720 290 720 268 682 c 1,29,-1
 187 726 l 1,0,1
153 0 m 1,30,-1
 178 122 l 1,31,-1
 326 122 l 1,32,-1
 301 0 l 1,33,-1
 153 0 l 1,30,-1
EndSplineSet
EndChar
StartChar: at
Encoding: 64 64 33
Width: 808
VWidth: 1473
Flags: W
HStem: -10 65<318.773 510.243> 150 65<352.478 446.79 548.95 644.087> 505 67<463.697 572.573> 670 64<446.435 671.545>
Fore
401 215 m 0,0,1
 432 215 432 215 460 234 c 128,-1,2
 488 253 488 253 510.5 283.5 c 128,-1,3
 533 314 533 314 549.5 350.5 c 128,-1,4
 566 387 566 387 573 421 c 0,5,6
 580 458 580 458 573.5 481.5 c 128,-1,7
 567 505 567 505 538 505 c 0,8,9
 498 505 498 505 467 488 c 128,-1,10
 436 471 436 471 413 443 c 128,-1,11
 390 415 390 415 374.5 379 c 128,-1,12
 359 343 359 343 351 305 c 0,13,14
 342 258 342 258 352 236.5 c 128,-1,15
 362 215 362 215 401 215 c 0,0,1
667 551 m 1,16,-1
 735 551 l 1,17,-1
 582 295 l 2,18,19
 573 278 573 278 570 267 c 0,20,-1
 564 245 l 0,21,22
 557 218 557 218 586 218 c 256,23,24
 616 218 616 218 646 234 c 128,-1,25
 676 250 676 250 702 279 c 128,-1,26
 728 308 728 308 748 346.5 c 128,-1,27
 768 385 768 385 776 427 c 0,28,29
 790 488 790 488 779 532.5 c 128,-1,30
 768 577 768 577 738.5 608 c 128,-1,31
 709 639 709 639 664 654.5 c 128,-1,32
 619 670 619 670 563 670 c 0,33,34
 495 670 495 670 434.5 646.5 c 128,-1,35
 374 623 374 623 326 581 c 128,-1,36
 278 539 278 539 245 482.5 c 128,-1,37
 212 426 212 426 197 358 c 0,38,39
 184 292 184 292 194.5 236 c 128,-1,40
 205 180 205 180 236 140 c 128,-1,41
 267 100 267 100 317 77.5 c 128,-1,42
 367 55 367 55 433 55 c 0,43,44
 510 55 510 55 578.5 81.5 c 128,-1,45
 647 108 647 108 706 174 c 1,46,-1
 778 174 l 1,47,48
 745 131 745 131 703 97 c 128,-1,49
 661 63 661 63 615 39 c 128,-1,50
 569 15 569 15 518.5 2.5 c 128,-1,51
 468 -10 468 -10 420 -10 c 0,52,53
 340 -10 340 -10 279 19.5 c 128,-1,54
 218 49 218 49 179 100.5 c 128,-1,55
 140 152 140 152 126 220.5 c 128,-1,56
 112 289 112 289 128 365 c 256,57,58
 144 442 144 442 188.5 509 c 128,-1,59
 233 576 233 576 293.5 626 c 128,-1,60
 354 676 354 676 426.5 705 c 128,-1,61
 499 734 499 734 575 734 c 0,62,63
 645 734 645 734 702.5 711 c 128,-1,64
 760 688 760 688 797 647.5 c 128,-1,65
 834 607 834 607 848 550.5 c 128,-1,66
 862 494 862 494 847 426 c 0,67,68
 834 367 834 367 802 317 c 128,-1,69
 770 267 770 267 729.5 230 c 128,-1,70
 689 193 689 193 644.5 171.5 c 128,-1,71
 600 150 600 150 561 150 c 0,72,73
 535 150 535 150 518.5 166.5 c 128,-1,74
 502 183 502 183 505 208 c 1,75,-1
 504 208 l 1,76,77
 474 183 474 183 442.5 166.5 c 128,-1,78
 411 150 411 150 373 150 c 0,79,80
 340 150 340 150 319 162.5 c 128,-1,81
 298 175 298 175 285.5 196 c 128,-1,82
 273 217 273 217 270.5 243.5 c 128,-1,83
 268 270 268 270 274 299 c 0,84,85
 286 354 286 354 310 403 c 128,-1,86
 334 452 334 452 371 489.5 c 128,-1,87
 408 527 408 527 455 549.5 c 128,-1,88
 502 572 502 572 557 572 c 0,89,90
 591 572 591 572 613.5 553.5 c 128,-1,91
 636 535 636 535 635 498 c 1,92,-1
 667 551 l 1,16,-1
EndSplineSet
EndChar
StartChar: A
Encoding: 65 65 34
Width: 682
VWidth: 1473
Flags: W
HStem: 0 21G<29 146.674 544.513 653> 193 80<280 519> 695 20G<424.615 553.853>
Fore
519 273 m 1,0,-1
 473 619 l 1,1,-1
 280 273 l 1,2,-1
 519 273 l 1,0,-1
436 715 m 1,3,-1
 551 715 l 1,4,-1
 653 0 l 1,5,-1
 547 0 l 1,6,-1
 523 193 l 1,7,-1
 239 193 l 1,8,-1
 136 0 l 1,9,-1
 29 0 l 1,10,-1
 436 715 l 1,3,-1
EndSplineSet
EndChar
StartChar: B
Encoding: 66 66 35
Width: 629
VWidth: 1473
Flags: W
HStem: 0 77<205 394.592> 359 74<280 445.421> 635 81<323 547.3>
VStem: 533.5 101<235.906 325.466>
Fore
541 399 m 1,0,1
 567 393 567 393 587 375 c 128,-1,2
 607 357 607 357 619 332.5 c 128,-1,3
 631 308 631 308 634.5 279 c 128,-1,4
 638 250 638 250 631 221 c 0,5,6
 620 172 620 172 598.5 131.5 c 128,-1,7
 577 91 577 91 542.5 61.5 c 128,-1,8
 508 32 508 32 458 16 c 128,-1,9
 408 0 408 0 340 0 c 2,10,-1
 88 0 l 1,11,-1
 240 716 l 1,12,-1
 495 716 l 2,13,14
 551 716 551 716 586.5 702.5 c 128,-1,15
 622 689 622 689 641 666.5 c 128,-1,16
 660 644 660 644 663.5 613.5 c 128,-1,17
 667 583 667 583 660 550 c 0,18,19
 648 491 648 491 615.5 451.5 c 128,-1,20
 583 412 583 412 541 399 c 1,0,1
323 635 m 1,21,-1
 280 433 l 1,22,-1
 405 433 l 2,23,24
 476 433 476 433 510.5 466 c 128,-1,25
 545 499 545 499 557 550 c 0,26,27
 566 592 566 592 548 613.5 c 128,-1,28
 530 635 530 635 477 635 c 2,29,-1
 323 635 l 1,21,-1
342 77 m 2,30,31
 382 77 382 77 412.5 83.5 c 128,-1,32
 443 90 443 90 466 106 c 128,-1,33
 489 122 489 122 504 150 c 128,-1,34
 519 178 519 178 527 221 c 0,35,36
 535 256 535 256 533.5 282.5 c 128,-1,37
 532 309 532 309 516.5 326 c 128,-1,38
 501 343 501 343 469.5 351 c 128,-1,39
 438 359 438 359 386 359 c 2,40,-1
 264 359 l 1,41,-1
 205 77 l 1,42,-1
 342 77 l 2,30,31
EndSplineSet
EndChar
StartChar: C
Encoding: 67 67 36
Width: 558
VWidth: 1473
Flags: W
HStem: -10 79<255.568 410.188> 591 21G<594 625.429> 644 79<369.912 537.181>
VStem: 111.5 101<145.801 190 190 353.945>
Fore
134 357 m 256,0,1
 155 454 155 454 183 523 c 128,-1,2
 211 592 211 592 252 637 c 128,-1,3
 293 682 293 682 350 702.5 c 128,-1,4
 407 723 407 723 483 723 c 0,5,6
 532 723 532 723 583.5 707.5 c 128,-1,7
 635 692 635 692 669 661 c 1,8,-1
 608 591 l 1,9,10
 580 620 580 620 544 632 c 128,-1,11
 508 644 508 644 464 644 c 0,12,13
 412 644 412 644 376 629 c 128,-1,14
 340 614 340 614 314.5 580.5 c 128,-1,15
 289 547 289 547 270.5 492.5 c 128,-1,16
 252 438 252 438 234 357 c 256,17,18
 217 275 217 275 212.5 220.5 c 128,-1,19
 208 166 208 166 219.5 132.5 c 128,-1,20
 231 99 231 99 260.5 84 c 128,-1,21
 290 69 290 69 342 69 c 0,22,23
 386 69 386 69 428 81 c 128,-1,24
 470 93 470 93 508 122 c 1,25,-1
 539 52 l 1,26,27
 492 21 492 21 434 5.5 c 128,-1,28
 376 -10 376 -10 327 -10 c 0,29,30
 250 -10 250 -10 202.5 10.5 c 128,-1,31
 155 31 155 31 132.5 76 c 128,-1,32
 110 121 110 121 111.5 190 c 128,-1,33
 113 259 113 259 134 357 c 256,0,1
EndSplineSet
EndChar
StartChar: D
Encoding: 68 68 37
Width: 687
VWidth: 1473
Flags: W
HStem: 0 77<208 444.683> 639 77<327 557.384>
Fore
327 639 m 1,0,-1
 208 77 l 1,1,-1
 342 77 l 2,2,3
 404 77 404 77 446 91.5 c 128,-1,4
 488 106 488 106 516 137.5 c 128,-1,5
 544 169 544 169 562 221 c 128,-1,6
 580 273 580 273 597 348 c 0,7,8
 614 430 614 430 618.5 485.5 c 128,-1,9
 623 541 623 541 608.5 575.5 c 128,-1,10
 594 610 594 610 558.5 624.5 c 128,-1,11
 523 639 523 639 461 639 c 2,12,-1
 327 639 l 1,0,-1
88 0 m 1,13,-1
 240 716 l 1,14,-1
 477 716 l 2,15,16
 635 716 635 716 688 624 c 128,-1,17
 741 532 741 532 703 348 c 0,18,19
 666 174 666 174 574.5 87 c 128,-1,20
 483 0 483 0 326 0 c 2,21,-1
 88 0 l 1,13,-1
EndSplineSet
EndChar
StartChar: E
Encoding: 69 69 38
Width: 539
VWidth: 1473
Flags: W
HStem: 0 77<208 505> 336 76<278 536> 639 77<327 645>
Fore
208 77 m 1,0,-1
 522 77 l 1,1,-1
 505 0 l 1,2,-1
 88 0 l 1,3,-1
 240 716 l 1,4,-1
 661 716 l 1,5,-1
 645 639 l 1,6,-1
 327 639 l 1,7,-1
 278 412 l 1,8,-1
 552 412 l 1,9,-1
 536 336 l 1,10,-1
 262 336 l 1,11,-1
 208 77 l 1,0,-1
EndSplineSet
EndChar
StartChar: F
Encoding: 70 70 39
Width: 539
VWidth: 1473
Flags: W
HStem: 0 21G<88 196.167> 336 76<278 536> 639 77<327 645>
Fore
192 0 m 1,0,-1
 88 0 l 1,1,-1
 240 716 l 1,2,-1
 661 716 l 1,3,-1
 645 639 l 1,4,-1
 327 639 l 1,5,-1
 278 412 l 1,6,-1
 552 412 l 1,7,-1
 536 336 l 1,8,-1
 262 336 l 1,9,-1
 192 0 l 1,0,-1
EndSplineSet
EndChar
StartChar: G
Encoding: 71 71 40
Width: 640
VWidth: 1473
Flags: W
HStem: -10 79<270.489 412.844> 303 79<456.534 532> 591 21G<609 640.429> 644 79<384.617 552.181>
VStem: 126.5 100<146.976 190 190 353.945>
Fore
532 303 m 1,0,-1
 501 303 l 2,1,2
 473 303 473 303 456 300.5 c 128,-1,3
 439 298 439 298 430 296.5 c 128,-1,4
 421 295 421 295 418 296.5 c 128,-1,5
 415 298 415 298 412 306 c 0,6,7
 407 321 407 321 411 347 c 128,-1,8
 415 373 415 373 423 382 c 1,9,-1
 648 382 l 1,10,-1
 583 80 l 1,11,12
 547 49 547 49 485.5 19.5 c 128,-1,13
 424 -10 424 -10 342 -10 c 0,14,15
 265 -10 265 -10 217 10.5 c 128,-1,16
 169 31 169 31 147 76 c 128,-1,17
 125 121 125 121 126.5 190 c 128,-1,18
 128 259 128 259 149 357 c 256,19,20
 169 454 169 454 197 523 c 128,-1,21
 225 592 225 592 266.5 637 c 128,-1,22
 308 682 308 682 364.5 702.5 c 128,-1,23
 421 723 421 723 498 723 c 0,24,25
 547 723 547 723 598.5 707.5 c 128,-1,26
 650 692 650 692 684 661 c 1,27,-1
 623 591 l 1,28,29
 595 620 595 620 559 632 c 128,-1,30
 523 644 523 644 479 644 c 0,31,32
 427 644 427 644 391 629 c 128,-1,33
 355 614 355 614 329 580.5 c 128,-1,34
 303 547 303 547 285 492.5 c 128,-1,35
 267 438 267 438 249 357 c 256,36,37
 231 275 231 275 226.5 220.5 c 128,-1,38
 222 166 222 166 234 132.5 c 128,-1,39
 246 99 246 99 275.5 84 c 128,-1,40
 305 69 305 69 357 69 c 0,41,42
 379 69 379 69 417 81 c 128,-1,43
 455 93 455 93 494 122 c 1,44,-1
 532 303 l 1,0,-1
EndSplineSet
EndChar
StartChar: H
Encoding: 72 72 41
Width: 671
VWidth: 1473
Flags: W
HStem: 0 21G<88 196.167 480 587.246> 336 76<278 551> 696 20G<235.754 343 627.724 735>
Fore
567 412 m 1,0,-1
 632 716 l 1,1,-1
 735 716 l 1,2,-1
 583 0 l 1,3,-1
 480 0 l 1,4,-1
 551 336 l 1,5,-1
 262 336 l 1,6,-1
 192 0 l 1,7,-1
 88 0 l 1,8,-1
 240 716 l 1,9,-1
 343 716 l 1,10,-1
 278 412 l 1,11,-1
 567 412 l 1,0,-1
EndSplineSet
EndChar
StartChar: I
Encoding: 73 73 42
Width: 406
VWidth: 1473
Flags: W
HStem: 0 69<43 164 265 373> 647 69<186 287 389 514>
Fore
265 69 m 1,0,-1
 386 69 l 1,1,-1
 373 0 l 1,2,-1
 29 0 l 1,3,-1
 43 69 l 1,4,-1
 164 69 l 1,5,-1
 287 647 l 1,6,-1
 171 647 l 1,7,-1
 186 716 l 1,8,-1
 529 716 l 1,9,-1
 514 647 l 1,10,-1
 389 647 l 1,11,-1
 265 69 l 1,0,-1
EndSplineSet
EndChar
StartChar: J
Encoding: 74 74 43
Width: 487
VWidth: 1473
Flags: W
HStem: -10 79<132.184 263.135> 696 20G<443.725 551>
Fore
467 323 m 2,0,1
 446 225 446 225 424 161 c 128,-1,2
 402 97 402 97 372 59 c 128,-1,3
 342 21 342 21 299 5.5 c 128,-1,4
 256 -10 256 -10 196 -10 c 0,5,6
 147 -10 147 -10 103 5.5 c 128,-1,7
 59 21 59 21 25 52 c 1,8,-1
 85 122 l 1,9,10
 113 93 113 93 141 81 c 128,-1,11
 169 69 169 69 214 69 c 0,12,13
 243 69 243 69 263.5 78.5 c 128,-1,14
 284 88 284 88 301 115.5 c 128,-1,15
 318 143 318 143 332 192.5 c 128,-1,16
 346 242 346 242 364 323 c 2,17,-1
 448 716 l 1,18,-1
 551 716 l 1,19,-1
 467 323 l 2,0,1
EndSplineSet
EndChar
StartChar: K
Encoding: 75 75 44
Width: 639
VWidth: 1473
Flags: W
HStem: 0 21G<88 196.143 453.299 585> 696 20G<235.754 343 581.618 734>
Fore
88 0 m 1,0,-1
 240 716 l 1,1,-1
 343 716 l 1,2,-1
 278 412 l 1,3,-1
 603 716 l 1,4,-1
 734 716 l 1,5,-1
 405 415 l 1,6,-1
 585 0 l 1,7,-1
 461 0 l 1,8,-1
 327 348 l 1,9,-1
 250 280 l 1,10,-1
 192 0 l 1,11,-1
 88 0 l 1,0,-1
EndSplineSet
EndChar
StartChar: L
Encoding: 76 76 45
Width: 524
VWidth: 1473
Flags: W
HStem: 0 77<208 510 88 526 208 208> 696 20G<235.754 343>
Fore
208 77 m 1,0,-1
 526 77 l 1,1,-1
 510 0 l 1,2,-1
 88 0 l 1,3,-1
 240 716 l 1,4,-1
 343 716 l 1,5,-1
 208 77 l 1,0,-1
EndSplineSet
EndChar
StartChar: M
Encoding: 77 77 46
Width: 857
VWidth: 1473
Flags: W
HStem: 0 21G<88 193.202 374.882 490.555 669 773.246> 575 20G<783.445 789.798> 696 20G<235.754 394.074 758.465 921>
Fore
769 716 m 1,0,-1
 921 716 l 1,1,-1
 769 0 l 1,2,-1
 669 0 l 1,3,-1
 794 595 l 1,4,-1
 480 0 l 1,5,-1
 377 0 l 1,6,-1
 314 595 l 1,7,-1
 189 0 l 1,8,-1
 88 0 l 1,9,-1
 240 716 l 1,10,-1
 392 716 l 1,11,-1
 454 118 l 1,12,-1
 769 716 l 1,0,-1
EndSplineSet
EndChar
StartChar: N
Encoding: 78 78 47
Width: 701
VWidth: 1473
Flags: W
HStem: 0 21G<88 196.202 489.017 617.246> 696 20G<235.754 383.143 656.759 765>
Fore
88 0 m 1,0,-1
 240 716 l 1,1,-1
 377 716 l 1,2,-1
 545 169 l 1,3,-1
 661 716 l 1,4,-1
 765 716 l 1,5,-1
 613 0 l 1,6,-1
 495 0 l 1,7,-1
 317 595 l 1,8,-1
 192 0 l 1,9,-1
 88 0 l 1,0,-1
EndSplineSet
EndChar
StartChar: O
Encoding: 79 79 48
Width: 695
VWidth: 1473
Flags: W
HStem: -9 84<269.163 458.018> 639 81<386.981 571.78>
VStem: 624 104.5<351.839 544.909>
Fore
362 75 m 0,0,1
 414 75 414 75 452.5 90 c 128,-1,2
 491 105 491 105 519 138 c 128,-1,3
 547 171 547 171 567.5 222.5 c 128,-1,4
 588 274 588 274 604 349 c 0,5,6
 622 432 622 432 624 487 c 128,-1,7
 626 542 626 542 612 576 c 128,-1,8
 598 610 598 610 566.5 624.5 c 128,-1,9
 535 639 535 639 483 639 c 256,10,11
 432 639 432 639 393.5 624.5 c 128,-1,12
 355 610 355 610 326.5 576 c 128,-1,13
 298 542 298 542 277 487 c 128,-1,14
 256 432 256 432 239 349 c 0,15,16
 206 200 206 200 232.5 137.5 c 128,-1,17
 259 75 259 75 362 75 c 0,0,1
345 -9 m 0,18,19
 189 -9 189 -9 142.5 84 c 128,-1,20
 96 177 96 177 133 349 c 0,21,22
 171 533 171 533 256.5 626.5 c 128,-1,23
 342 720 342 720 499 720 c 0,24,25
 577 720 577 720 627.5 696.5 c 128,-1,26
 678 673 678 673 703 626.5 c 128,-1,27
 728 580 728 580 728.5 510 c 128,-1,28
 729 440 729 440 710 349 c 0,29,30
 673 177 673 177 587.5 84 c 128,-1,31
 502 -9 502 -9 345 -9 c 0,18,19
EndSplineSet
EndChar
StartChar: P
Encoding: 80 80 49
Width: 629
VWidth: 1473
Flags: W
HStem: 0 21G<88 196.151> 265 77<264 504.121> 639 77<327 560.524>
Fore
327 639 m 1,0,-1
 264 342 l 1,1,-1
 383 342 l 2,2,3
 476 342 476 342 521.5 373.5 c 128,-1,4
 567 405 567 405 585 488 c 0,5,6
 603 575 603 575 572.5 607 c 128,-1,7
 542 639 542 639 461 639 c 2,8,-1
 327 639 l 1,0,-1
247 265 m 1,9,-1
 192 0 l 1,10,-1
 88 0 l 1,11,-1
 240 716 l 1,12,-1
 477 716 l 2,13,14
 551 716 551 716 597.5 702 c 128,-1,15
 644 688 644 688 668 660 c 128,-1,16
 692 632 692 632 696 589.5 c 128,-1,17
 700 547 700 547 688 488 c 0,18,19
 664 382 664 382 587 323.5 c 128,-1,20
 510 265 510 265 352 265 c 2,21,-1
 247 265 l 1,9,-1
EndSplineSet
EndChar
StartChar: Q
Encoding: 81 81 50
Width: 754
VWidth: 1473
Flags: W
HStem: -9 84<298.663 478.031> 639 81<416.391 601.443>
VStem: 653.5 104.5<439.761 547.547>
Fore
392 75 m 0,0,1
 443 75 443 75 481.5 90 c 128,-1,2
 520 105 520 105 548 138 c 128,-1,3
 576 171 576 171 596.5 222.5 c 128,-1,4
 617 274 617 274 633 349 c 0,5,6
 651 432 651 432 653.5 487 c 128,-1,7
 656 542 656 542 642 576 c 128,-1,8
 628 610 628 610 596 624.5 c 128,-1,9
 564 639 564 639 513 639 c 256,10,11
 461 639 461 639 423 624.5 c 128,-1,12
 385 610 385 610 356 576 c 128,-1,13
 327 542 327 542 306.5 487 c 128,-1,14
 286 432 286 432 268 349 c 0,15,16
 236 200 236 200 262.5 137.5 c 128,-1,17
 289 75 289 75 392 75 c 0,0,1
374 -9 m 0,18,19
 218 -9 218 -9 171.5 84 c 128,-1,20
 125 177 125 177 162 349 c 0,21,22
 200 533 200 533 285.5 626.5 c 128,-1,23
 371 720 371 720 529 720 c 0,24,25
 607 720 607 720 657 696.5 c 128,-1,26
 707 673 707 673 732 626.5 c 128,-1,27
 757 580 757 580 758 510 c 128,-1,28
 759 440 759 440 740 349 c 0,29,30
 703 177 703 177 617.5 84 c 128,-1,31
 532 -9 532 -9 374 -9 c 0,18,19
491 215 m 1,32,-1
 654 -53 l 1,33,-1
 545 -77 l 1,34,-1
 408 193 l 1,35,-1
 491 215 l 1,32,-1
EndSplineSet
EndChar
StartChar: R
Encoding: 82 82 51
Width: 643
VWidth: 1473
Flags: W
HStem: 0 21G<88 196.136 456.617 582> 324 77<275 390> 625 91<324 562.282>
Fore
477 716 m 2,0,1
 551 716 551 716 597.5 702.5 c 128,-1,2
 644 689 644 689 668 662.5 c 128,-1,3
 692 636 692 636 697.5 598 c 128,-1,4
 703 560 703 560 692 510 c 0,5,6
 684 470 684 470 665.5 439 c 128,-1,7
 647 408 647 408 620.5 384.5 c 128,-1,8
 594 361 594 361 562 347 c 128,-1,9
 530 333 530 333 496 329 c 1,10,-1
 582 0 l 1,11,-1
 461 0 l 1,12,-1
 390 324 l 1,13,-1
 259 324 l 1,14,-1
 192 0 l 1,15,-1
 88 0 l 1,16,-1
 240 716 l 1,17,-1
 477 716 l 2,0,1
275 401 m 1,18,-1
 424 401 l 2,19,20
 483 401 483 401 528 424.5 c 128,-1,21
 573 448 573 448 586 510 c 0,22,23
 600 575 600 575 568 600 c 128,-1,24
 536 625 536 625 458 625 c 2,25,-1
 324 625 l 1,26,-1
 275 401 l 1,18,-1
EndSplineSet
EndChar
StartChar: S
Encoding: 83 83 52
Width: 657
VWidth: 1473
Flags: W
HStem: -9 84<306.431 438.016> 636 83<361.353 538.66>
VStem: 103 103<156.457 212> 591 98<514.796 593.463>
Fore
206 233 m 1,0,1
 208 186 208 186 222.5 155.5 c 128,-1,2
 237 125 237 125 260.5 107.5 c 128,-1,3
 284 90 284 90 314.5 82.5 c 128,-1,4
 345 75 345 75 376 75 c 0,5,6
 404 75 404 75 430.5 83 c 128,-1,7
 457 91 457 91 477.5 105 c 128,-1,8
 498 119 498 119 512.5 137.5 c 128,-1,9
 527 156 527 156 532 178 c 0,10,11
 541 221 541 221 516 247 c 128,-1,12
 491 273 491 273 449.5 292.5 c 128,-1,13
 408 312 408 312 358 329 c 128,-1,14
 308 346 308 346 266.5 371 c 128,-1,15
 225 396 225 396 203 434.5 c 128,-1,16
 181 473 181 473 193 532 c 0,17,18
 211 616 211 616 282.5 667.5 c 128,-1,19
 354 719 354 719 468 719 c 0,20,21
 566 719 566 719 623.5 669 c 128,-1,22
 681 619 681 619 689 523 c 1,23,-1
 591 504 l 1,24,25
 583 573 583 573 551 604.5 c 128,-1,26
 519 636 519 636 451 636 c 0,27,28
 389 636 389 636 347.5 606 c 128,-1,29
 306 576 306 576 296 532 c 0,30,31
 287 492 287 492 313 467.5 c 128,-1,32
 339 443 339 443 381 424 c 128,-1,33
 423 405 423 405 473 387.5 c 128,-1,34
 523 370 523 370 563.5 345 c 128,-1,35
 604 320 604 320 627 283 c 128,-1,36
 650 246 650 246 638 189 c 0,37,38
 619 103 619 103 545 47 c 128,-1,39
 471 -9 471 -9 357 -9 c 0,40,41
 231 -9 231 -9 172 44 c 128,-1,42
 113 97 113 97 103 212 c 1,43,-1
 206 233 l 1,0,1
EndSplineSet
EndChar
StartChar: T
Encoding: 84 84 53
Width: 545
VWidth: 1473
Flags: W
HStem: 0 21G<221 328.257> 639 77<166 357 460 666>
Fore
324 0 m 1,0,-1
 221 0 l 1,1,-1
 357 639 l 1,2,-1
 150 639 l 1,3,-1
 166 716 l 1,4,-1
 682 716 l 1,5,-1
 666 639 l 1,6,-1
 460 639 l 1,7,-1
 324 0 l 1,0,-1
EndSplineSet
EndChar
StartChar: U
Encoding: 85 85 54
Width: 724
VWidth: 1473
Flags: W
HStem: -9 83<294.545 464> 696 20G<235.759 343 680.759 788>
VStem: 135 104<113.27 219.358>
Fore
685 716 m 1,0,-1
 788 716 l 1,1,-1
 700 301 l 2,2,3
 682 215 682 215 655.5 155.5 c 128,-1,4
 629 96 629 96 589.5 60 c 128,-1,5
 550 24 550 24 494 7.5 c 128,-1,6
 438 -9 438 -9 359 -9 c 256,7,8
 281 -9 281 -9 232 7.5 c 128,-1,9
 183 24 183 24 159.5 60 c 128,-1,10
 136 96 136 96 135 155.5 c 128,-1,11
 134 215 134 215 152 301 c 2,12,-1
 240 716 l 1,13,-1
 343 716 l 1,14,-1
 255 301 l 2,15,16
 239 225 239 225 239 181 c 128,-1,17
 239 137 239 137 254.5 112.5 c 128,-1,18
 270 88 270 88 300.5 81 c 128,-1,19
 331 74 331 74 377 74 c 256,20,21
 423 74 423 74 457 81 c 128,-1,22
 491 88 491 88 516.5 112.5 c 128,-1,23
 542 137 542 137 561 181 c 128,-1,24
 580 225 580 225 597 301 c 2,25,-1
 685 716 l 1,0,-1
EndSplineSet
EndChar
StartChar: V
Encoding: 86 86 55
Width: 652
VWidth: 1473
Flags: W
HStem: 0 21G<271.402 391.034> 696 20G<181 291.757 655.744 775>
Fore
666 716 m 1,0,-1
 775 716 l 1,1,-1
 380 0 l 1,2,-1
 274 0 l 1,3,-1
 181 716 l 1,4,-1
 290 716 l 1,5,-1
 345 90 l 1,6,-1
 666 716 l 1,0,-1
EndSplineSet
EndChar
StartChar: W
Encoding: 87 87 56
Width: 833
VWidth: 1473
Flags: W
HStem: 0 21G<159 285.809 556.674 682.849> 696 20G<180.385 290 509.955 619.536 839.898 956>
VStem: 557 78<119 214.55>
Fore
619 716 m 1,0,-1
 635 119 l 1,1,-1
 847 716 l 1,2,-1
 956 716 l 1,3,-1
 675 0 l 1,4,-1
 557 0 l 1,5,-1
 547 613 l 1,6,-1
 277 0 l 1,7,-1
 159 0 l 1,8,-1
 181 716 l 1,9,-1
 290 716 l 1,10,-1
 249 119 l 1,11,-1
 519 716 l 1,12,-1
 619 716 l 1,0,-1
EndSplineSet
EndChar
StartChar: X
Encoding: 88 88 57
Width: 617
VWidth: 1473
Flags: W
HStem: 0 21G<15 147.679 474.264 603> 696 20G<181 305.621 597.966 731>
Fore
181 716 m 1,0,-1
 299 716 l 1,1,-1
 395 426 l 1,2,-1
 613 716 l 1,3,-1
 731 716 l 1,4,-1
 440 355 l 1,5,-1
 603 0 l 1,6,-1
 483 0 l 1,7,-1
 362 277 l 1,8,-1
 131 0 l 1,9,-1
 15 0 l 1,10,-1
 321 355 l 1,11,-1
 181 716 l 1,0,-1
EndSplineSet
EndChar
StartChar: Y
Encoding: 89 89 58
Width: 623
VWidth: 1473
Flags: W
HStem: 0 21G<259 366.214> 696 20G<181 303.546 615.018 745>
Fore
362 0 m 1,0,-1
 259 0 l 1,1,-1
 318 280 l 1,2,-1
 181 716 l 1,3,-1
 298 716 l 1,4,-1
 392 377 l 1,5,-1
 629 716 l 1,6,-1
 745 716 l 1,7,-1
 421 280 l 1,8,-1
 362 0 l 1,0,-1
EndSplineSet
EndChar
StartChar: Z
Encoding: 90 90 59
Width: 583
VWidth: 1473
Flags: W
HStem: 0 77<193 524> 638 78<211 542>
Fore
542 638 m 1,0,-1
 194 638 l 1,1,-1
 211 716 l 1,2,-1
 669 716 l 1,3,-1
 651 633 l 1,4,-1
 193 77 l 1,5,-1
 541 77 l 1,6,-1
 524 0 l 1,7,-1
 62 0 l 1,8,-1
 78 77 l 1,9,-1
 542 638 l 1,0,-1
EndSplineSet
EndChar
StartChar: bracketleft
Encoding: 91 91 60
Width: 397
VWidth: 1473
Flags: W
HStem: -87 59<199 308> 803 59<376 496>
VStem: 85 425<-87 862 -87 -87>
Fore
510 862 m 1,0,-1
 496 803 l 1,1,-1
 376 803 l 1,2,-1
 199 -28 l 1,3,-1
 320 -28 l 1,4,-1
 308 -87 l 1,5,-1
 85 -87 l 1,6,-1
 287 862 l 1,7,-1
 510 862 l 1,0,-1
EndSplineSet
EndChar
StartChar: backslash
Encoding: 92 92 61
Width: 331
VWidth: 1473
Flags: W
HStem: -12 886<243 267 171 343 171 171>
Fore
171 874 m 1,0,-1
 267 874 l 1,1,-1
 343 -12 l 1,2,-1
 243 -12 l 1,3,-1
 171 874 l 1,0,-1
EndSplineSet
EndChar
StartChar: bracketright
Encoding: 93 93 62
Width: 397
VWidth: 1473
Flags: W
HStem: -87 59<63 184> 803 59<253 361>
VStem: 52 424<-87 862 -122.223 -87>
Fore
52 -87 m 1,0,-1
 63 -28 l 1,1,-1
 184 -28 l 1,2,-1
 361 803 l 1,3,-1
 240 803 l 1,4,-1
 253 862 l 1,5,-1
 476 862 l 1,6,-1
 274 -87 l 1,7,-1
 52 -87 l 1,0,-1
EndSplineSet
EndChar
StartChar: asciicircum
Encoding: 94 94 63
Width: 671
VWidth: 1473
Flags: W
HStem: 331 478<551 678 551 551>
Fore
551 809 m 1,0,-1
 678 331 l 1,1,-1
 575 331 l 1,2,-1
 480 698 l 1,3,-1
 236 331 l 1,4,-1
 133 331 l 1,5,-1
 461 809 l 1,6,-1
 551 809 l 1,0,-1
EndSplineSet
EndChar
StartChar: underscore
Encoding: 95 95 64
Width: 699
VWidth: 1473
Flags: W
HStem: -175 85<-18 661>
Fore
-37 -175 m 1,0,-1
 -18 -90 l 1,1,-1
 681 -90 l 1,2,-1
 661 -175 l 1,3,-1
 -37 -175 l 1,0,-1
EndSplineSet
EndChar
StartChar: grave
Encoding: 96 96 65
Width: 248
VWidth: 1473
Flags: W
HStem: 647 154<259 270 155 331 155 155>
Fore
270 801 m 1,0,-1
 331 647 l 1,1,-1
 259 647 l 1,2,-1
 155 801 l 1,3,-1
 270 801 l 1,0,-1
EndSplineSet
EndChar
StartChar: a
Encoding: 97 97 66
Width: 559
VWidth: 1473
Flags: W
HStem: -12 69<155.768 265.28> 284 70<290.1 430> 526 68<320.495 425.489>
VStem: 390 101<12 13.7932 13.7932 49.3535 49.3535 70.5632>
Fore
130 474 m 1,0,1
 147 494 147 494 176.5 514.5 c 128,-1,2
 206 535 206 535 240.5 552.5 c 128,-1,3
 275 570 275 570 313.5 582 c 128,-1,4
 352 594 352 594 387 594 c 0,5,6
 435 594 435 594 470 584.5 c 128,-1,7
 505 575 505 575 527.5 553.5 c 128,-1,8
 550 532 550 532 557 497.5 c 128,-1,9
 564 463 564 463 552 411 c 2,10,-1
 502 175 l 2,11,12
 491 119 491 119 491 78 c 128,-1,13
 491 37 491 37 498 12 c 1,14,15
 482 3 482 3 452.5 -2 c 128,-1,16
 423 -7 423 -7 411 -7 c 0,17,18
 405 -7 405 -7 400 -5 c 128,-1,19
 395 -3 395 -3 392 7 c 0,20,21
 390 15 390 15 390 20 c 0,22,-1
 390 46 l 0,23,24
 390 57 390 57 392 71 c 1,25,26
 365 49 365 49 342.5 33.5 c 128,-1,27
 320 18 320 18 296.5 8.5 c 128,-1,28
 273 -1 273 -1 246.5 -6.5 c 128,-1,29
 220 -12 220 -12 186 -12 c 0,30,31
 118 -12 118 -12 82 35 c 128,-1,32
 46 82 46 82 62 156 c 0,33,34
 75 215 75 215 102.5 252 c 128,-1,35
 130 289 130 289 175.5 310 c 128,-1,36
 221 331 221 331 288 340 c 128,-1,37
 355 349 355 349 448 354 c 1,38,-1
 463 423 l 2,39,40
 470 454 470 454 462.5 474.5 c 128,-1,41
 455 495 455 495 442 506 c 128,-1,42
 429 517 429 517 412 521.5 c 128,-1,43
 395 526 395 526 382 526 c 0,44,45
 326 526 326 526 282.5 498.5 c 128,-1,46
 239 471 239 471 192 427 c 0,47,48
 187 423 187 423 179 426 c 128,-1,49
 171 429 171 429 162 437 c 128,-1,50
 153 445 153 445 144.5 455.5 c 128,-1,51
 136 466 136 466 130 474 c 1,0,1
430 284 m 1,52,53
 337 283 337 283 284 270.5 c 128,-1,54
 231 258 231 258 203 239 c 128,-1,55
 175 220 175 220 165.5 194.5 c 128,-1,56
 156 169 156 169 150 143 c 0,57,58
 143 105 143 105 154.5 81 c 128,-1,59
 166 57 166 57 212 57 c 0,60,61
 259 57 259 57 303.5 83 c 128,-1,62
 348 109 348 109 402 153 c 1,63,-1
 430 284 l 1,52,53
EndSplineSet
Substitution2: "Single Substitution lookup 27 subtable" uni0E38
Substitution2: "Single Substitution lookup 27 subtable" uni0E38
EndChar
StartChar: b
Encoding: 98 98 67
Width: 611
VWidth: 1473
Flags: W
HStem: -12 69<303.227 436.964> 526 68<414.218 527.147> 789 20G<269.739 367>
Fore
230 164 m 1,0,1
 252 118 252 118 289.5 87.5 c 128,-1,2
 327 57 327 57 367 57 c 0,3,4
 433 57 433 57 471.5 114 c 128,-1,5
 510 171 510 171 533 283 c 0,6,7
 547 345 547 345 552.5 391.5 c 128,-1,8
 558 438 558 438 551.5 467 c 128,-1,9
 545 496 545 496 523.5 511 c 128,-1,10
 502 526 502 526 463 526 c 128,-1,11
 424 526 424 526 380 506 c 128,-1,12
 336 486 336 486 292 457 c 1,13,-1
 230 164 l 1,0,1
311 544 m 1,14,15
 358 569 358 569 403 581.5 c 128,-1,16
 448 594 448 594 495 594 c 0,17,18
 552 594 552 594 586 573 c 128,-1,19
 620 552 620 552 635.5 514 c 128,-1,20
 651 476 651 476 649 420 c 128,-1,21
 647 364 647 364 632 295 c 0,22,23
 598 134 598 134 528 61 c 128,-1,24
 458 -12 458 -12 357 -12 c 0,25,26
 326 -12 326 -12 304.5 -6.5 c 128,-1,27
 283 -1 283 -1 266 9 c 128,-1,28
 249 19 249 19 233.5 36 c 128,-1,29
 218 53 218 53 200 75 c 1,30,31
 197 59 197 59 192 46 c 0,32,33
 187 34 187 34 182.5 23.5 c 128,-1,34
 178 13 178 13 175 7 c 1,35,36
 168 0 168 0 163 -2 c 128,-1,37
 158 -4 158 -4 152 -4 c 256,38,39
 146 -4 146 -4 135.5 -3.5 c 128,-1,40
 125 -3 125 -3 114 -1.5 c 128,-1,41
 103 0 103 0 93.5 2 c 128,-1,42
 84 4 84 4 78 7 c 1,43,44
 82 16 82 16 90.5 34 c 128,-1,45
 99 52 99 52 107.5 75.5 c 128,-1,46
 116 99 116 99 125 126 c 128,-1,47
 134 153 134 153 140 180 c 2,48,-1
 274 809 l 1,49,-1
 367 809 l 1,50,-1
 311 544 l 1,14,15
EndSplineSet
Substitution2: "Single Substitution lookup 27 subtable" uni0E39
Substitution2: "Single Substitution lookup 27 subtable" uni0E39
EndChar
StartChar: c
Encoding: 99 99 68
Width: 533
VWidth: 1473
Flags: W
HStem: -10 67<226.185 362.614> 526 68<317.678 431.571>
VStem: 89 93.5<92.7246 218>
Fore
103 292 m 0,0,1
 133 432 133 432 204 513 c 128,-1,2
 275 594 275 594 399 594 c 0,3,4
 471 594 471 594 517 560 c 128,-1,5
 563 526 563 526 592 474 c 1,6,7
 582 466 582 466 568.5 455.5 c 128,-1,8
 555 445 555 445 543.5 437 c 128,-1,9
 532 429 532 429 522.5 426 c 128,-1,10
 513 423 513 423 510 427 c 0,11,12
 496 449 496 449 484.5 467.5 c 128,-1,13
 473 486 473 486 458 499.5 c 128,-1,14
 443 513 443 513 423.5 519.5 c 128,-1,15
 404 526 404 526 376 526 c 0,16,17
 354 526 354 526 329.5 521 c 128,-1,18
 305 516 305 516 282 492 c 128,-1,19
 259 468 259 468 238 421 c 128,-1,20
 217 374 217 374 199 292 c 256,21,22
 181 209 181 209 182.5 162 c 128,-1,23
 184 115 184 115 197.5 92 c 128,-1,24
 211 69 211 69 233 63 c 128,-1,25
 255 57 255 57 277 57 c 0,26,27
 333 57 333 57 370 83.5 c 128,-1,28
 407 110 407 110 452 156 c 0,29,30
 457 161 457 161 465.5 158 c 128,-1,31
 474 155 474 155 483 146.5 c 128,-1,32
 492 138 492 138 500 128 c 128,-1,33
 508 118 508 118 514 109 c 1,34,35
 463 57 463 57 403 23.5 c 128,-1,36
 343 -10 343 -10 271 -10 c 0,37,38
 209 -10 209 -10 169.5 10.5 c 128,-1,39
 130 31 130 31 110 70 c 128,-1,40
 90 109 90 109 89 165 c 128,-1,41
 88 221 88 221 103 292 c 0,0,1
EndSplineSet
Substitution2: "Single Substitution lookup 27 subtable" uni0E3A
Substitution2: "Single Substitution lookup 27 subtable" uni0E3A
EndChar
StartChar: d
Encoding: 100 100 69
Width: 611
VWidth: 1473
Flags: W
HStem: -12 69<206.945 299.347> 526 68<298.279 438.638> 789 20G<581.814 679>
Fore
511 457 m 1,0,1
 488 486 488 486 454 506 c 128,-1,2
 420 526 420 526 370 526 c 0,3,4
 330 526 330 526 302.5 511 c 128,-1,5
 275 496 275 496 256 467 c 128,-1,6
 237 438 237 438 223 391.5 c 128,-1,7
 209 345 209 345 196 283 c 0,8,9
 172 171 172 171 187 114 c 128,-1,10
 202 57 202 57 268 57 c 0,11,12
 299 57 299 57 323.5 65.5 c 128,-1,13
 348 74 348 74 369 88 c 128,-1,14
 390 102 390 102 409.5 121.5 c 128,-1,15
 429 141 429 141 449 164 c 1,16,-1
 511 457 l 1,0,1
586 809 m 1,17,-1
 679 809 l 1,18,-1
 545 180 l 2,19,20
 539 153 539 153 537 126 c 128,-1,21
 535 99 535 99 534 75.5 c 128,-1,22
 533 52 533 52 534 34 c 128,-1,23
 535 16 535 16 536 7 c 1,24,25
 523 1 523 1 495.5 -1.5 c 128,-1,26
 468 -4 468 -4 457 -4 c 0,27,28
 442 -4 442 -4 439 7 c 1,29,30
 436 13 436 13 436 23.5 c 128,-1,31
 436 34 436 34 438 46 c 2,32,-1
 440 75 l 1,33,34
 414 53 414 53 392 36 c 128,-1,35
 370 19 370 19 348.5 9 c 128,-1,36
 327 -1 327 -1 303.5 -6.5 c 128,-1,37
 280 -12 280 -12 249 -12 c 0,38,39
 147 -12 147 -12 108 61 c 128,-1,40
 69 134 69 134 103 295 c 0,41,42
 133 435 133 435 197 514.5 c 128,-1,43
 261 594 261 594 374 594 c 0,44,45
 404 594 404 594 425 591 c 128,-1,46
 446 588 446 588 464 582.5 c 128,-1,47
 482 577 482 577 498 569 c 128,-1,48
 514 561 514 561 532 551 c 1,49,-1
 586 809 l 1,17,-1
EndSplineSet
EndChar
StartChar: e
Encoding: 101 101 70
Width: 565
VWidth: 1473
Flags: W
HStem: -13 78<243.999 397.347> 267 69<208 494> 526 68<309.284 471.412>
VStem: 102 485.5<270.301 289 289 394 289 289>
Fore
494 336 m 1,0,1
 514 433 514 433 491 479.5 c 128,-1,2
 468 526 468 526 392 526 c 0,3,4
 326 526 326 526 278 482 c 128,-1,5
 230 438 230 438 208 336 c 1,6,-1
 494 336 l 1,0,1
193 267 m 1,7,8
 180 208 180 208 185 169 c 128,-1,9
 190 130 190 130 205.5 107 c 128,-1,10
 221 84 221 84 244.5 74.5 c 128,-1,11
 268 65 268 65 293 65 c 0,12,13
 355 65 355 65 397.5 85 c 128,-1,14
 440 105 440 105 483 152 c 0,15,16
 488 156 488 156 496 153 c 128,-1,17
 504 150 504 150 513.5 143 c 128,-1,18
 523 136 523 136 532 125.5 c 128,-1,19
 541 115 541 115 547 106 c 1,20,21
 495 55 495 55 426.5 21 c 128,-1,22
 358 -13 358 -13 286 -13 c 0,23,24
 166 -13 166 -13 117.5 62 c 128,-1,25
 69 137 69 137 102 289 c 1,26,-1
 103 292 l 1,27,28
 137 449 137 449 215 521.5 c 128,-1,29
 293 594 293 594 405 594 c 0,30,31
 480 594 480 594 520.5 568 c 128,-1,32
 561 542 561 542 576.5 498 c 128,-1,33
 592 454 592 454 587.5 394 c 128,-1,34
 583 334 583 334 569 267 c 1,35,-1
 193 267 l 1,7,8
EndSplineSet
EndChar
StartChar: f
Encoding: 102 102 71
Width: 312
VWidth: 1473
Flags: W
HStem: 0 21G<93 193.241> 514 68<134 202 311 402> 744 77<357.682 476.453>
VStem: 93 397.5<0 786.5 0 91>
Fore
489 810 m 1,0,1
 492 801 492 801 490.5 786.5 c 128,-1,2
 489 772 489 772 486 758.5 c 128,-1,3
 483 745 483 745 478 735.5 c 128,-1,4
 473 726 473 726 467 729 c 0,5,6
 438 744 438 744 401 744 c 0,7,8
 383 744 383 744 361 728.5 c 128,-1,9
 339 713 339 713 331 673 c 2,10,-1
 311 582 l 1,11,-1
 415 582 l 1,12,-1
 402 514 l 1,13,-1
 298 514 l 1,14,-1
 189 0 l 1,15,-1
 93 0 l 1,16,-1
 202 514 l 1,17,-1
 121 514 l 1,18,-1
 134 582 l 1,19,-1
 215 582 l 1,20,-1
 233 664 l 2,21,22
 249 741 249 741 297 781 c 128,-1,23
 345 821 345 821 420 821 c 0,24,25
 454 821 454 821 489 810 c 1,0,1
EndSplineSet
EndChar
StartChar: g
Encoding: 103 103 72
Width: 559
VWidth: 1473
Flags: W
HStem: -206 68<127.315 367.579> 28 75<191.076 349.75> 192 67<276.37 377.368> 526 68<305.182 431.612> 544 78<611.906 648>
Fore
519 558 m 1,0,1
 548 583 548 583 585.5 602.5 c 128,-1,2
 623 622 623 622 654 622 c 0,3,4
 672 622 672 622 669 604 c 0,5,6
 663 580 663 580 657 563 c 0,7,8
 653 552 653 552 648 544 c 1,9,10
 619 544 619 544 598 537 c 128,-1,11
 577 530 577 530 557 516 c 1,12,13
 572 491 572 491 576 464.5 c 128,-1,14
 580 438 580 438 570 395 c 0,15,16
 560 342 560 342 533.5 303 c 128,-1,17
 507 264 507 264 471 239.5 c 128,-1,18
 435 215 435 215 391.5 203.5 c 128,-1,19
 348 192 348 192 302 192 c 0,20,21
 267 192 267 192 224 211 c 1,22,23
 194 199 194 199 179.5 185 c 128,-1,24
 165 171 165 171 162 155 c 0,25,26
 156 130 156 130 190 116.5 c 128,-1,27
 224 103 224 103 315 103 c 0,28,29
 446 103 446 103 496.5 63.5 c 128,-1,30
 547 24 547 24 532 -47 c 0,31,32
 524 -80 524 -80 505 -108.5 c 128,-1,33
 486 -137 486 -137 450.5 -159 c 128,-1,34
 415 -181 415 -181 361.5 -193.5 c 128,-1,35
 308 -206 308 -206 233 -206 c 256,36,37
 158 -206 158 -206 110.5 -194.5 c 128,-1,38
 63 -183 63 -183 39 -163.5 c 128,-1,39
 15 -144 15 -144 9 -119 c 128,-1,40
 3 -94 3 -94 7 -69 c 0,41,42
 15 -31 15 -31 42 0.5 c 128,-1,43
 69 32 69 32 136 55 c 1,44,-1
 137 57 l 1,45,46
 97 65 97 65 83 87.5 c 128,-1,47
 69 110 69 110 75 136 c 0,48,49
 82 174 82 174 109.5 201 c 128,-1,50
 137 228 137 228 175 240 c 1,51,52
 150 256 150 256 135.5 296.5 c 128,-1,53
 121 337 121 337 131 383 c 0,54,55
 152 480 152 480 226.5 537 c 128,-1,56
 301 594 301 594 407 594 c 0,57,58
 449 594 449 594 479.5 580 c 128,-1,59
 510 566 510 566 519 558 c 1,0,1
268 28 m 0,60,61
 190 28 190 28 149 5 c 128,-1,62
 108 -18 108 -18 99 -56 c 0,63,64
 90 -99 90 -99 129 -118.5 c 128,-1,65
 168 -138 168 -138 237 -138 c 0,66,67
 324 -138 324 -138 377 -118.5 c 128,-1,68
 430 -99 430 -99 440 -53 c 0,69,70
 445 -35 445 -35 442.5 -19.5 c 128,-1,71
 440 -4 440 -4 423.5 6 c 128,-1,72
 407 16 407 16 370 22 c 128,-1,73
 333 28 333 28 268 28 c 0,60,61
230 390 m 0,74,75
 221 354 221 354 227.5 328 c 128,-1,76
 234 302 234 302 249 287.5 c 128,-1,77
 264 273 264 273 283.5 266 c 128,-1,78
 303 259 303 259 323 259 c 0,79,80
 371 259 371 259 414 287 c 128,-1,81
 457 315 457 315 473 390 c 0,82,83
 480 429 480 429 475.5 454.5 c 128,-1,84
 471 480 471 480 458 496.5 c 128,-1,85
 445 513 445 513 424.5 519.5 c 128,-1,86
 404 526 404 526 379 526 c 0,87,88
 331 526 331 526 288 493 c 128,-1,89
 245 460 245 460 230 390 c 0,74,75
EndSplineSet
EndChar
StartChar: h
Encoding: 104 104 73
Width: 637
VWidth: 1473
Flags: W
HStem: 0 21G<93 193.149 448 549.221> 526 68<421.669 525.116> 789 20G<259.773 359>
Fore
93 0 m 1,0,-1
 264 809 l 1,1,-1
 359 809 l 1,2,-1
 295 505 l 1,3,4
 340 548 340 548 397.5 571 c 128,-1,5
 455 594 455 594 498 594 c 0,6,7
 589 594 589 594 619.5 543 c 128,-1,8
 650 492 650 492 629 398 c 2,9,-1
 545 0 l 1,10,-1
 448 0 l 1,11,-1
 530 390 l 2,12,13
 547 464 547 464 531.5 495 c 128,-1,14
 516 526 516 526 470 526 c 0,15,16
 448 526 448 526 423.5 518 c 128,-1,17
 399 510 399 510 373.5 496.5 c 128,-1,18
 348 483 348 483 323.5 465.5 c 128,-1,19
 299 448 299 448 278 429 c 1,20,-1
 189 0 l 1,21,-1
 93 0 l 1,0,-1
EndSplineSet
EndChar
StartChar: i
Encoding: 105 105 74
Width: 263
VWidth: 1473
Flags: W
HStem: 0 21G<84 184.192> 562 20G<201.808 302> 710 99<255 330>
VStem: 84 267<0 809 745.367 826.874>
Fore
180 0 m 1,0,-1
 84 0 l 1,1,-1
 206 582 l 1,2,-1
 302 582 l 1,3,-1
 180 0 l 1,0,-1
234 710 m 1,4,-1
 255 809 l 1,5,-1
 351 809 l 1,6,-1
 330 710 l 1,7,-1
 234 710 l 1,4,-1
EndSplineSet
EndChar
StartChar: j
Encoding: 106 106 75
Width: 248
VWidth: 1473
Flags: W
HStem: -205.5 83.5<-31.7531 -22.877 -27.315 34.1747> 562 20G<194.743 295> 710 99<247 323>
VStem: -115.5 458.5<-167.5 809 247.572 500.079>
Fore
-84 -99 m 0,0,1
 -75 -105 -75 -105 -49.5 -113.5 c 128,-1,2
 -24 -122 -24 -122 -3 -122 c 0,3,4
 19 -122 19 -122 36 -112 c 128,-1,5
 53 -102 53 -102 60 -71 c 2,6,-1
 199 582 l 1,7,-1
 295 582 l 1,8,-1
 158 -63 l 2,9,10
 143 -134 143 -134 95 -170 c 128,-1,11
 47 -206 47 -206 -12 -206 c 0,12,13
 -19 -206 -19 -206 -34 -205.5 c 128,-1,14
 -49 -205 -49 -205 -64.5 -204 c 128,-1,15
 -80 -203 -80 -203 -93 -201.5 c 128,-1,16
 -106 -200 -106 -200 -110 -197 c 1,17,18
 -116 -186 -116 -186 -115.5 -167.5 c 128,-1,19
 -115 -149 -115 -149 -110.5 -132 c 128,-1,20
 -106 -115 -106 -115 -98.5 -104.5 c 128,-1,21
 -91 -94 -91 -94 -84 -99 c 0,0,1
227 710 m 1,22,-1
 247 809 l 1,23,-1
 343 809 l 1,24,-1
 323 710 l 1,25,-1
 227 710 l 1,22,-1
EndSplineSet
EndChar
StartChar: k
Encoding: 107 107 76
Width: 586
VWidth: 1473
Flags: W
HStem: 0 21G<93 190.141 423.405 561> 562 20G<506.322 656> 789 20G<259.773 357>
Fore
93 0 m 1,0,-1
 264 809 l 1,1,-1
 357 809 l 1,2,-1
 258 343 l 1,3,-1
 529 582 l 1,4,-1
 656 582 l 1,5,-1
 345 321 l 1,6,-1
 561 0 l 1,7,-1
 436 0 l 1,8,-1
 271 262 l 1,9,-1
 233 227 l 1,10,-1
 186 0 l 1,11,-1
 93 0 l 1,0,-1
EndSplineSet
EndChar
StartChar: l
Encoding: 108 108 77
Width: 263
VWidth: 1473
Flags: W
HStem: 0 21G<84 184.227> 789 20G<250.773 351>
VStem: 84 267<0 809 1.53064e-18 1.53064e-18>
Fore
255 809 m 1,0,-1
 351 809 l 1,1,-1
 180 0 l 1,2,-1
 84 0 l 1,3,-1
 255 809 l 1,0,-1
EndSplineSet
EndChar
StartChar: m
Encoding: 109 109 78
Width: 947
VWidth: 1473
Flags: W
HStem: 0 21G<93 193.155 426 526.155 757 858.23> 519 75<418.931 509.472 709.169 828.033>
Fore
93 0 m 1,0,-1
 215 582 l 1,1,-1
 311 582 l 1,2,-1
 296 508 l 1,3,4
 351 555 351 555 401 574.5 c 128,-1,5
 451 594 451 594 485 594 c 0,6,7
 603 594 603 594 607 502 c 1,8,9
 657 548 657 548 706.5 571 c 128,-1,10
 756 594 756 594 819 594 c 0,11,12
 896 594 896 594 929 553.5 c 128,-1,13
 962 513 962 513 946 435 c 2,14,-1
 854 0 l 1,15,-1
 757 0 l 1,16,-1
 850 442 l 2,17,18
 856 467 856 467 851.5 481.5 c 128,-1,19
 847 496 847 496 837.5 504.5 c 128,-1,20
 828 513 828 513 814.5 516 c 128,-1,21
 801 519 801 519 788 519 c 0,22,23
 738 519 738 519 691 488 c 128,-1,24
 644 457 644 457 608 414 c 1,25,-1
 522 0 l 1,26,-1
 426 0 l 1,27,-1
 519 442 l 2,28,29
 526 480 526 480 510 499.5 c 128,-1,30
 494 519 494 519 455 519 c 0,31,32
 436 519 436 519 411.5 510.5 c 128,-1,33
 387 502 387 502 363 487.5 c 128,-1,34
 339 473 339 473 316 454 c 128,-1,35
 293 435 293 435 275 414 c 1,36,-1
 189 0 l 1,37,-1
 93 0 l 1,0,-1
EndSplineSet
EndChar
StartChar: n
Encoding: 110 110 79
Width: 652
VWidth: 1473
Flags: W
HStem: 0 21G<93 193.155 463 564.221> 519 75<399.252 514.15>
Fore
93 0 m 1,0,-1
 215 582 l 1,1,-1
 311 582 l 1,2,-1
 295 505 l 1,3,4
 342 554 342 554 401 574 c 128,-1,5
 460 594 460 594 513 594 c 0,6,7
 547 594 547 594 575.5 580.5 c 128,-1,8
 604 567 604 567 622.5 542 c 128,-1,9
 641 517 641 517 647.5 481 c 128,-1,10
 654 445 654 445 644 398 c 2,11,-1
 560 0 l 1,12,-1
 463 0 l 1,13,-1
 545 390 l 2,14,15
 552 427 552 427 550 451.5 c 128,-1,16
 548 476 548 476 537 490.5 c 128,-1,17
 526 505 526 505 508.5 512 c 128,-1,18
 491 519 491 519 468 519 c 0,19,20
 426 519 426 519 373 490 c 128,-1,21
 320 461 320 461 275 414 c 1,22,-1
 189 0 l 1,23,-1
 93 0 l 1,0,-1
EndSplineSet
EndChar
StartChar: o
Encoding: 111 111 80
Width: 574
VWidth: 1473
Flags: W
HStem: -12 69<219.565 388.169> 526 68<309.045 478.058>
Fore
398 526 m 256,0,1
 312 526 312 526 268 468.5 c 128,-1,2
 224 411 224 411 199 292 c 256,3,4
 174 172 174 172 194 114.5 c 128,-1,5
 214 57 214 57 299 57 c 256,6,7
 385 57 385 57 429.5 114.5 c 128,-1,8
 474 172 474 172 499 292 c 256,9,10
 524 411 524 411 503.5 468.5 c 128,-1,11
 483 526 483 526 398 526 c 256,0,1
412 594 m 0,12,13
 482 594 482 594 524 573 c 128,-1,14
 566 552 566 552 587 513 c 128,-1,15
 608 474 608 474 609 418 c 128,-1,16
 610 362 610 362 595 292 c 0,17,18
 564 150 564 150 492.5 69 c 128,-1,19
 421 -12 421 -12 284 -12 c 0,20,21
 217 -12 217 -12 174 8.5 c 128,-1,22
 131 29 131 29 110.5 69 c 128,-1,23
 90 109 90 109 89 165 c 128,-1,24
 88 221 88 221 103 292 c 0,25,26
 133 432 133 432 205 513 c 128,-1,27
 277 594 277 594 412 594 c 0,12,13
EndSplineSet
EndChar
StartChar: p
Encoding: 112 112 81
Width: 606
VWidth: 1473
Flags: W
HStem: -206 21G<59 156.234> -12 68<270.63 415.206> 524 70<392.983 530.864>
Fore
217 103 m 1,0,1
 239 82 239 82 265.5 69 c 128,-1,2
 292 56 292 56 320 56 c 0,3,4
 412 56 412 56 461.5 115 c 128,-1,5
 511 174 511 174 538 299 c 0,6,7
 551 361 551 361 555.5 403.5 c 128,-1,8
 560 446 560 446 553.5 472.5 c 128,-1,9
 547 499 547 499 525.5 511.5 c 128,-1,10
 504 524 504 524 466 524 c 0,11,12
 404 524 404 524 362.5 494 c 128,-1,13
 321 464 321 464 284 418 c 1,14,-1
 217 103 l 1,0,1
206 567 m 1,15,16
 221 570 221 570 236 575 c 0,17,18
 262 582 262 582 287 582 c 0,19,20
 301 582 301 582 307.5 568.5 c 128,-1,21
 314 555 314 555 306 523 c 2,22,-1
 303 507 l 1,23,-1
 305 507 l 1,24,25
 349 558 349 558 397 576 c 128,-1,26
 445 594 445 594 492 594 c 0,27,28
 544 594 544 594 578.5 577.5 c 128,-1,29
 613 561 613 561 630.5 525 c 128,-1,30
 648 489 648 489 648 431 c 128,-1,31
 648 373 648 373 631 287 c 0,32,33
 601 147 601 147 519.5 67.5 c 128,-1,34
 438 -12 438 -12 323 -12 c 0,35,36
 250 -12 250 -12 199 16 c 1,37,-1
 152 -206 l 1,38,-1
 59 -206 l 1,39,-1
 184 386 l 2,40,41
 187 399 187 399 191.5 425 c 128,-1,42
 196 451 196 451 200.5 478 c 128,-1,43
 205 505 205 505 207 530 c 128,-1,44
 209 555 209 555 206 567 c 1,15,16
EndSplineSet
EndChar
StartChar: q
Encoding: 113 113 82
Width: 611
VWidth: 1473
Flags: W
HStem: -206 21G<371 468.223> -12 68<211.114 311.789> 524 70<296.29 439.874>
Fore
529 514 m 1,0,1
 545 582 545 582 569 582 c 256,2,3
 592 582 592 582 619 575 c 0,4,5
 633 570 633 570 647 567 c 1,6,7
 641 555 641 555 632 532.5 c 128,-1,8
 623 510 623 510 615 483.5 c 128,-1,9
 607 457 607 457 600.5 431 c 128,-1,10
 594 405 594 405 589 386 c 2,11,-1
 464 -206 l 1,12,-1
 371 -206 l 1,13,-1
 421 31 l 1,14,15
 368 4 368 4 327 -4 c 128,-1,16
 286 -12 286 -12 261 -12 c 0,17,18
 146 -12 146 -12 109 67.5 c 128,-1,19
 72 147 72 147 102 287 c 0,20,21
 136 448 136 448 202 521 c 128,-1,22
 268 594 268 594 370 594 c 0,23,24
 430 594 430 594 464 574 c 128,-1,25
 498 554 498 554 529 514 c 1,0,1
504 418 m 1,26,27
 482 464 482 464 450 494 c 128,-1,28
 418 524 418 524 367 524 c 0,29,30
 301 524 301 524 262.5 467.5 c 128,-1,31
 224 411 224 411 200 299 c 0,32,33
 187 237 187 237 180.5 190.5 c 128,-1,34
 174 144 174 144 182 114.5 c 128,-1,35
 190 85 190 85 216 70.5 c 128,-1,36
 242 56 242 56 293 56 c 0,37,38
 321 56 321 56 365.5 71.5 c 128,-1,39
 410 87 410 87 440 118 c 1,40,-1
 504 418 l 1,26,27
EndSplineSet
EndChar
StartChar: r
Encoding: 114 114 83
Width: 424
VWidth: 1473
Flags: W
HStem: 0 21G<87 188.204> 489 105<382.425 493.938>
VStem: 87 440<0 586 -77.9846 0>
Fore
439 489 m 256,0,1
 411 489 411 489 381.5 477.5 c 128,-1,2
 352 466 352 466 325.5 443.5 c 128,-1,3
 299 421 299 421 279 389 c 128,-1,4
 259 357 259 357 250 314 c 2,5,-1
 184 0 l 1,6,-1
 87 0 l 1,7,-1
 209 582 l 1,8,-1
 306 582 l 1,9,-1
 287 486 l 1,10,-1
 289 486 l 1,11,12
 323 541 323 541 373 567.5 c 128,-1,13
 423 594 423 594 479 594 c 0,14,15
 486 594 486 594 503 592.5 c 128,-1,16
 520 591 520 591 527 586 c 1,17,18
 530 576 530 576 525 557.5 c 128,-1,19
 520 539 520 539 512.5 520.5 c 128,-1,20
 505 502 505 502 497 489 c 128,-1,21
 489 476 489 476 486 476 c 1,22,23
 467 489 467 489 439 489 c 256,0,1
EndSplineSet
EndChar
StartChar: s
Encoding: 115 115 84
Width: 511
VWidth: 1473
Flags: W
HStem: -12 69<197.299 294.254> 526 68<310.288 402.76>
VStem: 50 483<106 489 106 106>
Fore
250 -12 m 0,0,1
 183 -12 183 -12 130.5 16 c 128,-1,2
 78 44 78 44 50 106 c 1,3,4
 63 118 63 118 75 127 c 0,5,6
 85 134 85 134 95.5 142 c 128,-1,7
 106 150 106 150 112 153 c 0,8,9
 121 158 121 158 127.5 155.5 c 128,-1,10
 134 153 134 153 137 147 c 0,11,12
 164 99 164 99 197.5 78 c 128,-1,13
 231 57 231 57 270 57 c 0,14,15
 286 57 286 57 305 64 c 128,-1,16
 324 71 324 71 341.5 82.5 c 128,-1,17
 359 94 359 94 372.5 112.5 c 128,-1,18
 386 131 386 131 390 155 c 0,19,20
 399 193 399 193 380 214.5 c 128,-1,21
 361 236 361 236 329.5 250 c 128,-1,22
 298 264 298 264 259 275 c 128,-1,23
 220 286 220 286 189 304.5 c 128,-1,24
 158 323 158 323 141.5 353 c 128,-1,25
 125 383 125 383 136 435 c 0,26,27
 144 476 144 476 165.5 506 c 128,-1,28
 187 536 187 536 217 555.5 c 128,-1,29
 247 575 247 575 282.5 584.5 c 128,-1,30
 318 594 318 594 355 594 c 0,31,32
 417 594 417 594 465 566.5 c 128,-1,33
 513 539 513 539 533 489 c 1,34,35
 522 477 522 477 510 468 c 0,36,37
 499 461 499 461 488 453.5 c 128,-1,38
 477 446 477 446 466 443 c 256,39,40
 454 440 454 440 446 455 c 0,41,42
 427 489 427 489 401.5 507.5 c 128,-1,43
 376 526 376 526 337 526 c 0,44,45
 324 526 324 526 308.5 522.5 c 128,-1,46
 293 519 293 519 278.5 508.5 c 128,-1,47
 264 498 264 498 252 481 c 128,-1,48
 240 464 240 464 234 438 c 0,49,50
 227 405 227 405 246 387.5 c 128,-1,51
 265 370 265 370 297.5 357.5 c 128,-1,52
 330 345 330 345 368.5 332.5 c 128,-1,53
 407 320 407 320 437 299 c 128,-1,54
 467 278 467 278 483 244.5 c 128,-1,55
 499 211 499 211 488 155 c 0,56,57
 479 115 479 115 456 84 c 128,-1,58
 433 53 433 53 400 31.5 c 128,-1,59
 367 10 367 10 328.5 -1 c 128,-1,60
 290 -12 290 -12 250 -12 c 0,0,1
EndSplineSet
EndChar
StartChar: t
Encoding: 116 116 85
Width: 355
VWidth: 1473
Flags: W
HStem: -12 84<223.479 302.617 271.304 316.84> 514 68<134 208 317 433> 752 20G<257.684 358>
VStem: 118 328<91 582 187 303>
Fore
329 -3 m 1,0,1
 308 -9 308 -9 290.5 -9.5 c 128,-1,2
 273 -10 273 -10 252 -12 c 0,3,4
 180 -12 180 -12 143 12.5 c 128,-1,5
 106 37 106 37 118 91 c 2,6,-1
 208 514 l 1,7,-1
 121 514 l 1,8,-1
 134 582 l 1,9,-1
 221 582 l 1,10,-1
 262 772 l 1,11,-1
 358 772 l 1,12,-1
 317 582 l 1,13,-1
 446 582 l 1,14,-1
 433 514 l 1,15,-1
 303 514 l 1,16,-1
 221 131 l 2,17,18
 209 72 209 72 270 72 c 0,19,20
 305 72 305 72 342 88 c 0,21,22
 349 91 349 91 350 80 c 128,-1,23
 351 69 351 69 348 53.5 c 128,-1,24
 345 38 345 38 339.5 22 c 128,-1,25
 334 6 334 6 329 -3 c 1,0,1
EndSplineSet
EndChar
StartChar: u
Encoding: 117 117 86
Width: 652
VWidth: 1473
Flags: W
HStem: -12 69<243.825 321.189> 562 20G<210.779 311 580.787 682>
Fore
486 78 m 1,0,1
 466 56 466 56 439 40 c 128,-1,2
 412 24 412 24 383.5 12 c 128,-1,3
 355 0 355 0 327 -6 c 128,-1,4
 299 -12 299 -12 277 -12 c 0,5,6
 184 -12 184 -12 147 39 c 128,-1,7
 110 90 110 90 131 184 c 2,8,-1
 215 582 l 1,9,-1
 311 582 l 1,10,-1
 228 192 l 2,11,12
 212 119 212 119 235 88 c 128,-1,13
 258 57 258 57 303 57 c 0,14,15
 320 57 320 57 344 64.5 c 128,-1,16
 368 72 368 72 394.5 86 c 128,-1,17
 421 100 421 100 448.5 121.5 c 128,-1,18
 476 143 476 143 498 169 c 1,19,-1
 585 582 l 1,20,-1
 682 582 l 1,21,-1
 591 150 l 2,22,23
 583 110 583 110 581 68.5 c 128,-1,24
 579 27 579 27 580 12 c 1,25,26
 567 6 567 6 542 3 c 128,-1,27
 517 0 517 0 505 0 c 0,28,29
 499 0 499 0 491 2 c 128,-1,30
 483 4 483 4 480 12 c 0,31,32
 479 18 479 18 479.5 28 c 128,-1,33
 480 38 480 38 482 50 c 0,34,35
 483 63 483 63 486 78 c 1,0,1
EndSplineSet
EndChar
StartChar: v
Encoding: 118 118 87
Width: 525
VWidth: 1473
Flags: W
HStem: 0 21G<212.32 322.065> 562 20G<137 241.026 521.526 633>
VStem: 137 496<582 582 582 582>
Fore
137 582 m 1,0,-1
 239 582 l 1,1,-1
 286 118 l 1,2,-1
 289 118 l 1,3,-1
 532 582 l 1,4,-1
 633 582 l 1,5,-1
 311 0 l 1,6,-1
 215 0 l 1,7,-1
 137 582 l 1,0,-1
EndSplineSet
EndChar
StartChar: w
Encoding: 119 119 88
Width: 776
VWidth: 1473
Flags: W
HStem: 0 21G<169.625 263.044 515.496 608.034> 562 20G<131 227.841 451.531 558.796 781.619 890>
VStem: 131 96<531.075 582>
Fore
131 582 m 1,0,-1
 227 582 l 1,1,-1
 246 130 l 1,2,-1
 247 130 l 1,3,-1
 461 582 l 1,4,-1
 558 582 l 1,5,-1
 576 130 l 1,6,-1
 579 130 l 1,7,-1
 791 582 l 1,8,-1
 890 582 l 1,9,-1
 598 0 l 1,10,-1
 517 0 l 1,11,-1
 483 452 l 1,12,-1
 480 452 l 1,13,-1
 253 0 l 1,14,-1
 171 0 l 1,15,-1
 131 582 l 1,0,-1
EndSplineSet
EndChar
StartChar: x
Encoding: 120 120 89
Width: 527
VWidth: 1473
Flags: W
HStem: 0 21G<12 138.522 398.739 516> 562 20G<156 275 488.59 614>
Fore
122 0 m 1,0,-1
 12 0 l 1,1,-1
 274 309 l 1,2,-1
 156 582 l 1,3,-1
 267 582 l 1,4,-1
 345 387 l 1,5,-1
 505 582 l 1,6,-1
 614 582 l 1,7,-1
 383 309 l 1,8,-1
 516 0 l 1,9,-1
 407 0 l 1,10,-1
 312 230 l 1,11,-1
 122 0 l 1,0,-1
EndSplineSet
EndChar
StartChar: y
Encoding: 121 121 90
Width: 525
VWidth: 1473
Flags: W
HStem: -206 82<-32.4064 101.81> 562 20G<137 241.297 522.144 636>
Fore
137 582 m 1,0,-1
 239 582 l 1,1,-1
 290 138 l 1,2,-1
 292 138 l 1,3,-1
 533 582 l 1,4,-1
 636 582 l 1,5,-1
 286 -43 l 2,6,7
 239 -127 239 -127 170.5 -166.5 c 128,-1,8
 102 -206 102 -206 22 -206 c 0,9,10
 -12 -206 -12 -206 -47 -196 c 1,11,12
 -50 -187 -50 -187 -48.5 -171.5 c 128,-1,13
 -47 -156 -47 -156 -42.5 -140.5 c 128,-1,14
 -38 -125 -38 -125 -33 -115 c 128,-1,15
 -28 -105 -28 -105 -22 -108 c 0,16,17
 7 -124 7 -124 44 -124 c 0,18,19
 62 -124 62 -124 82.5 -120 c 128,-1,20
 103 -116 103 -116 126 -102 c 128,-1,21
 149 -88 149 -88 171.5 -61.5 c 128,-1,22
 194 -35 194 -35 217 9 c 1,23,-1
 137 582 l 1,0,-1
EndSplineSet
EndChar
StartChar: z
Encoding: 122 122 91
Width: 496
VWidth: 1473
Flags: W
HStem: 0 68<161 463> 514 68<177 443>
Fore
177 582 m 1,0,-1
 576 582 l 1,1,-1
 564 526 l 1,2,-1
 161 68 l 1,3,-1
 476 68 l 1,4,-1
 463 0 l 1,5,-1
 28 0 l 1,6,-1
 40 57 l 1,7,-1
 443 514 l 1,8,-1
 164 514 l 1,9,-1
 177 582 l 1,0,-1
EndSplineSet
EndChar
StartChar: braceleft
Encoding: 123 123 92
Width: 402
VWidth: 1473
Flags: W
HStem: -93 56<218.284 293> 337 53<131 166.295> 765 56<383.47 389 389 476>
VStem: 119 369<337 821 337 424>
Fore
131 390 m 1,0,1
 169 390 169 390 189 414.5 c 128,-1,2
 209 439 209 439 218 482 c 2,3,-1
 262 692 l 2,4,5
 275 754 275 754 308.5 787.5 c 128,-1,6
 342 821 342 821 389 821 c 2,7,-1
 488 821 l 1,8,-1
 476 765 l 1,9,-1
 420 765 l 2,10,11
 398 765 398 765 383 751.5 c 128,-1,12
 368 738 368 738 358 691 c 2,13,-1
 314 485 l 2,14,15
 302 429 302 429 276 402.5 c 128,-1,16
 250 376 250 376 209 365 c 1,17,-1
 209 362 l 1,18,19
 246 354 246 354 260.5 326.5 c 128,-1,20
 275 299 275 299 264 243 c 2,21,-1
 220 37 l 2,22,23
 209 -10 209 -10 218 -23.5 c 128,-1,24
 227 -37 227 -37 249 -37 c 2,25,-1
 305 -37 l 1,26,-1
 293 -93 l 1,27,-1
 194 -93 l 2,28,29
 147 -93 147 -93 128.5 -60 c 128,-1,30
 110 -27 110 -27 124 35 c 2,31,-1
 168 246 l 2,32,33
 177 289 177 289 167.5 313 c 128,-1,34
 158 337 158 337 119 337 c 1,35,-1
 131 390 l 1,0,1
EndSplineSet
EndChar
StartChar: bar
Encoding: 124 124 93
Width: 263
VWidth: 1473
Flags: W
HStem: -12 21G<84 178.25> 801 20G<256.75 351>
VStem: 84 267<-12 821 -12 -12>
Fore
261 821 m 1,0,-1
 351 821 l 1,1,-1
 174 -12 l 1,2,-1
 84 -12 l 1,3,-1
 261 821 l 1,0,-1
EndSplineSet
EndChar
StartChar: braceright
Encoding: 125 125 94
Width: 402
VWidth: 1473
Flags: W
HStem: -93 56<80 172.045> 337 53<389.799 424> 765 56<262 337.231>
VStem: 68 368<-93 390 105.569 423.912>
Fore
424 337 m 1,0,1
 386 337 386 337 366 313 c 128,-1,2
 346 289 346 289 337 246 c 2,3,-1
 293 35 l 2,4,5
 280 -27 280 -27 247 -60 c 128,-1,6
 214 -93 214 -93 166 -93 c 2,7,-1
 68 -93 l 1,8,-1
 80 -37 l 1,9,-1
 136 -37 l 2,10,11
 158 -37 158 -37 172.5 -23.5 c 128,-1,12
 187 -10 187 -10 197 37 c 2,13,-1
 242 243 l 2,14,15
 253 299 253 299 279 326.5 c 128,-1,16
 305 354 305 354 346 362 c 1,17,-1
 346 365 l 1,18,19
 309 376 309 376 294.5 402.5 c 128,-1,20
 280 429 280 429 292 485 c 2,21,-1
 336 691 l 2,22,23
 346 738 346 738 337.5 751.5 c 128,-1,24
 329 765 329 765 306 765 c 2,25,-1
 250 765 l 1,26,-1
 262 821 l 1,27,-1
 361 821 l 2,28,29
 408 821 408 821 426.5 787.5 c 128,-1,30
 445 754 445 754 432 692 c 2,31,-1
 387 482 l 2,32,33
 379 439 379 439 388.5 414.5 c 128,-1,34
 398 390 398 390 436 390 c 1,35,-1
 424 337 l 1,0,1
EndSplineSet
EndChar
StartChar: asciitilde
Encoding: 126 126 95
Width: 671
VWidth: 1473
Flags: W
HStem: 222 79<474.748 588.85> 296 78<208.197 322.252>
Fore
681 317 m 1,0,1
 654 281 654 281 613.5 251.5 c 128,-1,2
 573 222 573 222 510 222 c 0,3,4
 480 222 480 222 448.5 232.5 c 128,-1,5
 417 243 417 243 385 259 c 0,6,7
 354 273 354 273 323.5 284.5 c 128,-1,8
 293 296 293 296 268 296 c 0,9,10
 231 296 231 296 210.5 279 c 128,-1,11
 190 262 190 262 162 233 c 1,12,-1
 116 281 l 1,13,14
 141 315 141 315 183 344.5 c 128,-1,15
 225 374 225 374 287 374 c 0,16,17
 317 374 317 374 348.5 364 c 128,-1,18
 380 354 380 354 412 337 c 0,19,20
 443 324 443 324 473.5 312.5 c 128,-1,21
 504 301 504 301 529 301 c 0,22,23
 566 301 566 301 586.5 317.5 c 128,-1,24
 607 334 607 334 635 364 c 1,25,-1
 681 317 l 1,0,1
EndSplineSet
EndChar
StartChar: uni0E33.alt1
Encoding: 65537 -1 96
Width: 514
VWidth: 1473
Flags: W
HStem: 0 21G<334 424> 532 66<282.136 380.971> 688 59<-204.46 -147.874> 826 59<-188.126 -131.526>
VStem: -267 59<762.228 814.14>
Fore
-69 787 m 256,0,1
 -78 745 -78 745 -112.5 716.5 c 128,-1,2
 -147 688 -147 688 -189 688 c 256,3,4
 -230 688 -230 688 -252.5 716.5 c 128,-1,5
 -275 745 -275 745 -267 787 c 256,6,7
 -258 828 -258 828 -223.5 856.5 c 128,-1,8
 -189 885 -189 885 -147 885 c 256,9,10
 -106 885 -106 885 -83 856.5 c 128,-1,11
 -60 828 -60 828 -69 787 c 256,0,1
-128 787 m 256,12,13
 -125 803 -125 803 -134 814.5 c 128,-1,14
 -143 826 -143 826 -159 826 c 256,15,16
 -175 826 -175 826 -190 814.5 c 128,-1,17
 -205 803 -205 803 -208 787 c 256,18,19
 -211 770 -211 770 -202 758.5 c 128,-1,20
 -193 747 -193 747 -177 747 c 256,21,22
 -161 747 -161 747 -146 758.5 c 128,-1,23
 -131 770 -131 770 -128 787 c 256,12,13
334 0 m 1,24,25
 345 46 345 46 354 88 c 0,26,27
 361 125 361 125 369 163.5 c 128,-1,28
 377 202 377 202 382 225 c 0,29,30
 392 273 392 273 402 308 c 128,-1,31
 412 343 412 343 424 395 c 0,32,33
 435 443 435 443 426 470.5 c 128,-1,34
 417 498 417 498 400 511 c 128,-1,35
 383 524 383 524 364.5 528 c 128,-1,36
 346 532 346 532 337 532 c 0,37,38
 286 532 286 532 247.5 505.5 c 128,-1,39
 209 479 209 479 162 435 c 0,40,41
 158 430 158 430 149.5 433 c 128,-1,42
 141 436 141 436 132.5 443.5 c 128,-1,43
 124 451 124 451 115 461 c 128,-1,44
 106 471 106 471 102 480 c 1,45,46
 119 499 119 499 148.5 520 c 128,-1,47
 178 541 178 541 212 558.5 c 128,-1,48
 246 576 246 576 280.5 587 c 128,-1,49
 315 598 315 598 343 598 c 0,50,51
 385 598 385 598 421 587.5 c 128,-1,52
 457 577 457 577 482 555 c 128,-1,53
 507 533 507 533 517 497 c 128,-1,54
 527 461 527 461 517 410 c 0,55,56
 505 362 505 362 494 320 c 128,-1,57
 483 278 483 278 473 233 c 0,58,59
 470 217 470 217 463.5 186 c 128,-1,60
 457 155 457 155 451 121.5 c 128,-1,61
 445 88 445 88 440 60 c 128,-1,62
 435 32 435 32 435 21 c 0,63,64
 435 6 435 6 431 3 c 128,-1,65
 427 0 427 0 421 0 c 2,66,-1
 334 0 l 1,24,25
EndSplineSet
EndChar
StartChar: exclamdown
Encoding: 161 161 100
Width: 279
VWidth: 1473
Flags: W
HStem: 467 115<199 302>
VStem: 165 85<270.593 318>
Fore
28 -227 m 1,0,-1
 165 318 l 1,1,-1
 250 318 l 1,2,-1
 155 -227 l 1,3,-1
 28 -227 l 1,0,-1
326 582 m 1,4,-1
 302 467 l 1,5,-1
 175 467 l 1,6,-1
 199 582 l 1,7,-1
 326 582 l 1,4,-1
EndSplineSet
EndChar
StartChar: cent
Encoding: 162 162 101
Width: 623
VWidth: 1473
Flags: W
HStem: -3 66<256.138 263.971 263.971 286.485 271.311 367.891> 491 64<332.525 422.152>
VStem: 110 462<-119 653 -111.029 -88.5154>
Fore
432 482 m 1,0,1
 416.5 486.5 l 0,2,3
 401 491 401 491 389 491 c 0,4,5
 358 491 358 491 330 481 c 128,-1,6
 302 471 302 471 277.5 447 c 128,-1,7
 253 423 253 423 234 380 c 128,-1,8
 215 337 215 337 202 273 c 0,9,10
 186 196 186 196 190 154 c 128,-1,11
 194 112 194 112 215 85 c 1,12,-1
 432 482 l 1,0,1
256 63 m 1,13,14
 264 60 264 60 275 58 c 128,-1,15
 286 56 286 56 298 56 c 0,16,17
 331 56 331 56 354 62 c 128,-1,18
 377 68 377 68 394.5 79.5 c 128,-1,19
 412 91 412 91 426 109 c 128,-1,20
 440 127 440 127 455 152 c 1,21,-1
 513 121 l 1,22,23
 479 66 479 66 423.5 28 c 128,-1,24
 368 -10 368 -10 283 -10 c 0,25,26
 252 -10 252 -10 227 -3 c 1,27,-1
 164 -119 l 1,28,-1
 110 -119 l 1,29,-1
 184 15 l 1,30,31
 133 47 133 47 114.5 106.5 c 128,-1,32
 96 166 96 166 119 273 c 0,33,34
 136 351 136 351 164 404.5 c 128,-1,35
 192 458 192 458 228.5 491 c 128,-1,36
 265 524 265 524 309.5 539.5 c 128,-1,37
 354 555 354 555 404 555 c 0,38,39
 433 555 433 555 460 547 c 1,40,-1
 519 653 l 1,41,-1
 572 653 l 1,42,-1
 501 526 l 1,43,44
 554 488 554 488 560 414 c 1,45,-1
 492 385 l 1,46,47
 489 405 489 405 484.5 422 c 128,-1,48
 480 439 480 439 468 454 c 1,49,-1
 256 63 l 1,13,14
EndSplineSet
EndChar
StartChar: sterling
Encoding: 163 163 102
Width: 581
VWidth: 1473
Flags: W
HStem: -10 66<273.604 410.188> 333 59<97 196 290 395> 659 67<371.053 516.645>
VStem: 555 76<544 617.163>
Fore
29 65 m 1,0,1
 69 78 69 78 96.5 99.5 c 128,-1,2
 124 121 124 121 141.5 147.5 c 128,-1,3
 159 174 159 174 169.5 204 c 128,-1,4
 180 234 180 234 187 267 c 0,5,6
 190 283 190 283 191.5 300 c 128,-1,7
 193 317 193 317 196 333 c 1,8,-1
 85 333 l 1,9,-1
 97 392 l 1,10,-1
 202 392 l 1,11,12
 206 430 206 430 207.5 459.5 c 128,-1,13
 209 489 209 489 217 526 c 0,14,15
 237 617 237 617 302 671.5 c 128,-1,16
 367 726 367 726 458 726 c 0,17,18
 544 726 544 726 588.5 677 c 128,-1,19
 633 628 633 628 631 544 c 1,20,-1
 555 517 l 1,21,22
 555 583 555 583 531 621 c 128,-1,23
 507 659 507 659 445 659 c 0,24,25
 392 659 392 659 353.5 624 c 128,-1,26
 315 589 315 589 301 523 c 0,27,28
 293 486 293 486 292.5 456.5 c 128,-1,29
 292 427 292 427 290 392 c 1,30,-1
 407 392 l 1,31,-1
 395 333 l 1,32,-1
 281 333 l 1,33,34
 280 321 280 321 278.5 307 c 128,-1,35
 277 293 277 293 274 280 c 0,36,37
 264 231 264 231 248.5 193.5 c 128,-1,38
 233 156 233 156 203 112 c 1,39,40
 233 90 233 90 263 73 c 128,-1,41
 293 56 293 56 336 56 c 0,42,43
 377 56 377 56 421.5 84 c 128,-1,44
 466 112 466 112 501 190 c 1,45,-1
 564 165 l 1,46,47
 530 81 530 81 472 35.5 c 128,-1,48
 414 -10 414 -10 331 -10 c 0,49,50
 296 -10 296 -10 271 -5.5 c 128,-1,51
 246 -1 246 -1 225.5 7 c 128,-1,52
 205 15 205 15 188 26.5 c 128,-1,53
 171 38 171 38 150 53 c 1,54,55
 124 27 124 27 86.5 12 c 128,-1,56
 49 -3 49 -3 13 -10 c 1,57,-1
 29 65 l 1,0,1
EndSplineSet
EndChar
StartChar: currency
Encoding: 164 164 103
Width: 623
VWidth: 1473
Flags: W
HStem: 82 80<269.056 429.799> 560 78<352.102 504.587>
Fore
715 595 m 1,0,-1
 642 535 l 1,1,2
 666 496 666 496 671 452 c 128,-1,3
 676 408 676 408 666 361 c 0,4,5
 654 314 654 314 630.5 268 c 128,-1,6
 607 222 607 222 567 186 c 1,7,-1
 616 125 l 1,8,-1
 563 82 l 1,9,-1
 514 143 l 1,10,11
 424 82 424 82 327 82 c 0,12,13
 280 82 280 82 238.5 97.5 c 128,-1,14
 197 113 197 113 168 143 c 1,15,-1
 91 82 l 1,16,-1
 60 125 l 1,17,-1
 133 186 l 1,18,19
 108 222 108 222 103.5 268 c 128,-1,20
 99 314 99 314 110 361 c 128,-1,21
 121 408 121 408 143.5 452 c 128,-1,22
 166 496 166 496 208 535 c 1,23,-1
 159 595 l 1,24,-1
 211 638 l 1,25,-1
 261 576 l 1,26,27
 303 607 303 607 351 622.5 c 128,-1,28
 399 638 399 638 446 638 c 0,29,30
 545 638 545 638 607 576 c 1,31,-1
 682 638 l 1,32,-1
 715 595 l 1,0,-1
345 162 m 256,33,34
 385 162 385 162 424 178 c 128,-1,35
 463 194 463 194 494.5 221.5 c 128,-1,36
 526 249 526 249 549 285 c 128,-1,37
 572 321 572 321 580 361 c 256,38,39
 589 401 589 401 581 437 c 128,-1,40
 573 473 573 473 553 500 c 128,-1,41
 533 527 533 527 500.5 543.5 c 128,-1,42
 468 560 468 560 429 560 c 256,43,44
 389 560 389 560 350.5 543.5 c 128,-1,45
 312 527 312 527 280.5 500 c 128,-1,46
 249 473 249 473 227 437 c 128,-1,47
 205 401 205 401 196 361 c 256,48,49
 187 321 187 321 194.5 285 c 128,-1,50
 202 249 202 249 222 221.5 c 128,-1,51
 242 194 242 194 273.5 178 c 128,-1,52
 305 162 305 162 345 162 c 256,33,34
EndSplineSet
EndChar
StartChar: yen
Encoding: 165 165 104
Width: 598
VWidth: 1473
Flags: W
HStem: 0 21G<249 346.156> 231 59<133 298 402 566> 376 60<164 275 499 597> 696 20G<189 285.714 607.863 713>
Fore
597 376 m 1,0,-1
 460 376 l 1,1,-1
 405 303 l 1,2,-1
 402 290 l 1,3,-1
 577 290 l 1,4,-1
 566 231 l 1,5,-1
 390 231 l 1,6,-1
 342 0 l 1,7,-1
 249 0 l 1,8,-1
 298 231 l 1,9,-1
 121 231 l 1,10,-1
 133 290 l 1,11,-1
 309 290 l 1,12,-1
 312 303 l 1,13,-1
 292 376 l 1,14,-1
 152 376 l 1,15,-1
 164 436 l 1,16,-1
 275 436 l 1,17,-1
 189 716 l 1,18,-1
 280 716 l 1,19,-1
 374 387 l 1,20,-1
 623 716 l 1,21,-1
 713 716 l 1,22,-1
 499 436 l 1,23,-1
 608 436 l 1,24,-1
 597 376 l 1,0,-1
EndSplineSet
EndChar
StartChar: brokenbar
Encoding: 166 166 105
Width: 278
VWidth: 1473
Flags: W
HStem: -12 21G<91 185.281>
VStem: 91 248<-12 732 155.883 442.818>
Fore
155 287 m 1,0,-1
 245 287 l 1,1,-1
 181 -12 l 1,2,-1
 91 -12 l 1,3,-1
 155 287 l 1,0,-1
249 732 m 1,4,-1
 339 732 l 1,5,-1
 275 433 l 1,6,-1
 186 433 l 1,7,-1
 249 732 l 1,4,-1
EndSplineSet
EndChar
StartChar: section
Encoding: 167 167 106
Width: 539
VWidth: 1473
Flags: W
HStem: -90 63<197.336 317.023> 426 57<261.142 305> 660 65<356.447 474.213>
VStem: 88 491<15 614 15 15>
Fore
511 572 m 1,0,1
 499 613 499 613 476.5 636.5 c 128,-1,2
 454 660 454 660 417 660 c 0,3,4
 379 660 379 660 358 642.5 c 128,-1,5
 337 625 337 625 331 600 c 0,6,7
 326 576 326 576 341.5 555.5 c 128,-1,8
 357 535 357 535 381 513.5 c 128,-1,9
 405 492 405 492 434 468.5 c 128,-1,10
 463 445 463 445 485.5 415.5 c 128,-1,11
 508 386 508 386 520 349 c 128,-1,12
 532 312 532 312 522 265 c 0,13,14
 510 208 510 208 468.5 180 c 128,-1,15
 427 152 427 152 374 147 c 1,16,17
 393 118 393 118 405.5 93 c 128,-1,18
 418 68 418 68 411 28 c 0,19,20
 396 -38 396 -38 346 -64 c 128,-1,21
 296 -90 296 -90 237 -90 c 0,22,23
 211 -90 211 -90 186.5 -82.5 c 128,-1,24
 162 -75 162 -75 142 -61 c 128,-1,25
 122 -47 122 -47 107.5 -28 c 128,-1,26
 93 -9 93 -9 88 15 c 1,27,-1
 158 59 l 1,28,29
 165 24 165 24 193 -1.5 c 128,-1,30
 221 -27 221 -27 250 -27 c 0,31,32
 298 -27 298 -27 317.5 -6 c 128,-1,33
 337 15 337 15 342 35 c 256,34,35
 346 56 346 56 330.5 77.5 c 128,-1,36
 315 99 315 99 291.5 122.5 c 128,-1,37
 268 146 268 146 240 172.5 c 128,-1,38
 212 199 212 199 189 230.5 c 128,-1,39
 166 262 166 262 155 298 c 128,-1,40
 144 334 144 334 153 377 c 0,41,42
 165 432 165 432 207.5 457.5 c 128,-1,43
 250 483 250 483 305 483 c 1,44,-1
 309 486 l 1,45,46
 284 507 284 507 268.5 535.5 c 128,-1,47
 253 564 253 564 262 608 c 0,48,49
 274 666 274 666 318 695.5 c 128,-1,50
 362 725 362 725 429 725 c 0,51,52
 486 725 486 725 526 695.5 c 128,-1,53
 566 666 566 666 579 614 c 1,54,-1
 511 572 l 1,0,1
306 426 m 256,55,56
 281 426 281 426 260.5 413.5 c 128,-1,57
 240 401 240 401 237 382 c 0,58,59
 230 348 230 348 241.5 316 c 128,-1,60
 253 284 253 284 273 259 c 128,-1,61
 293 234 293 234 317.5 219.5 c 128,-1,62
 342 205 342 205 361 205 c 0,63,64
 396 205 396 205 414.5 222 c 128,-1,65
 433 239 433 239 438 262 c 0,66,67
 445 293 445 293 434 322 c 128,-1,68
 423 351 423 351 403 374.5 c 128,-1,69
 383 398 383 398 357 412 c 128,-1,70
 331 426 331 426 306 426 c 256,55,56
EndSplineSet
EndChar
StartChar: dieresis
Encoding: 168 168 107
Width: 307
VWidth: 1473
Flags: W
HStem: 659 120<165 243 370 448 140 473 165 165>
Fore
268 779 m 1,0,-1
 243 659 l 1,1,-1
 140 659 l 1,2,-1
 165 779 l 1,3,-1
 268 779 l 1,0,-1
473 779 m 1,4,-1
 448 659 l 1,5,-1
 345 659 l 1,6,-1
 370 779 l 1,7,-1
 473 779 l 1,4,-1
EndSplineSet
EndChar
StartChar: copyright
Encoding: 169 169 108
Width: 895
VWidth: 1473
Flags: W
HStem: -10 66<300.547 522.5> 137 62<382.332 512.702> 517 62<436.205 571.786> 660 66<420.801 644.524>
VStem: 588 79<432 494.308>
Fore
550 726 m 256,0,1
 626 726 626 726 686.5 696.5 c 128,-1,2
 747 667 747 667 786.5 617 c 128,-1,3
 826 567 826 567 841 500 c 128,-1,4
 856 433 856 433 840 358 c 256,5,6
 824 283 824 283 781 216 c 128,-1,7
 738 149 738 149 677 99 c 128,-1,8
 616 49 616 49 543 19.5 c 128,-1,9
 470 -10 470 -10 393 -10 c 256,10,11
 317 -10 317 -10 256.5 19.5 c 128,-1,12
 196 49 196 49 156 99 c 128,-1,13
 116 149 116 149 101.5 216 c 128,-1,14
 87 283 87 283 103 358 c 256,15,16
 119 433 119 433 162 500 c 128,-1,17
 205 567 205 567 266 617 c 128,-1,18
 327 667 327 667 400 696.5 c 128,-1,19
 473 726 473 726 550 726 c 256,0,1
408 56 m 0,20,21
 471 56 471 56 530 79.5 c 128,-1,22
 589 103 589 103 637 144.5 c 128,-1,23
 685 186 685 186 719 240.5 c 128,-1,24
 753 295 753 295 766 358 c 256,25,26
 779 421 779 421 769 476.5 c 128,-1,27
 759 532 759 532 728 572.5 c 128,-1,28
 697 613 697 613 648.5 636.5 c 128,-1,29
 600 660 600 660 536 660 c 0,30,31
 474 660 474 660 415.5 636.5 c 128,-1,32
 357 613 357 613 308 572.5 c 128,-1,33
 259 532 259 532 224.5 476.5 c 128,-1,34
 190 421 190 421 177 358 c 256,35,36
 164 295 164 295 175 240.5 c 128,-1,37
 186 186 186 186 216.5 144.5 c 128,-1,38
 247 103 247 103 296.5 79.5 c 128,-1,39
 346 56 346 56 408 56 c 0,20,21
636 287 m 1,40,41
 608 225 608 225 562.5 181 c 128,-1,42
 517 137 517 137 436 137 c 0,43,44
 337 137 337 137 300.5 195 c 128,-1,45
 264 253 264 253 286 359 c 0,46,47
 309 466 309 466 368 522.5 c 128,-1,48
 427 579 427 579 526 579 c 0,49,50
 605 579 605 579 640 541.5 c 128,-1,51
 675 504 675 504 667 432 c 1,52,-1
 588 432 l 1,53,54
 589 473 589 473 573 495 c 128,-1,55
 557 517 557 517 514 517 c 0,56,57
 451 517 451 517 418.5 479.5 c 128,-1,58
 386 442 386 442 368 359 c 0,59,60
 352 280 352 280 369.5 239.5 c 128,-1,61
 387 199 387 199 449 199 c 0,62,63
 489 199 489 199 515 222 c 128,-1,64
 541 245 541 245 557 287 c 1,65,-1
 636 287 l 1,40,41
EndSplineSet
EndChar
StartChar: ordfeminine
Encoding: 170 170 109
Width: 335
VWidth: 1473
Flags: W
HStem: 460 54<210.616 295.893> 719 21G<194.739 246> 768 53<283.325 378.974>
VStem: 339 65<466 482.577 482.577 503.644>
Fore
189 742 m 1,0,1
 222 785 222 785 260 803 c 128,-1,2
 298 821 298 821 351 821 c 0,3,4
 414 821 414 821 437 795 c 128,-1,5
 460 769 460 769 448 713 c 2,6,-1
 411 538 l 2,7,8
 405 513 405 513 403.5 499 c 128,-1,9
 402 485 402 485 404 466 c 1,10,-1
 339 466 l 1,11,-1
 340 504 l 1,12,13
 320 489 320 489 289.5 474.5 c 128,-1,14
 259 460 259 460 217 460 c 0,15,16
 171 460 171 460 146 483.5 c 128,-1,17
 121 507 121 507 131 550 c 0,18,19
 140 594 140 594 168.5 619.5 c 128,-1,20
 197 645 197 645 233.5 660 c 128,-1,21
 270 675 270 675 308 682 c 128,-1,22
 346 689 346 689 374 697 c 1,23,-1
 380 725 l 2,24,25
 389 768 389 768 333 768 c 0,26,27
 308 768 308 768 283.5 758 c 128,-1,28
 259 748 259 748 233 719 c 1,29,-1
 189 742 l 1,0,1
362 642 m 1,30,31
 337 636 337 636 310.5 631 c 128,-1,32
 284 626 284 626 262 617 c 128,-1,33
 240 608 240 608 223 594 c 128,-1,34
 206 580 206 580 202 557 c 0,35,36
 197 536 197 536 208.5 525 c 128,-1,37
 220 514 220 514 236 514 c 0,38,39
 295 514 295 514 346 563 c 1,40,-1
 362 642 l 1,30,31
EndSplineSet
EndChar
StartChar: guillemotleft
Encoding: 171 171 110
Width: 559
VWidth: 1473
Flags: W
HStem: 119 344<463 492 463 463>
VStem: 155 409<295 463 295 295>
Fore
418 295 m 1,0,-1
 492 119 l 1,1,-1
 390 119 l 1,2,-1
 320 295 l 1,3,-1
 463 463 l 1,4,-1
 564 463 l 1,5,-1
 418 295 l 1,0,-1
253 295 m 1,6,-1
 326 119 l 1,7,-1
 222 119 l 1,8,-1
 155 295 l 1,9,-1
 295 463 l 1,10,-1
 398 463 l 1,11,-1
 253 295 l 1,6,-1
EndSplineSet
EndChar
StartChar: logicalnot
Encoding: 172 172 111
Width: 671
VWidth: 1473
Flags: W
HStem: 358 77<136 613>
Fore
613 358 m 1,0,-1
 119 358 l 1,1,-1
 136 435 l 1,2,-1
 719 435 l 1,3,-1
 659 149 l 1,4,-1
 569 149 l 1,5,-1
 613 358 l 1,0,-1
EndSplineSet
EndChar
StartChar: registered
Encoding: 174 174 112
Width: 895
VWidth: 1473
Flags: W
HStem: -10 66<300.547 522.5> 321 61<427 466> 505 61<452 556.175> 660 66<420.801 644.524>
Fore
377 149 m 1,0,-1
 299 149 l 1,1,-1
 387 566 l 1,2,-1
 547 566 l 2,3,4
 617 566 617 566 641.5 532.5 c 128,-1,5
 666 499 666 499 654 443 c 0,6,7
 642 389 642 389 606 359 c 128,-1,8
 570 329 570 329 533 321 c 1,9,-1
 598 149 l 1,10,-1
 514 149 l 1,11,-1
 466 321 l 1,12,-1
 414 321 l 1,13,-1
 377 149 l 1,0,-1
470 382 m 2,14,15
 491 382 491 382 507.5 382 c 128,-1,16
 524 382 524 382 537.5 387 c 128,-1,17
 551 392 551 392 561.5 405 c 128,-1,18
 572 418 572 418 577 445 c 0,19,20
 586 488 586 488 570 496.5 c 128,-1,21
 554 505 554 505 520 505 c 2,22,-1
 452 505 l 1,23,-1
 427 382 l 1,24,-1
 470 382 l 2,14,15
550 726 m 256,25,26
 626 726 626 726 686.5 696.5 c 128,-1,27
 747 667 747 667 786.5 617 c 128,-1,28
 826 567 826 567 841 500 c 128,-1,29
 856 433 856 433 840 358 c 256,30,31
 824 283 824 283 781 216 c 128,-1,32
 738 149 738 149 677 99 c 128,-1,33
 616 49 616 49 543 19.5 c 128,-1,34
 470 -10 470 -10 393 -10 c 256,35,36
 317 -10 317 -10 256.5 19.5 c 128,-1,37
 196 49 196 49 156 99 c 128,-1,38
 116 149 116 149 101.5 216 c 128,-1,39
 87 283 87 283 103 358 c 256,40,41
 119 433 119 433 162 500 c 128,-1,42
 205 567 205 567 266 617 c 128,-1,43
 327 667 327 667 400 696.5 c 128,-1,44
 473 726 473 726 550 726 c 256,25,26
408 56 m 0,45,46
 471 56 471 56 530 79.5 c 128,-1,47
 589 103 589 103 637 144.5 c 128,-1,48
 685 186 685 186 719 240.5 c 128,-1,49
 753 295 753 295 766 358 c 256,50,51
 779 421 779 421 769 476.5 c 128,-1,52
 759 532 759 532 728 572.5 c 128,-1,53
 697 613 697 613 648.5 636.5 c 128,-1,54
 600 660 600 660 536 660 c 0,55,56
 474 660 474 660 415.5 636.5 c 128,-1,57
 357 613 357 613 308 572.5 c 128,-1,58
 259 532 259 532 224.5 476.5 c 128,-1,59
 190 421 190 421 177 358 c 256,60,61
 164 295 164 295 175 240.5 c 128,-1,62
 186 186 186 186 216.5 144.5 c 128,-1,63
 247 103 247 103 296.5 79.5 c 128,-1,64
 346 56 346 56 408 56 c 0,45,46
EndSplineSet
EndChar
StartChar: macron
Encoding: 175 175 113
Width: 248
VWidth: 1473
Flags: W
HStem: 676 80<118 433 118 433 118 118>
Fore
118 756 m 1,0,-1
 451 756 l 1,1,-1
 433 676 l 1,2,-1
 100 676 l 1,3,-1
 118 756 l 1,0,-1
EndSplineSet
EndChar
StartChar: degree
Encoding: 176 176 114
Width: 447
VWidth: 1473
Flags: W
HStem: 492 66<284.076 401.156> 756 65<324.012 441.882>
VStem: 199 328.5<691 691 657 720.5 657 657>
Fore
385 756 m 256,0,1
 342 756 342 756 308.5 728 c 128,-1,2
 275 700 275 700 267 657 c 256,3,4
 258 614 258 614 278.5 586 c 128,-1,5
 299 558 299 558 342 558 c 256,6,7
 385 558 385 558 417 586 c 128,-1,8
 449 614 449 614 458 657 c 256,9,10
 467 700 467 700 447 728 c 128,-1,11
 427 756 427 756 385 756 c 256,0,1
398 821 m 256,12,13
 433 821 433 821 459.5 807.5 c 128,-1,14
 486 794 486 794 504 772 c 128,-1,15
 522 750 522 750 527.5 720.5 c 128,-1,16
 533 691 533 691 526 657 c 256,17,18
 519 623 519 623 499.5 593 c 128,-1,19
 480 563 480 563 453.5 541 c 128,-1,20
 427 519 427 519 394.5 505.5 c 128,-1,21
 362 492 362 492 327 492 c 0,22,23
 256 492 256 492 220 540 c 128,-1,24
 184 588 184 588 199 657 c 0,25,26
 206 691 206 691 225.5 720.5 c 128,-1,27
 245 750 245 750 271.5 772 c 128,-1,28
 298 794 298 794 330 807.5 c 128,-1,29
 362 821 362 821 398 821 c 256,12,13
EndSplineSet
EndChar
StartChar: plusminus
Encoding: 177 177 115
Width: 671
VWidth: 1473
Flags: W
HStem: 0 75<59 628> 330 75<130 359 467 697>
Fore
420 611 m 1,0,-1
 511 611 l 1,1,-1
 467 405 l 1,2,-1
 713 405 l 1,3,-1
 697 330 l 1,4,-1
 451 330 l 1,5,-1
 407 122 l 1,6,-1
 315 122 l 1,7,-1
 359 330 l 1,8,-1
 113 330 l 1,9,-1
 130 405 l 1,10,-1
 376 405 l 1,11,-1
 420 611 l 1,0,-1
59 75 m 1,12,-1
 642 75 l 1,13,-1
 628 0 l 1,14,-1
 44 0 l 1,15,-1
 59 75 l 1,12,-1
EndSplineSet
EndChar
StartChar: twosuperior
Encoding: 178 178 116
Width: 340
VWidth: 1473
Flags: W
HStem: 289 60<171 377> 595 21G<155 231.5> 667 59<261.461 365.053>
VStem: 82 363<289 597 289 289>
Fore
155 603 m 1,0,1
 180 661 180 661 227 693.5 c 128,-1,2
 274 726 274 726 336 726 c 256,3,4
 398 726 398 726 427.5 692.5 c 128,-1,5
 457 659 457 659 445 597 c 0,6,7
 439 566 439 566 420.5 541.5 c 128,-1,8
 402 517 402 517 378.5 498 c 128,-1,9
 355 479 355 479 327 463.5 c 128,-1,10
 299 448 299 448 273 435 c 0,11,12
 240 418 240 418 220 406.5 c 128,-1,13
 200 395 200 395 190 384.5 c 128,-1,14
 180 374 180 374 176 366 c 128,-1,15
 172 358 172 358 171 349 c 1,16,-1
 390 349 l 1,17,-1
 377 289 l 1,18,-1
 82 289 l 1,19,-1
 93 337 l 2,20,21
 100 376 100 376 126.5 409 c 128,-1,22
 153 442 153 442 228 477 c 0,23,24
 271 498 271 498 297.5 514 c 128,-1,25
 324 530 324 530 339.5 544 c 128,-1,26
 355 558 355 558 361.5 572 c 128,-1,27
 368 586 368 586 371 601 c 0,28,29
 377 626 377 626 365.5 646.5 c 128,-1,30
 354 667 354 667 327 667 c 0,31,32
 293 667 293 667 267.5 654 c 128,-1,33
 242 641 242 641 221 595 c 1,34,-1
 155 603 l 1,0,1
EndSplineSet
EndChar
StartChar: threesuperior
Encoding: 179 179 117
Width: 359
VWidth: 1473
Flags: W
HStem: 284 58<190.836 316.214> 488 59<233 340.943> 667 59<277.32 376.175>
VStem: 99 355<361 620 308.991 393.119>
Fore
155 399 m 1,0,1
 171 373 171 373 194.5 357.5 c 128,-1,2
 218 342 218 342 253 342 c 0,3,4
 283 342 283 342 312.5 356.5 c 128,-1,5
 342 371 342 371 351 410 c 0,6,7
 359 455 359 455 341.5 471.5 c 128,-1,8
 324 488 324 488 264 488 c 2,9,-1
 221 488 l 1,10,-1
 233 547 l 1,11,-1
 268 547 l 2,12,13
 324 547 324 547 347 561.5 c 128,-1,14
 370 576 370 576 380 617 c 0,15,16
 386 647 386 647 373.5 657 c 128,-1,17
 361 667 361 667 327 667 c 0,18,19
 301 667 301 667 275 659 c 128,-1,20
 249 651 249 651 228 625 c 1,21,-1
 183 656 l 1,22,23
 220 694 220 694 260.5 710 c 128,-1,24
 301 726 301 726 343 726 c 0,25,26
 418 726 418 726 442 700.5 c 128,-1,27
 466 675 466 675 454 620 c 0,28,29
 446 583 446 583 428.5 559 c 128,-1,30
 411 535 411 535 365 519 c 1,31,32
 402 507 402 507 417.5 481 c 128,-1,33
 433 455 433 455 424 410 c 0,34,35
 396 284 396 284 239 284 c 0,36,37
 183 284 183 284 146.5 306.5 c 128,-1,38
 110 329 110 329 99 361 c 1,39,-1
 155 399 l 1,0,1
EndSplineSet
EndChar
StartChar: acute
Encoding: 180 180 118
Width: 248
VWidth: 1473
Flags: W
HStem: 647 154<262 435 435 435>
Fore
435 801 m 1,0,-1
 262 647 l 1,1,-1
 190 647 l 1,2,-1
 318 801 l 1,3,-1
 435 801 l 1,0,-1
EndSplineSet
EndChar
StartChar: mu
Encoding: 181 181 119
Width: 623
VWidth: 1473
Flags: W
HStem: -206 21G<49 148.344> -12 69<240.998 357.434> 562 20G<210.787 311 550.831 653>
Fore
653 582 m 1,0,-1
 530 0 l 1,1,-1
 433 0 l 1,2,-1
 449 78 l 1,3,4
 408 31 408 31 358 9.5 c 128,-1,5
 308 -12 308 -12 270 -12 c 0,6,7
 247 -12 247 -12 224.5 -6 c 128,-1,8
 202 0 202 0 192 15 c 1,9,-1
 144 -206 l 1,10,-1
 49 -206 l 1,11,-1
 215 582 l 1,12,-1
 311 582 l 1,13,-1
 228 192 l 2,14,15
 212 119 212 119 233.5 88 c 128,-1,16
 255 57 255 57 289 57 c 256,17,18
 323 57 323 57 366.5 80 c 128,-1,19
 410 103 410 103 466 155 c 1,20,-1
 555 582 l 1,21,-1
 653 582 l 1,0,-1
EndSplineSet
EndChar
StartChar: paragraph
Encoding: 182 182 120
Width: 559
VWidth: 1473
Flags: W
HStem: 744 65<492 580 666 720>
Fore
329 377 m 1,0,1
 280 377 280 377 241.5 394 c 128,-1,2
 203 411 203 411 178 439.5 c 128,-1,3
 153 468 153 468 143.5 506.5 c 128,-1,4
 134 545 134 545 143 589 c 0,5,6
 165 695 165 695 242.5 752 c 128,-1,7
 320 809 320 809 438 809 c 2,8,-1
 734 809 l 1,9,-1
 720 744 l 1,10,-1
 666 744 l 1,11,-1
 489 -90 l 1,12,-1
 404 -90 l 1,13,-1
 580 744 l 1,14,-1
 492 744 l 1,15,-1
 315 -90 l 1,16,-1
 230 -90 l 1,17,-1
 329 377 l 1,0,1
EndSplineSet
EndChar
StartChar: periodcentered
Encoding: 183 183 121
Width: 310
VWidth: 1473
Flags: W
HStem: 224 135<180.781 251.734>
VStem: 149 135<267.524 344.18>
Fore
230 359 m 0,0,1
 256 359 256 359 273 339.5 c 128,-1,2
 290 320 290 320 284 292 c 0,3,4
 277 264 277 264 252.5 244 c 128,-1,5
 228 224 228 224 202 224 c 0,6,7
 177 224 177 224 159 244 c 128,-1,8
 141 264 141 264 149 292 c 0,9,10
 155 320 155 320 180 339.5 c 128,-1,11
 205 359 205 359 230 359 c 0,0,1
EndSplineSet
EndChar
StartChar: cedilla
Encoding: 184 184 122
Width: 248
VWidth: 1473
Flags: W
HStem: -233 233<57 106 106 106> -233 46<16.4656 84.2446>
VStem: -44 237<-211 -146 -211 -211>
Fore
-21 -171 m 1,0,1
 -7 -175 -7 -175 10.5 -181 c 128,-1,2
 28 -187 28 -187 41 -187 c 0,3,4
 80 -187 80 -187 99 -177.5 c 128,-1,5
 118 -168 118 -168 124 -143 c 256,6,7
 130 -118 130 -118 116 -107.5 c 128,-1,8
 102 -97 102 -97 82 -97 c 0,9,10
 55 -97 55 -97 32 -106 c 1,11,-1
 19 -93 l 1,12,-1
 106 0 l 1,13,-1
 149 0 l 1,14,-1
 87 -56 l 1,15,-1
 90 -59 l 1,16,17
 102 -52 102 -52 125 -52 c 0,18,19
 166 -52 166 -52 184.5 -77 c 128,-1,20
 203 -102 203 -102 193 -146 c 0,21,22
 189 -168 189 -168 174 -184 c 128,-1,23
 159 -200 159 -200 139 -211 c 128,-1,24
 119 -222 119 -222 97 -227.5 c 128,-1,25
 75 -233 75 -233 57 -233 c 0,26,27
 29 -233 29 -233 3.5 -227.5 c 128,-1,28
 -22 -222 -22 -222 -44 -211 c 1,29,-1
 -21 -171 l 1,0,1
EndSplineSet
EndChar
StartChar: onesuperior
Encoding: 185 185 123
Width: 387
VWidth: 1473
Flags: W
HStem: 289 437<152 324 307.722 324> 289 60<165 233 308 367>
Fore
152 289 m 1,0,-1
 165 349 l 1,1,-1
 233 349 l 1,2,-1
 299 661 l 1,3,-1
 217 642 l 1,4,-1
 227 692 l 1,5,-1
 324 726 l 1,6,-1
 387 726 l 1,7,-1
 308 349 l 1,8,-1
 380 349 l 1,9,-1
 367 289 l 1,10,-1
 152 289 l 1,0,-1
EndSplineSet
EndChar
StartChar: ordmasculine
Encoding: 186 186 124
Width: 304
VWidth: 1473
Flags: W
HStem: 407 66<205.154 307.942> 660 66<237.669 339.938>
VStem: 128 288<506 626.5 506 506>
Fore
205 566 m 256,0,1
 194 519 194 519 204.5 496 c 128,-1,2
 215 473 215 473 253 473 c 256,3,4
 292 473 292 473 311 496 c 128,-1,5
 330 519 330 519 340 566 c 256,6,7
 351 613 351 613 341 636.5 c 128,-1,8
 331 660 331 660 293 660 c 256,9,10
 255 660 255 660 235 636.5 c 128,-1,11
 215 613 215 613 205 566 c 256,0,1
306 726 m 256,12,13
 346 726 346 726 369.5 713 c 128,-1,14
 393 700 393 700 404 678 c 128,-1,15
 415 656 415 656 416 626.5 c 128,-1,16
 417 597 417 597 410 566 c 0,17,18
 404 535 404 535 390.5 506 c 128,-1,19
 377 477 377 477 356.5 455 c 128,-1,20
 336 433 336 433 307 420 c 128,-1,21
 278 407 278 407 239 407 c 256,22,23
 199 407 199 407 175.5 420 c 128,-1,24
 152 433 152 433 140 455 c 128,-1,25
 128 477 128 477 128 506 c 128,-1,26
 128 535 128 535 134 566 c 0,27,28
 141 597 141 597 153.5 626.5 c 128,-1,29
 166 656 166 656 187 678 c 128,-1,30
 208 700 208 700 237.5 713 c 128,-1,31
 267 726 267 726 306 726 c 256,12,13
EndSplineSet
EndChar
StartChar: guillemotright
Encoding: 187 187 125
Width: 559
VWidth: 1473
Flags: W
HStem: 119 344<190 220 190 190>
VStem: 118 409<119 289 119 119>
Fore
264 289 m 1,0,-1
 190 463 l 1,1,-1
 292 463 l 1,2,-1
 362 289 l 1,3,-1
 220 119 l 1,4,-1
 118 119 l 1,5,-1
 264 289 l 1,0,-1
429 289 m 1,6,-1
 357 463 l 1,7,-1
 460 463 l 1,8,-1
 527 289 l 1,9,-1
 387 119 l 1,10,-1
 284 119 l 1,11,-1
 429 289 l 1,6,-1
EndSplineSet
EndChar
StartChar: onequarter
Encoding: 188 188 126
Width: 907
VWidth: 1473
Flags: W
HStem: -10 21G<193 280.788 681 759.958> 96 57<589 700 788 838> 289 60<165 233 308 367>
Fore
773 726 m 1,0,-1
 846 726 l 1,1,-1
 265 -10 l 1,2,-1
 193 -10 l 1,3,-1
 773 726 l 1,0,-1
152 289 m 1,4,-1
 165 349 l 1,5,-1
 233 349 l 1,6,-1
 299 661 l 1,7,-1
 217 642 l 1,8,-1
 227 692 l 1,9,-1
 324 726 l 1,10,-1
 387 726 l 1,11,-1
 308 349 l 1,12,-1
 380 349 l 1,13,-1
 367 289 l 1,14,-1
 152 289 l 1,4,-1
589 153 m 1,15,-1
 713 153 l 1,16,-1
 753 340 l 1,17,-1
 750 340 l 1,18,-1
 589 153 l 1,15,-1
522 159 m 1,19,-1
 759 430 l 1,20,-1
 847 430 l 1,21,-1
 788 153 l 1,22,-1
 852 153 l 1,23,-1
 838 96 l 1,24,-1
 775 96 l 1,25,-1
 756 0 l 1,26,-1
 681 0 l 1,27,-1
 700 96 l 1,28,-1
 508 96 l 1,29,-1
 522 159 l 1,19,-1
EndSplineSet
Ligature2: "'frac' Diagonal Fractions in Latin lookup 1 subtable" one fraction four
Ligature2: "'frac' Diagonal Fractions in Latin lookup 1 subtable" one slash four
EndChar
StartChar: onehalf
Encoding: 189 189 127
Width: 903
VWidth: 1473
Flags: W
HStem: 0 60<605 813> 289 60<165 233 308 367> 379 59<698.006 799.449>
Fore
762 726 m 1,0,-1
 832 726 l 1,1,-1
 253 -10 l 1,2,-1
 180 -10 l 1,3,-1
 762 726 l 1,0,-1
152 289 m 1,4,-1
 165 349 l 1,5,-1
 233 349 l 1,6,-1
 299 661 l 1,7,-1
 217 642 l 1,8,-1
 227 692 l 1,9,-1
 324 726 l 1,10,-1
 387 726 l 1,11,-1
 308 349 l 1,12,-1
 380 349 l 1,13,-1
 367 289 l 1,14,-1
 152 289 l 1,4,-1
591 314 m 1,15,16
 616 373 616 373 663 405.5 c 128,-1,17
 710 438 710 438 772 438 c 256,18,19
 834 438 834 438 863.5 404 c 128,-1,20
 893 370 893 370 880 308 c 0,21,22
 874 277 874 277 855.5 252.5 c 128,-1,23
 837 228 837 228 813.5 209 c 128,-1,24
 790 190 790 190 762.5 174.5 c 128,-1,25
 735 159 735 159 709 146 c 0,26,27
 675 130 675 130 655 118 c 128,-1,28
 635 106 635 106 624.5 95.5 c 128,-1,29
 614 85 614 85 610.5 77 c 128,-1,30
 607 69 607 69 605 60 c 1,31,-1
 825 60 l 1,32,-1
 813 0 l 1,33,-1
 519 0 l 1,34,-1
 529 49 l 2,35,36
 533 68 533 68 540.5 85.5 c 128,-1,37
 548 103 548 103 562.5 120 c 128,-1,38
 577 137 577 137 601.5 154 c 128,-1,39
 626 171 626 171 664 189 c 0,40,41
 707 209 707 209 733.5 225.5 c 128,-1,42
 760 242 760 242 775.5 256 c 128,-1,43
 791 270 791 270 797.5 284 c 128,-1,44
 804 298 804 298 807 312 c 0,45,46
 812 337 812 337 800 358 c 128,-1,47
 788 379 788 379 762 379 c 0,48,49
 728 379 728 379 703 365.5 c 128,-1,50
 678 352 678 352 657 306 c 1,51,-1
 591 314 l 1,15,16
EndSplineSet
Ligature2: "'frac' Diagonal Fractions in Latin lookup 1 subtable" one fraction two
Ligature2: "'frac' Diagonal Fractions in Latin lookup 1 subtable" one slash two
EndChar
StartChar: threequarters
Encoding: 190 190 128
Width: 906
VWidth: 1473
Flags: W
HStem: 0 21G<208 296.707 681 759.958> 96 57<589 700 788 837> 284 58<197.902 323.467> 488 59<240 348.427> 667 59<284.321 383.657>
Fore
589 153 m 1,0,-1
 713 153 l 1,1,-1
 753 340 l 1,2,-1
 750 340 l 1,3,-1
 589 153 l 1,0,-1
522 159 m 1,4,-1
 759 430 l 1,5,-1
 847 430 l 1,6,-1
 788 153 l 1,7,-1
 850 153 l 1,8,-1
 837 96 l 1,9,-1
 775 96 l 1,10,-1
 756 0 l 1,11,-1
 681 0 l 1,12,-1
 700 96 l 1,13,-1
 508 96 l 1,14,-1
 522 159 l 1,4,-1
788 726 m 1,15,-1
 859 726 l 1,16,-1
 281 -10 l 1,17,-1
 208 -10 l 1,18,-1
 788 726 l 1,15,-1
162 399 m 1,19,20
 178 373 178 373 201.5 357.5 c 128,-1,21
 225 342 225 342 261 342 c 0,22,23
 290 342 290 342 319.5 356.5 c 128,-1,24
 349 371 349 371 358 410 c 0,25,26
 367 455 367 455 349 471.5 c 128,-1,27
 331 488 331 488 271 488 c 2,28,-1
 228 488 l 1,29,-1
 240 547 l 1,30,-1
 275 547 l 2,31,32
 331 547 331 547 354 561.5 c 128,-1,33
 377 576 377 576 387 617 c 0,34,35
 393 647 393 647 380.5 657 c 128,-1,36
 368 667 368 667 334 667 c 0,37,38
 308 667 308 667 282 659 c 128,-1,39
 256 651 256 651 236 625 c 1,40,-1
 190 656 l 1,41,42
 227 694 227 694 267.5 710 c 128,-1,43
 308 726 308 726 351 726 c 0,44,45
 426 726 426 726 449.5 700.5 c 128,-1,46
 473 675 473 675 461 620 c 0,47,48
 454 583 454 583 436 559 c 128,-1,49
 418 535 418 535 373 519 c 1,50,51
 410 507 410 507 425 481 c 128,-1,52
 440 455 440 455 432 410 c 0,53,54
 404 284 404 284 246 284 c 0,55,56
 190 284 190 284 154 306.5 c 128,-1,57
 118 329 118 329 106 361 c 1,58,-1
 162 399 l 1,19,20
EndSplineSet
Ligature2: "'frac' Diagonal Fractions in Latin lookup 1 subtable" three fraction four
Ligature2: "'frac' Diagonal Fractions in Latin lookup 1 subtable" three slash four
EndChar
StartChar: questiondown
Encoding: 191 191 129
Width: 434
VWidth: 1473
Flags: W
HStem: -239 87<148.88 241.38> 458 122<329 451>
VStem: 23.5 452.5<-128 580 -128 -128>
Fore
452 -91 m 1,0,1
 433 -125 433 -125 404.5 -152.5 c 128,-1,2
 376 -180 376 -180 342 -199 c 128,-1,3
 308 -218 308 -218 269.5 -228.5 c 128,-1,4
 231 -239 231 -239 193 -239 c 0,5,6
 149 -239 149 -239 113.5 -226.5 c 128,-1,7
 78 -214 78 -214 55 -189.5 c 128,-1,8
 32 -165 32 -165 23.5 -128 c 128,-1,9
 15 -91 15 -91 24 -44 c 0,10,11
 37 16 37 16 74.5 56.5 c 128,-1,12
 112 97 112 97 154.5 131 c 128,-1,13
 197 165 197 165 234 198 c 128,-1,14
 271 231 271 231 280 275 c 2,15,-1
 293 333 l 1,16,-1
 401 333 l 1,17,-1
 387 275 l 2,18,19
 380 237 380 237 359.5 207.5 c 128,-1,20
 339 178 339 178 312.5 154 c 128,-1,21
 286 130 286 130 257 107 c 128,-1,22
 228 84 228 84 201.5 59 c 128,-1,23
 175 34 175 34 155.5 5 c 128,-1,24
 136 -24 136 -24 128 -60 c 0,25,26
 121 -94 121 -94 142.5 -123 c 128,-1,27
 164 -152 164 -152 214 -152 c 0,28,29
 243 -152 243 -152 267.5 -142.5 c 128,-1,30
 292 -133 292 -133 311.5 -118 c 128,-1,31
 331 -103 331 -103 346 -84.5 c 128,-1,32
 361 -66 361 -66 373 -47 c 1,33,-1
 452 -91 l 1,0,1
476 580 m 1,34,-1
 451 458 l 1,35,-1
 303 458 l 1,36,-1
 329 580 l 1,37,-1
 476 580 l 1,34,-1
EndSplineSet
EndChar
StartChar: AE
Encoding: 198 198 136
Width: 956
VWidth: 1473
Flags: W
HStem: 0 77<625 922> 193 80<333 552> 336 76<695 953> 639 77<610 648 744 1062>
Fore
625 77 m 1,0,-1
 938 77 l 1,1,-1
 922 0 l 1,2,-1
 513 0 l 1,3,-1
 552 193 l 1,4,-1
 284 193 l 1,5,-1
 146 0 l 1,6,-1
 29 0 l 1,7,-1
 577 716 l 1,8,-1
 1078 716 l 1,9,-1
 1062 639 l 1,10,-1
 744 639 l 1,11,-1
 695 412 l 1,12,-1
 969 412 l 1,13,-1
 953 336 l 1,14,-1
 679 336 l 1,15,-1
 625 77 l 1,0,-1
570 273 m 1,16,-1
 648 641 l 1,17,-1
 610 641 l 1,18,-1
 333 273 l 1,19,-1
 570 273 l 1,16,-1
EndSplineSet
EndChar
StartChar: Eth
Encoding: 208 208 146
Width: 687
VWidth: 1473
Flags: W
HStem: 0 77<208 457.871> 327 74<55 158 275 454> 639 77<327 570.573>
VStem: 621.5 102<350.838 485.5 485.5 559.401>
Fore
40 327 m 1,0,-1
 55 401 l 1,1,-1
 172 401 l 1,2,-1
 240 716 l 1,3,-1
 507 716 l 2,4,5
 585 716 585 716 633 693 c 128,-1,6
 681 670 681 670 703 623.5 c 128,-1,7
 725 577 725 577 723.5 508 c 128,-1,8
 722 439 722 439 703 348 c 0,9,10
 685 262 685 262 658 196.5 c 128,-1,11
 631 131 631 131 589.5 87.5 c 128,-1,12
 548 44 548 44 490.5 22 c 128,-1,13
 433 0 433 0 355 0 c 2,14,-1
 88 0 l 1,15,-1
 158 327 l 1,16,-1
 40 327 l 1,0,-1
468 401 m 1,17,-1
 454 327 l 1,18,-1
 261 327 l 1,19,-1
 208 77 l 1,20,-1
 371 77 l 2,21,22
 423 77 423 77 459 91.5 c 128,-1,23
 495 106 495 106 521 137.5 c 128,-1,24
 547 169 547 169 565 221 c 128,-1,25
 583 273 583 273 600 348 c 0,26,27
 617 430 617 430 621.5 485.5 c 128,-1,28
 626 541 626 541 613.5 575.5 c 128,-1,29
 601 610 601 610 571.5 624.5 c 128,-1,30
 542 639 542 639 491 639 c 2,31,-1
 327 639 l 1,32,-1
 275 401 l 1,33,-1
 468 401 l 1,17,-1
EndSplineSet
EndChar
StartChar: multiply
Encoding: 215 215 153
Width: 565
VWidth: 1473
Flags: W
Fore
395 311 m 1,0,-1
 555 108 l 1,1,-1
 489 53 l 1,2,-1
 329 256 l 1,3,-1
 82 53 l 1,4,-1
 40 108 l 1,5,-1
 286 311 l 1,6,-1
 127 516 l 1,7,-1
 193 570 l 1,8,-1
 352 365 l 1,9,-1
 600 570 l 1,10,-1
 642 516 l 1,11,-1
 395 311 l 1,0,-1
EndSplineSet
EndChar
StartChar: Oslash
Encoding: 216 216 154
Width: 695
VWidth: 1473
Flags: W
HStem: -9 84<274.048 458.018> 639 81<386.981 553.106> 799 20G<738.462 829>
VStem: 623.5 104<445.227 484.5 484.5 532.311>
Fore
49 -88 m 1,0,-1
 -15 -88 l 1,1,-1
 137 93 l 1,2,3
 116 138 116 138 115.5 201.5 c 128,-1,4
 115 265 115 265 133 349 c 0,5,6
 171 533 171 533 256.5 626.5 c 128,-1,7
 342 720 342 720 499 720 c 0,8,9
 589 720 589 720 642 689 c 1,10,-1
 756 819 l 1,11,-1
 829 819 l 1,12,-1
 685 654 l 1,13,14
 723 607 723 607 727.5 531 c 128,-1,15
 732 455 732 455 710 349 c 0,16,17
 673 177 673 177 587.5 84 c 128,-1,18
 502 -9 502 -9 345 -9 c 0,19,20
 222 -9 222 -9 166 50 c 1,21,-1
 49 -88 l 1,0,-1
362 75 m 0,22,23
 414 75 414 75 452.5 90 c 128,-1,24
 491 105 491 105 519 138 c 128,-1,25
 547 171 547 171 567.5 222.5 c 128,-1,26
 588 274 588 274 604 349 c 0,27,28
 613 393 613 393 617.5 425.5 c 128,-1,29
 622 458 622 458 623.5 484.5 c 128,-1,30
 625 511 625 511 622.5 533 c 128,-1,31
 620 555 620 555 616 579 c 1,32,-1
 234 124 l 1,33,34
 255 99 255 99 282 87 c 128,-1,35
 309 75 309 75 362 75 c 0,22,23
483 639 m 0,36,37
 432 639 432 639 393.5 624.5 c 128,-1,38
 355 610 355 610 326.5 576 c 128,-1,39
 298 542 298 542 277 487 c 128,-1,40
 256 432 256 432 239 349 c 0,41,42
 225 289 225 289 220 244 c 128,-1,43
 215 199 215 199 214 175 c 1,44,-1
 577 617 l 1,45,46
 557 629 557 629 538 634 c 128,-1,47
 519 639 519 639 483 639 c 0,36,37
EndSplineSet
EndChar
StartChar: Thorn
Encoding: 222 222 160
Width: 685
VWidth: 1473
Flags: W
HStem: 0 21G<112 219.211> 190 75<271 496.9> 564 77<351 562.15> 789 20G<278.773 386>
VStem: 625.5 100.5<443.419 483 483 523.487>
Fore
215 0 m 1,0,-1
 112 0 l 1,1,-1
 283 809 l 1,2,-1
 386 809 l 1,3,-1
 351 641 l 1,4,-1
 520 641 l 2,5,6
 592 641 592 641 636.5 624.5 c 128,-1,7
 681 608 681 608 702 579 c 128,-1,8
 723 550 723 550 726 508.5 c 128,-1,9
 729 467 729 467 717 415 c 0,10,11
 707 365 707 365 687 323 c 128,-1,12
 667 281 667 281 632.5 251.5 c 128,-1,13
 598 222 598 222 547 206 c 128,-1,14
 496 190 496 190 424 190 c 2,15,-1
 255 190 l 1,16,-1
 215 0 l 1,0,-1
271 265 m 1,17,-1
 440 265 l 2,18,19
 494 265 494 265 524 274 c 128,-1,20
 554 283 554 283 571 300.5 c 128,-1,21
 588 318 588 318 596 347 c 128,-1,22
 604 376 604 376 613 415 c 256,23,24
 622 455 622 455 625.5 483 c 128,-1,25
 629 511 629 511 619.5 529.5 c 128,-1,26
 610 548 610 548 583.5 556 c 128,-1,27
 557 564 557 564 504 564 c 2,28,-1
 334 564 l 1,29,-1
 271 265 l 1,17,-1
EndSplineSet
EndChar
StartChar: germandbls
Encoding: 223 223 161
Width: 559
VWidth: 1473
Flags: W
HStem: -12 77<300.747 414.041> 330 68<339 378.844> 644 76<341.725 462.516>
Fore
85 0 m 1,0,-1
 196 523 l 2,1,2
 217 619 217 619 275.5 669.5 c 128,-1,3
 334 720 334 720 435 720 c 0,4,5
 520 720 520 720 562.5 670 c 128,-1,6
 605 620 605 620 588 535 c 0,7,8
 563 424 563 424 451 374 c 1,9,10
 522 351 522 351 550.5 306 c 128,-1,11
 579 261 579 261 563 181 c 0,12,13
 539 72 539 72 481 30 c 128,-1,14
 423 -12 423 -12 330 -12 c 0,15,16
 306 -12 306 -12 278 -4.5 c 128,-1,17
 250 3 250 3 234 15 c 1,18,-1
 280 87 l 1,19,20
 295 78 295 78 312.5 71.5 c 128,-1,21
 330 65 330 65 351 65 c 0,22,23
 386 65 386 65 419 90.5 c 128,-1,24
 452 116 452 116 467 187 c 0,25,26
 471 211 471 211 468.5 236 c 128,-1,27
 466 261 466 261 450.5 282 c 128,-1,28
 435 303 435 303 404.5 316.5 c 128,-1,29
 374 330 374 330 324 330 c 1,30,-1
 339 398 l 1,31,32
 374 399 374 399 399 405.5 c 128,-1,33
 424 412 424 412 442 427.5 c 128,-1,34
 460 443 460 443 471 469.5 c 128,-1,35
 482 496 482 496 491 538 c 0,36,37
 498 572 498 572 494.5 592.5 c 128,-1,38
 491 613 491 613 479 624.5 c 128,-1,39
 467 636 467 636 448.5 640 c 128,-1,40
 430 644 430 644 407 644 c 0,41,42
 359 644 359 644 332.5 613.5 c 128,-1,43
 306 583 306 583 295 527 c 2,44,-1
 183 0 l 1,45,-1
 85 0 l 1,0,-1
EndSplineSet
EndChar
StartChar: ae
Encoding: 230 230 168
Width: 917
VWidth: 1473
Flags: W
HStem: -12 69<164.838 287.492 575.587 747.794> 281 70<356.874 445 554 847> 526 68<294.497 459.364 669.529 815.415>
VStem: 852 80.5<365.8 461.645>
Fore
539 281 m 1,0,1
 529 231 529 231 528 190 c 128,-1,2
 527 149 527 149 539.5 119.5 c 128,-1,3
 552 90 552 90 578.5 73.5 c 128,-1,4
 605 57 605 57 650 57 c 0,5,6
 706 57 706 57 748 78.5 c 128,-1,7
 790 100 790 100 835 168 c 1,8,-1
 888 131 l 1,9,10
 837 53 837 53 775 20.5 c 128,-1,11
 713 -12 713 -12 629 -12 c 0,12,13
 561 -12 561 -12 523 17 c 128,-1,14
 485 46 485 46 464 99 c 1,15,16
 432 71 432 71 402.5 50 c 128,-1,17
 373 29 373 29 342.5 15 c 128,-1,18
 312 1 312 1 277.5 -5.5 c 128,-1,19
 243 -12 243 -12 200 -12 c 0,20,21
 166 -12 166 -12 137.5 -1.5 c 128,-1,22
 109 9 109 9 89 30.5 c 128,-1,23
 69 52 69 52 61 83.5 c 128,-1,24
 53 115 53 115 62 156 c 0,25,26
 75 215 75 215 104 253.5 c 128,-1,27
 133 292 133 292 181.5 314 c 128,-1,28
 230 336 230 336 299 345 c 128,-1,29
 368 354 368 354 463 354 c 1,30,-1
 477 423 l 2,31,32
 489 482 489 482 460.5 504 c 128,-1,33
 432 526 432 526 379 526 c 0,34,35
 327 526 327 526 283 498 c 128,-1,36
 239 470 239 470 194 420 c 1,37,-1
 144 463 l 1,38,39
 205 533 205 533 270.5 563.5 c 128,-1,40
 336 594 336 594 396 594 c 0,41,42
 470 594 470 594 507.5 566 c 128,-1,43
 545 538 545 538 554 489 c 1,44,45
 592 533 592 533 640.5 563.5 c 128,-1,46
 689 594 689 594 756 594 c 0,47,48
 826 594 826 594 865.5 570.5 c 128,-1,49
 905 547 905 547 920 505 c 128,-1,50
 935 463 935 463 932.5 406 c 128,-1,51
 930 349 930 349 915 281 c 1,52,-1
 539 281 l 1,0,1
445 284 m 1,53,54
 348 284 348 284 292 274.5 c 128,-1,55
 236 265 236 265 207 248 c 128,-1,56
 178 231 178 231 168.5 207.5 c 128,-1,57
 159 184 159 184 153 158 c 0,58,59
 133 57 133 57 227 57 c 0,60,61
 273 57 273 57 319 75.5 c 128,-1,62
 365 94 365 94 412 138 c 1,63,-1
 445 284 l 1,53,54
847 351 m 1,64,65
 852 395 852 395 852 428 c 128,-1,66
 852 461 852 461 841.5 483 c 128,-1,67
 831 505 831 505 806.5 515.5 c 128,-1,68
 782 526 782 526 738 526 c 0,69,70
 706 526 706 526 675.5 511 c 128,-1,71
 645 496 645 496 621 472 c 128,-1,72
 597 448 597 448 579 416.5 c 128,-1,73
 561 385 561 385 554 351 c 1,74,-1
 847 351 l 1,64,65
EndSplineSet
EndChar
StartChar: eth
Encoding: 240 240 178
Width: 530
VWidth: 1473
Flags: W
HStem: -12 69<210.963 351.969> 438 67<283.552 413.377> 700 20G<321.138 386.5 527 579.455>
Fore
358 438 m 256,0,1
 318 438 318 438 290 424 c 128,-1,2
 262 410 262 410 243 384.5 c 128,-1,3
 224 359 224 359 210.5 324.5 c 128,-1,4
 197 290 197 290 189 247 c 256,5,6
 180 205 180 205 177.5 169.5 c 128,-1,7
 175 134 175 134 184 109 c 128,-1,8
 193 84 193 84 215 70.5 c 128,-1,9
 237 57 237 57 277 57 c 256,10,11
 317 57 317 57 345 70.5 c 128,-1,12
 373 84 373 84 392 109 c 128,-1,13
 411 134 411 134 423.5 169.5 c 128,-1,14
 436 205 436 205 445 247 c 256,15,16
 454 290 454 290 457 324.5 c 128,-1,17
 460 359 460 359 451 384.5 c 128,-1,18
 442 410 442 410 420 424 c 128,-1,19
 398 438 398 438 358 438 c 256,0,1
377 720 m 1,20,21
 396 706 396 706 412.5 691 c 128,-1,22
 429 676 429 676 443 660 c 1,23,-1
 569 720 l 1,24,-1
 592 676 l 1,25,-1
 476 620 l 1,26,27
 510 575 510 575 528.5 530.5 c 128,-1,28
 547 486 547 486 553.5 441 c 128,-1,29
 560 396 560 396 556 348.5 c 128,-1,30
 552 301 552 301 541 247 c 0,31,32
 516 128 516 128 446.5 58 c 128,-1,33
 377 -12 377 -12 262 -12 c 256,34,35
 147 -12 147 -12 107.5 58 c 128,-1,36
 68 128 68 128 93 247 c 256,37,38
 118 367 118 367 187 436 c 128,-1,39
 256 505 256 505 371 505 c 0,40,41
 405 505 405 505 423.5 498.5 c 128,-1,42
 442 492 442 492 463 480 c 1,43,-1
 466 483 l 1,44,45
 457 511 457 511 436 539 c 128,-1,46
 415 567 415 567 398 592 c 1,47,-1
 271 532 l 1,48,-1
 249 576 l 1,49,-1
 364 631 l 1,50,51
 339 664 339 664 296 691 c 1,52,-1
 377 720 l 1,20,21
EndSplineSet
EndChar
StartChar: divide
Encoding: 247 247 185
Width: 565
VWidth: 1473
Flags: W
HStem: 21 128<265.204 334.765> 264 81<110 583> 460 128<357.72 428.796>
CounterMasks: 1 e0
Fore
94 264 m 1,0,-1
 110 345 l 1,1,-1
 600 345 l 1,2,-1
 583 264 l 1,3,-1
 94 264 l 1,0,-1
407 588 m 256,4,5
 433 588 433 588 448.5 569 c 128,-1,6
 464 550 464 550 458 524 c 128,-1,7
 452 498 452 498 429.5 479 c 128,-1,8
 407 460 407 460 380 460 c 256,9,10
 354 460 354 460 338.5 479 c 128,-1,11
 323 498 323 498 329 524 c 0,12,13
 334 550 334 550 357 569 c 128,-1,14
 380 588 380 588 407 588 c 256,4,5
314 149 m 256,15,16
 340 149 340 149 355.5 129.5 c 128,-1,17
 371 110 371 110 365 84 c 0,18,19
 359 59 359 59 335.5 40 c 128,-1,20
 312 21 312 21 286 21 c 256,21,22
 259 21 259 21 244.5 40 c 128,-1,23
 230 59 230 59 236 84 c 0,24,25
 242 110 242 110 264.5 129.5 c 128,-1,26
 287 149 287 149 314 149 c 256,15,16
EndSplineSet
EndChar
StartChar: oslash
Encoding: 248 248 186
Width: 559
VWidth: 1473
Flags: W
HStem: -12 69<235.223 381.836> 526 68<301.721 446.722>
VStem: 501 94.5<386.67 453.197>
Fore
476 495 m 1,0,1
 460 511 460 511 442 518.5 c 128,-1,2
 424 526 424 526 390 526 c 0,3,4
 340 526 340 526 307.5 511 c 128,-1,5
 275 496 275 496 255.5 467.5 c 128,-1,6
 236 439 236 439 223.5 395 c 128,-1,7
 211 351 211 351 199 292 c 0,8,9
 187 237 187 237 184 201.5 c 128,-1,10
 181 166 181 166 178 134 c 1,11,-1
 476 495 l 1,0,1
202 91 m 1,12,13
 218 75 218 75 236.5 66 c 128,-1,14
 255 57 255 57 292 57 c 0,15,16
 343 57 343 57 375 71 c 128,-1,17
 407 85 407 85 426.5 114.5 c 128,-1,18
 446 144 446 144 458.5 188.5 c 128,-1,19
 471 233 471 233 485 292 c 0,20,21
 496 348 496 348 498.5 385.5 c 128,-1,22
 501 423 501 423 501 454 c 1,23,-1
 202 91 l 1,12,13
44 -88 m 1,24,-1
 -15 -88 l 1,25,-1
 110 62 l 1,26,27
 88 100 88 100 87.5 158.5 c 128,-1,28
 87 217 87 217 103 292 c 0,29,30
 118 362 118 362 141.5 418 c 128,-1,31
 165 474 165 474 201 513 c 128,-1,32
 237 552 237 552 287 573 c 128,-1,33
 337 594 337 594 405 594 c 0,34,35
 489 594 489 594 536 560 c 1,36,-1
 645 687 l 1,37,-1
 706 687 l 1,38,-1
 567 526 l 1,39,40
 594 488 594 488 595.5 428 c 128,-1,41
 597 368 597 368 580 292 c 0,42,43
 566 221 566 221 541.5 165 c 128,-1,44
 517 109 517 109 481.5 69 c 128,-1,45
 446 29 446 29 396 8.5 c 128,-1,46
 346 -12 346 -12 277 -12 c 0,47,48
 230 -12 230 -12 197 -2.5 c 128,-1,49
 164 7 164 7 140 25 c 1,50,-1
 44 -88 l 1,24,-1
EndSplineSet
EndChar
StartChar: thorn
Encoding: 254 254 192
Width: 623
VWidth: 1473
Flags: W
HStem: -206 21G<59 160.247> -12 69<320.624 441.295> 526 68<392.357 536.662> 789 20G<269.764 371>
Fore
274 809 m 1,0,-1
 371 809 l 1,1,-1
 312 529 l 1,2,-1
 314 529 l 1,3,4
 345 551 345 551 392 572.5 c 128,-1,5
 439 594 439 594 496 594 c 0,6,7
 548 594 548 594 584 579 c 128,-1,8
 620 564 620 564 639.5 529 c 128,-1,9
 659 494 659 494 660 435 c 128,-1,10
 661 376 661 376 642 289 c 0,11,12
 623 196 623 196 594.5 138 c 128,-1,13
 566 80 566 80 531 46.5 c 128,-1,14
 496 13 496 13 457 0.5 c 128,-1,15
 418 -12 418 -12 379 -12 c 0,16,17
 331 -12 331 -12 283.5 3 c 128,-1,18
 236 18 236 18 211 53 c 1,19,-1
 156 -206 l 1,20,-1
 59 -206 l 1,21,-1
 274 809 l 1,0,-1
231 147 m 1,22,23
 236 133 236 133 250 116.5 c 128,-1,24
 264 100 264 100 283.5 87 c 128,-1,25
 303 74 303 74 327 65.5 c 128,-1,26
 351 57 351 57 376 57 c 0,27,28
 496 57 496 57 550 299 c 0,29,30
 558 345 558 345 562.5 386 c 128,-1,31
 567 427 567 427 561 458 c 128,-1,32
 555 489 555 489 535.5 507.5 c 128,-1,33
 516 526 516 526 477 526 c 0,34,35
 421 526 421 526 370.5 497 c 128,-1,36
 320 468 320 468 292 435 c 1,37,-1
 231 147 l 1,22,23
EndSplineSet
EndChar
StartChar: dotlessi
Encoding: 305 305 194
Width: 248
VWidth: 1473
Flags: W
HStem: 0 21G<77 176.227> 562 20G<194.808 295>
VStem: 77 218<0 582 1.53064e-18 1.53064e-18>
Fore
172 0 m 1,0,-1
 77 0 l 1,1,-1
 199 582 l 1,2,-1
 295 582 l 1,3,-1
 172 0 l 1,0,-1
EndSplineSet
EndChar
StartChar: Lslash
Encoding: 321 321 195
Width: 559
VWidth: 1473
Flags: W
HStem: 0 75<230 547> 789 20G<278.745 386>
VStem: 82 479<75 309 817.904 1135.87>
Fore
298 393 m 1,0,-1
 230 75 l 1,1,-1
 561 75 l 1,2,-1
 547 0 l 1,3,-1
 112 0 l 1,4,-1
 186 348 l 1,5,-1
 82 309 l 1,6,-1
 100 395 l 1,7,-1
 203 433 l 1,8,-1
 283 809 l 1,9,-1
 386 809 l 1,10,-1
 315 477 l 1,11,-1
 523 554 l 1,12,-1
 505 468 l 1,13,-1
 298 393 l 1,0,-1
EndSplineSet
EndChar
StartChar: lslash
Encoding: 322 322 196
Width: 278
VWidth: 1473
Flags: W
HStem: 0 21G<91 191.224> 789 20G<257.824 358>
VStem: 68 319<312 526 288.276 312>
Fore
187 0 m 1,0,-1
 91 0 l 1,1,-1
 166 359 l 1,2,-1
 68 312 l 1,3,-1
 85 399 l 1,4,-1
 186 445 l 1,5,-1
 262 809 l 1,6,-1
 358 809 l 1,7,-1
 289 480 l 1,8,-1
 387 526 l 1,9,-1
 370 440 l 1,10,-1
 270 393 l 1,11,-1
 187 0 l 1,0,-1
EndSplineSet
EndChar
StartChar: OE
Encoding: 338 338 197
Width: 969
VWidth: 1473
Flags: W
HStem: -9 83<268.912 409.709 401.794 417.624 417.624 450 460.5 518.368> 0 77<638 935> 336 76<709 966> 639 77<386.739 553.168 545.15 561.187 757 1075>
Fore
651 625 m 1,0,1
 625 631 625 631 577.5 636 c 128,-1,2
 530 641 530 641 483 641 c 0,3,4
 432 641 432 641 393 626 c 128,-1,5
 354 611 354 611 325 576.5 c 128,-1,6
 296 542 296 542 274.5 487 c 128,-1,7
 253 432 253 432 236 349 c 0,8,9
 203 200 203 200 231 137 c 128,-1,10
 259 74 259 74 362 74 c 0,11,12
 410 74 410 74 460.5 79.5 c 128,-1,13
 511 85 511 85 538 96 c 1,14,-1
 651 625 l 1,0,1
1075 639 m 1,15,-1
 757 639 l 1,16,-1
 709 412 l 1,17,-1
 983 412 l 1,18,-1
 966 336 l 1,19,-1
 692 336 l 1,20,-1
 638 77 l 1,21,-1
 952 77 l 1,22,-1
 935 0 l 1,23,-1
 519 0 l 2,24,25
 499 0 499 0 450 -4.5 c 128,-1,26
 401 -9 401 -9 345 -9 c 0,27,28
 189 -9 189 -9 142.5 84 c 128,-1,29
 96 177 96 177 133 349 c 0,30,31
 171 533 171 533 256.5 626.5 c 128,-1,32
 342 720 342 720 499 720 c 0,33,34
 542 720 542 720 591.5 718 c 128,-1,35
 641 716 641 716 670 716 c 2,36,-1
 1092 716 l 1,37,-1
 1075 639 l 1,15,-1
EndSplineSet
EndChar
StartChar: oe
Encoding: 339 339 198
Width: 932
VWidth: 1473
Flags: W
HStem: -12 77<605.207 731.166> -12 69<217.925 353.666> 281 70<592 863> 526 68<310.934 465.463 718.326 845.687>
VStem: 86 97<126.09 146.5 146.5 212.125>
Fore
199 292 m 0,0,1
 186 233 186 233 183 188.5 c 128,-1,2
 180 144 180 144 189.5 114.5 c 128,-1,3
 199 85 199 85 223 71 c 128,-1,4
 247 57 247 57 292 57 c 0,5,6
 373 57 373 57 415.5 114.5 c 128,-1,7
 458 172 458 172 483 292 c 256,8,9
 508 411 508 411 489.5 468.5 c 128,-1,10
 471 526 471 526 390 526 c 0,11,12
 346 526 346 526 316 511 c 128,-1,13
 286 496 286 496 264 467.5 c 128,-1,14
 242 439 242 439 226.5 395 c 128,-1,15
 211 351 211 351 199 292 c 0,0,1
577 281 m 1,16,17
 557 181 557 181 580 123 c 128,-1,18
 603 65 603 65 673 65 c 0,19,20
 707 65 707 65 754 85.5 c 128,-1,21
 801 106 801 106 859 174 c 1,22,-1
 919 131 l 1,23,24
 888 93 888 93 858.5 65.5 c 128,-1,25
 829 38 829 38 798.5 21 c 128,-1,26
 768 4 768 4 734 -4 c 128,-1,27
 700 -12 700 -12 659 -12 c 0,28,29
 588 -12 588 -12 541 13 c 128,-1,30
 494 38 494 38 486 102 c 1,31,32
 476 80 476 80 460.5 60 c 128,-1,33
 445 40 445 40 420.5 23.5 c 128,-1,34
 396 7 396 7 361.5 -2.5 c 128,-1,35
 327 -12 327 -12 277 -12 c 0,36,37
 217 -12 217 -12 175 3 c 128,-1,38
 133 18 133 18 110.5 53 c 128,-1,39
 88 88 88 88 86 146.5 c 128,-1,40
 84 205 84 205 103 292 c 0,41,42
 136 443 136 443 204.5 518.5 c 128,-1,43
 273 594 273 594 405 594 c 0,44,45
 492 594 492 594 529.5 559 c 128,-1,46
 567 524 567 524 569 482 c 1,47,48
 582 504 582 504 599 524.5 c 128,-1,49
 616 545 616 545 641.5 560.5 c 128,-1,50
 667 576 667 576 704 585 c 128,-1,51
 741 594 741 594 793 594 c 0,52,53
 909 594 909 594 944.5 521.5 c 128,-1,54
 980 449 980 449 944 281 c 1,55,-1
 577 281 l 1,16,17
863 351 m 1,56,57
 882 440 882 440 861.5 483 c 128,-1,58
 841 526 841 526 776 526 c 0,59,60
 731 526 731 526 700.5 513.5 c 128,-1,61
 670 501 670 501 650.5 478 c 128,-1,62
 631 455 631 455 617.5 422.5 c 128,-1,63
 604 390 604 390 592 351 c 1,64,-1
 863 351 l 1,56,57
EndSplineSet
EndChar
StartChar: florin
Encoding: 402 402 204
Width: 564
VWidth: 1473
Flags: W
HStem: -196 80<21.2622 40 24.3986 97.4276> 408 66<196 327 451 566> 716 82<562.038 659.726>
Fore
566 408 m 1,0,-1
 429 408 l 1,1,-1
 278 -13 l 2,2,3
 264 -53 264 -53 243 -87 c 128,-1,4
 222 -121 222 -121 192 -146 c 128,-1,5
 162 -171 162 -171 122 -185.5 c 128,-1,6
 82 -200 82 -200 29 -200 c 0,7,8
 18 -200 18 -200 8.5 -199.5 c 128,-1,9
 -1 -199 -1 -199 -12 -196 c 0,10,11
 -15 -194 -15 -194 -18.5 -190.5 c 128,-1,12
 -22 -187 -22 -187 -21.5 -178 c 128,-1,13
 -21 -169 -21 -169 -12.5 -153 c 128,-1,14
 -4 -137 -4 -137 15 -110 c 1,15,16
 22 -113 22 -113 31 -116 c 128,-1,17
 40 -119 40 -119 49 -119 c 0,18,19
 74 -119 74 -119 94.5 -110.5 c 128,-1,20
 115 -102 115 -102 132 -82 c 128,-1,21
 149 -62 149 -62 165 -31.5 c 128,-1,22
 181 -1 181 -1 197 43 c 2,23,-1
 327 408 l 1,24,-1
 181 408 l 1,25,-1
 196 474 l 1,26,-1
 349 474 l 1,27,28
 364 519 364 519 387 575 c 128,-1,29
 410 631 410 631 443 681 c 128,-1,30
 476 731 476 731 521.5 764.5 c 128,-1,31
 567 798 567 798 626 798 c 0,32,33
 651 798 651 798 669 795.5 c 128,-1,34
 687 793 687 793 701 790 c 1,35,36
 704 784 704 784 705 768.5 c 128,-1,37
 706 753 706 753 702 739 c 128,-1,38
 698 725 698 725 691.5 714.5 c 128,-1,39
 685 704 685 704 675 706 c 1,40,41
 667 709 667 709 651.5 712.5 c 128,-1,42
 636 716 636 716 620 716 c 0,43,44
 586 716 586 716 561 694 c 128,-1,45
 536 672 536 672 517 637.5 c 128,-1,46
 498 603 498 603 482.5 560 c 128,-1,47
 467 517 467 517 451 474 c 1,48,-1
 580 474 l 1,49,-1
 566 408 l 1,0,-1
EndSplineSet
EndChar
StartChar: circumflex
Encoding: 710 710 205
Width: 248
VWidth: 1473
Flags: W
HStem: 647 154<256 427 256 256>
VStem: 94 333<647 647 647 647>
Fore
427 647 m 1,0,-1
 337 647 l 1,1,-1
 283 745 l 1,2,-1
 184 647 l 1,3,-1
 94 647 l 1,4,-1
 256 801 l 1,5,-1
 331 801 l 1,6,-1
 427 647 l 1,0,-1
EndSplineSet
EndChar
StartChar: caron
Encoding: 711 711 206
Width: 248
VWidth: 1473
Flags: W
HStem: 647 154<224 231 127 299 127 127>
VStem: 127 333<801 801 801 973>
Fore
127 801 m 1,0,-1
 231 801 l 1,1,-1
 274 703 l 1,2,-1
 355 801 l 1,3,-1
 460 801 l 1,4,-1
 299 647 l 1,5,-1
 224 647 l 1,6,-1
 127 801 l 1,0,-1
EndSplineSet
EndChar
StartChar: breve
Encoding: 728 728 207
Width: 248
VWidth: 1473
Flags: W
HStem: 653 75<219.382 346.195> 774 20G<126.5 211 369 454>
VStem: 374 80<738.391 794>
Fore
280 728 m 0,0,1
 323 728 323 728 343.5 744 c 128,-1,2
 364 760 364 760 374 794 c 1,3,-1
 454 794 l 1,4,5
 436 728 436 728 390.5 690.5 c 128,-1,6
 345 653 345 653 264 653 c 0,7,8
 181 653 181 653 151.5 690.5 c 128,-1,9
 122 728 122 728 131 794 c 1,10,-1
 211 794 l 1,11,12
 208 760 208 760 221 744 c 128,-1,13
 234 728 234 728 280 728 c 0,0,1
EndSplineSet
EndChar
StartChar: dotaccent
Encoding: 729 729 208
Width: 248
VWidth: 1473
Flags: W
HStem: 659 106<234 315 212 337 234 234>
Fore
337 765 m 1,0,-1
 315 659 l 1,1,-1
 212 659 l 1,2,-1
 234 765 l 1,3,-1
 337 765 l 1,0,-1
EndSplineSet
EndChar
StartChar: ring
Encoding: 730 730 209
Width: 248
VWidth: 1473
Flags: W
HStem: 642 59<236.539 317.533> 807 59<251.708 332.603>
VStem: 172 224<707 716.5 792.5 801 754 754 754 754>
Fore
308 866 m 0,0,1
 352 866 352 866 379.5 833.5 c 128,-1,2
 407 801 407 801 396 754 c 256,3,4
 386 707 386 707 345.5 674.5 c 128,-1,5
 305 642 305 642 261 642 c 0,6,7
 215 642 215 642 188.5 674.5 c 128,-1,8
 162 707 162 707 172 754 c 256,9,10
 183 801 183 801 222.5 833.5 c 128,-1,11
 262 866 262 866 308 866 c 0,0,1
296 807 m 256,12,13
 274 807 274 807 255 792.5 c 128,-1,14
 236 778 236 778 230 754 c 0,15,16
 225 732 225 732 238.5 716.5 c 128,-1,17
 252 701 252 701 274 701 c 256,18,19
 296 701 296 701 314.5 716.5 c 128,-1,20
 333 732 333 732 337 754 c 0,21,22
 343 778 343 778 330.5 792.5 c 128,-1,23
 318 807 318 807 296 807 c 256,12,13
EndSplineSet
EndChar
StartChar: ogonek
Encoding: 731 731 210
Width: 248
VWidth: 1473
Flags: W
HStem: -231 70<37.8383 88.1304 74.7325 101.528 101.528 123>
VStem: -27 274<-141 35 -141 -92.1401>
Fore
239 -3 m 1,0,1
 214 -10 214 -10 183.5 -22.5 c 128,-1,2
 153 -35 153 -35 126.5 -51.5 c 128,-1,3
 100 -68 100 -68 81 -87 c 128,-1,4
 62 -106 62 -106 57 -125 c 0,5,6
 55 -138 55 -138 60.5 -149.5 c 128,-1,7
 66 -161 66 -161 91 -161 c 0,8,9
 105 -161 105 -161 123 -155 c 128,-1,10
 141 -149 141 -149 159.5 -141 c 128,-1,11
 178 -133 178 -133 196 -124 c 128,-1,12
 214 -115 214 -115 227 -109 c 1,13,-1
 230 -172 l 1,14,15
 212 -183 212 -183 190 -193 c 128,-1,16
 168 -203 168 -203 145 -212 c 128,-1,17
 122 -221 122 -221 99.5 -226 c 128,-1,18
 77 -231 77 -231 57 -231 c 0,19,20
 15 -231 15 -231 -11 -211.5 c 128,-1,21
 -37 -192 -37 -192 -27 -141 c 0,22,23
 -18 -100 -18 -100 14 -70.5 c 128,-1,24
 46 -41 46 -41 87 -21 c 128,-1,25
 128 -1 128 -1 171.5 12 c 128,-1,26
 215 25 215 25 247 35 c 1,27,-1
 239 -3 l 1,0,1
EndSplineSet
EndChar
StartChar: tilde
Encoding: 732 732 211
Width: 248
VWidth: 1473
Flags: W
HStem: 664 70<323.944 375.931> 715 69<180.603 230.544>
VStem: 88 378<659 788 659 659>
Fore
88 659 m 1,0,1
 94 679 94 679 106 700.5 c 128,-1,2
 118 722 118 722 135 741 c 128,-1,3
 152 760 152 760 172 772 c 128,-1,4
 192 784 192 784 214 784 c 0,5,6
 234 784 234 784 252 776 c 128,-1,7
 270 768 270 768 286.5 759 c 128,-1,8
 303 750 303 750 318.5 742 c 128,-1,9
 334 734 334 734 348 734 c 0,10,11
 371 734 371 734 386.5 751 c 128,-1,12
 402 768 402 768 410 788 c 1,13,-1
 466 788 l 1,14,15
 458 766 458 766 447 744 c 128,-1,16
 436 722 436 722 420.5 704.5 c 128,-1,17
 405 687 405 687 385 675.5 c 128,-1,18
 365 664 365 664 340 664 c 0,19,20
 323 664 323 664 305 672.5 c 128,-1,21
 287 681 287 681 269.5 689.5 c 128,-1,22
 252 698 252 698 236.5 706.5 c 128,-1,23
 221 715 221 715 209 715 c 0,24,25
 186 715 186 715 169.5 697 c 128,-1,26
 153 679 153 679 146 659 c 1,27,-1
 88 659 l 1,0,1
EndSplineSet
EndChar
StartChar: hungarumlaut
Encoding: 733 733 212
Width: 248
VWidth: 1473
Flags: W
HStem: 647 154<200 373 373 373>
Fore
373 801 m 1,0,-1
 200 647 l 1,1,-1
 128 647 l 1,2,-1
 256 801 l 1,3,-1
 373 801 l 1,0,-1
538 801 m 1,4,-1
 336 647 l 1,5,-1
 264 647 l 1,6,-1
 421 801 l 1,7,-1
 538 801 l 1,4,-1
EndSplineSet
EndChar
StartChar: uni0E01
Encoding: 3585 3585 214
Width: 648
VWidth: 1473
Flags: W
HStem: 0 21G<97 190.13 479 571.196> 532 66<381.493 516.477>
VStem: 479 88<17.8448 374.787> 568 84<420.648 456.5 456.5 489.629>
Fore
467 598 m 0,0,1
 517 598 517 598 557 587.5 c 128,-1,2
 597 577 597 577 621 550.5 c 128,-1,3
 645 524 645 524 652 479.5 c 128,-1,4
 659 435 659 435 644 367 c 2,5,-1
 567 0 l 1,6,-1
 479 0 l 1,7,-1
 555 367 l 2,8,9
 567 424 567 424 568 456.5 c 128,-1,10
 569 489 569 489 557 506 c 128,-1,11
 545 523 545 523 519.5 527.5 c 128,-1,12
 494 532 494 532 452 532 c 0,13,14
 415 532 415 532 380 525.5 c 128,-1,15
 345 519 345 519 317.5 509 c 128,-1,16
 290 499 290 499 272.5 489.5 c 128,-1,17
 255 480 255 480 253 473 c 0,18,19
 252 464 252 464 262.5 445.5 c 128,-1,20
 273 427 273 427 281 427 c 0,21,22
 293 427 293 427 308.5 436.5 c 128,-1,23
 324 446 324 446 337 446 c 0,24,25
 342 446 342 446 348 436.5 c 128,-1,26
 354 427 354 427 358 415.5 c 128,-1,27
 362 404 362 404 363.5 394.5 c 128,-1,28
 365 385 365 385 359 385 c 0,29,30
 317 385 317 385 286 357.5 c 128,-1,31
 255 330 255 330 237 247 c 2,32,-1
 186 0 l 1,33,-1
 97 0 l 1,34,-1
 152 262 l 2,35,36
 164 318 164 318 180.5 344 c 128,-1,37
 197 370 197 370 227 395 c 1,38,39
 222 398 222 398 211 406.5 c 128,-1,40
 200 415 200 415 189 426.5 c 128,-1,41
 178 438 178 438 171 449.5 c 128,-1,42
 164 461 164 461 165 470 c 0,43,44
 168 483 168 483 196 505 c 128,-1,45
 224 527 224 527 266.5 548 c 128,-1,46
 309 569 309 569 361.5 583.5 c 128,-1,47
 414 598 414 598 467 598 c 0,0,1
EndSplineSet
EndChar
StartChar: uni0E02
Encoding: 3586 3586 215
Width: 617
VWidth: 1473
Flags: W
HStem: -9 66<257.504 435.805> 367 53<219.418 272.428> 532 63<296.151 379.803>
Fore
327 508 m 1,0,-1
 345 466 l 1,1,2
 334 421 334 421 304 394 c 128,-1,3
 274 367 274 367 230 367 c 256,4,5
 186 367 186 367 167.5 395.5 c 128,-1,6
 149 424 149 424 158 467 c 0,7,8
 164 496 164 496 181.5 520 c 128,-1,9
 199 544 199 544 224 560.5 c 128,-1,10
 249 577 249 577 278.5 586 c 128,-1,11
 308 595 308 595 336 595 c 0,12,13
 365 595 365 595 391 586 c 128,-1,14
 417 577 417 577 434.5 559.5 c 128,-1,15
 452 542 452 542 459.5 515 c 128,-1,16
 467 488 467 488 460 451 c 0,17,18
 449 404 449 404 418 372 c 128,-1,19
 387 340 387 340 353.5 315 c 128,-1,20
 320 290 320 290 291 266 c 128,-1,21
 262 242 262 242 255 209 c 2,22,-1
 243 159 l 2,23,24
 231 103 231 103 256 80 c 128,-1,25
 281 57 281 57 337 57 c 0,26,27
 405 57 405 57 437.5 79.5 c 128,-1,28
 470 102 470 102 485 166 c 0,29,30
 489 192 489 192 494 222.5 c 128,-1,31
 499 253 499 253 507 290 c 2,32,-1
 572 589 l 1,33,-1
 661 589 l 1,34,-1
 573 174 l 2,35,36
 552 77 552 77 483 34 c 128,-1,37
 414 -9 414 -9 321 -9 c 0,38,39
 281 -9 281 -9 246.5 0 c 128,-1,40
 212 9 212 9 188.5 28 c 128,-1,41
 165 47 165 47 154.5 77.5 c 128,-1,42
 144 108 144 108 153 149 c 2,43,-1
 165 206 l 2,44,45
 174 250 174 250 207 279.5 c 128,-1,46
 240 309 240 309 277.5 334 c 128,-1,47
 315 359 315 359 347 385.5 c 128,-1,48
 379 412 379 412 387 451 c 0,49,50
 396 494 396 494 379 513 c 128,-1,51
 362 532 362 532 317 532 c 0,52,53
 306 532 306 532 290.5 529.5 c 128,-1,54
 275 527 275 527 260.5 520.5 c 128,-1,55
 246 514 246 514 234 501 c 128,-1,56
 222 488 222 488 218 467 c 0,57,58
 214 448 214 448 220.5 434 c 128,-1,59
 227 420 227 420 245 420 c 0,60,61
 261 420 261 420 274 431 c 128,-1,62
 287 442 287 442 293 466 c 2,63,-1
 302 508 l 1,64,-1
 327 508 l 1,0,-1
EndSplineSet
EndChar
StartChar: uni0E03
Encoding: 3587 3587 216
Width: 637
VWidth: 1473
Flags: W
HStem: -9 66<284.671 456.805> 390 52<206.603 264.161> 542 52<222.282 286.872> 580 20<392.932 423.5 587.652 682>
Fore
329 476 m 1,0,1
 314 494 314 494 306 507 c 128,-1,2
 298 520 298 520 291 527.5 c 128,-1,3
 284 535 284 535 277 538.5 c 128,-1,4
 270 542 270 542 258 542 c 0,5,6
 239 542 239 542 225 528 c 128,-1,7
 211 514 211 514 206 494 c 0,8,9
 200 471 200 471 207.5 456.5 c 128,-1,10
 215 442 215 442 237 442 c 0,11,12
 246 442 246 442 259.5 448.5 c 128,-1,13
 273 455 273 455 293 473 c 1,14,-1
 303 455 l 1,15,-1
 287 421 l 1,16,17
 255 390 255 390 225 390 c 0,18,19
 183 390 183 390 164.5 419.5 c 128,-1,20
 146 449 146 449 155 492 c 0,21,22
 166 544 166 544 200 569 c 128,-1,23
 234 594 234 594 268 594 c 0,24,25
 287 594 287 594 301 585.5 c 128,-1,26
 315 577 315 577 326 567 c 0,27,28
 337 555 337 555 346 541 c 1,29,-1
 417 600 l 1,30,31
 430 594 430 594 442.5 580 c 128,-1,32
 455 566 455 566 464 548 c 128,-1,33
 473 530 473 530 476.5 509.5 c 128,-1,34
 480 489 480 489 476 468 c 0,35,36
 463 405 463 405 433.5 373.5 c 128,-1,37
 404 342 404 342 372 320.5 c 128,-1,38
 340 299 340 299 312 277.5 c 128,-1,39
 284 256 284 256 275 214 c 2,40,-1
 261 144 l 2,41,42
 249 88 249 88 275.5 72.5 c 128,-1,43
 302 57 302 57 358 57 c 0,44,45
 426 57 426 57 458.5 79.5 c 128,-1,46
 491 102 491 102 505 166 c 0,47,48
 510 192 510 192 515 222.5 c 128,-1,49
 520 253 520 253 527 290 c 2,50,-1
 592 589 l 1,51,-1
 682 589 l 1,52,-1
 594 174 l 2,53,54
 573 77 573 77 504 34 c 128,-1,55
 435 -9 435 -9 342 -9 c 0,56,57
 302 -9 302 -9 267.5 -2.5 c 128,-1,58
 233 4 233 4 208.5 21 c 128,-1,59
 184 38 184 38 173 65.5 c 128,-1,60
 162 93 162 93 171 134 c 2,61,-1
 187 214 l 2,62,63
 194 249 194 249 212 272.5 c 128,-1,64
 230 296 230 296 252 313 c 128,-1,65
 274 330 274 330 298.5 343.5 c 128,-1,66
 323 357 323 357 344 373 c 128,-1,67
 365 389 365 389 382 411 c 128,-1,68
 399 433 399 433 407 466 c 0,69,70
 412 494 412 494 408.5 505.5 c 128,-1,71
 405 517 405 517 399 524 c 1,72,-1
 329 476 l 1,0,1
EndSplineSet
EndChar
StartChar: uni0E04
Encoding: 3588 3588 217
Width: 655
VWidth: 1473
Flags: W
HStem: 0 21G<100 191.5 489 579.195> 202 51<364.673 437.203> 355 57<365.056 453.137> 532 66<344.532 514.969>
VStem: 96 87<13.5362 90.5333>
Fore
560 333 m 2,0,1
 572 390 572 390 572 428.5 c 128,-1,2
 572 467 572 467 558 490 c 128,-1,3
 544 513 544 513 516 522.5 c 128,-1,4
 488 532 488 532 443 532 c 0,5,6
 365 532 365 532 307.5 493 c 128,-1,7
 250 454 250 454 230 357 c 0,8,9
 222 326 222 326 220 296.5 c 128,-1,10
 218 267 218 267 222 245 c 1,11,12
 237 277 237 277 259 307 c 128,-1,13
 281 337 281 337 308.5 361 c 128,-1,14
 336 385 336 385 367 398.5 c 128,-1,15
 398 412 398 412 429 412 c 0,16,17
 474 412 474 412 498 384.5 c 128,-1,18
 522 357 522 357 511 305 c 0,19,20
 502 262 502 262 466 232 c 128,-1,21
 430 202 430 202 387 202 c 0,22,23
 346 202 346 202 323 231 c 1,24,-1
 326 277 l 1,25,-1
 345 295 l 1,26,-1
 367 268 l 2,27,28
 377 253 377 253 396 253 c 0,29,30
 418 253 418 253 434.5 268.5 c 128,-1,31
 451 284 451 284 457 306 c 0,32,33
 461 327 461 327 451.5 341 c 128,-1,34
 442 355 442 355 417 355 c 0,35,36
 389 355 389 355 356 328.5 c 128,-1,37
 323 302 323 302 290.5 255 c 128,-1,38
 258 208 258 208 229 143 c 128,-1,39
 200 78 200 78 183 0 c 1,40,-1
 103 0 l 2,41,42
 97 0 97 0 95 3 c 128,-1,43
 93 6 93 6 96 21 c 0,44,45
 103 47 103 47 123.5 88.5 c 128,-1,46
 144 130 144 130 161 156 c 0,47,48
 175 180 175 180 168 190 c 0,49,50
 152 218 152 218 144.5 258.5 c 128,-1,51
 137 299 137 299 149 357 c 256,52,53
 161 414 161 414 190.5 459 c 128,-1,54
 220 504 220 504 260.5 535 c 128,-1,55
 301 566 301 566 350 582 c 128,-1,56
 399 598 399 598 451 598 c 0,57,58
 592 598 592 598 633.5 537 c 128,-1,59
 675 476 675 476 648 348 c 2,60,-1
 575 0 l 1,61,-1
 489 0 l 1,62,-1
 560 333 l 2,0,1
EndSplineSet
EndChar
StartChar: uni0E05
Encoding: 3589 3589 218
Width: 655
VWidth: 1473
Flags: W
HStem: 0 21G<100 191.5 489 579.195> 202 51<364.673 437.203> 355 57<365.056 453.137> 578 20G<319.5 388.774 514.231 589>
VStem: 96 87<13.5362 90.5333>
Fore
222 245 m 1,0,1
 237 277 237 277 259 307 c 128,-1,2
 281 337 281 337 308.5 361 c 128,-1,3
 336 385 336 385 367 398.5 c 128,-1,4
 398 412 398 412 429 412 c 0,5,6
 474 412 474 412 498 384.5 c 128,-1,7
 522 357 522 357 511 305 c 0,8,9
 502 262 502 262 466 232 c 128,-1,10
 430 202 430 202 387 202 c 0,11,12
 346 202 346 202 323 231 c 1,13,-1
 326 277 l 1,14,-1
 345 295 l 1,15,-1
 367 268 l 2,16,17
 377 253 377 253 396 253 c 0,18,19
 418 253 418 253 434.5 268.5 c 128,-1,20
 451 284 451 284 457 306 c 0,21,22
 461 327 461 327 451.5 341 c 128,-1,23
 442 355 442 355 417 355 c 0,24,25
 389 355 389 355 356 328.5 c 128,-1,26
 323 302 323 302 290.5 255 c 128,-1,27
 258 208 258 208 229 143 c 128,-1,28
 200 78 200 78 183 0 c 1,29,-1
 103 0 l 2,30,31
 97 0 97 0 95 3 c 128,-1,32
 93 6 93 6 96 21 c 0,33,34
 103 47 103 47 123.5 88.5 c 128,-1,35
 144 130 144 130 161 156 c 0,36,37
 175 180 175 180 168 190 c 0,38,39
 152 218 152 218 144.5 258.5 c 128,-1,40
 137 299 137 299 149 357 c 0,41,42
 169 451 169 451 223 510 c 128,-1,43
 277 569 277 569 362 598 c 1,44,-1
 445 536 l 1,45,-1
 545 601 l 1,46,47
 633 585 633 585 651.5 521 c 128,-1,48
 670 457 670 457 648 348 c 2,49,-1
 575 0 l 1,50,-1
 489 0 l 1,51,-1
 566 365 l 2,52,53
 575 404 575 404 579 432 c 128,-1,54
 583 460 583 460 580 479.5 c 128,-1,55
 577 499 577 499 565.5 511.5 c 128,-1,56
 554 524 554 524 527 532 c 1,57,-1
 430 470 l 1,58,-1
 354 530 l 1,59,60
 301 514 301 514 273.5 473 c 128,-1,61
 246 432 246 432 230 357 c 0,62,63
 222 326 222 326 220 296.5 c 128,-1,64
 218 267 218 267 222 245 c 1,0,1
EndSplineSet
EndChar
StartChar: uni0E06
Encoding: 3590 3590 219
Width: 721
VWidth: 1473
Flags: W
HStem: -3 53<185.198 233.917> 376 51<203.603 266.447> 535 59<221.324 299.241> 569 20<417.186 453 664.612 757>
VStem: 669 88<339.476 589>
Fore
505 468 m 0,0,1
 498 433 498 433 478 408 c 128,-1,2
 458 383 458 383 436 361 c 128,-1,3
 414 339 414 339 393.5 316 c 128,-1,4
 373 293 373 293 362 262 c 1,5,6
 436 258 436 258 490 221 c 128,-1,7
 544 184 544 184 573 119 c 1,8,9
 576 137 576 137 580.5 163 c 128,-1,10
 585 189 585 189 590 215.5 c 128,-1,11
 595 242 595 242 600 267.5 c 128,-1,12
 605 293 605 293 608 311 c 2,13,-1
 669 589 l 1,14,-1
 757 589 l 1,15,-1
 701 327 l 2,16,17
 691 278 691 278 680.5 228 c 128,-1,18
 670 178 670 178 662 136 c 128,-1,19
 654 94 654 94 648 63 c 128,-1,20
 642 32 642 32 642 21 c 0,21,22
 642 6 642 6 638.5 3 c 128,-1,23
 635 0 635 0 629 0 c 2,24,-1
 542 0 l 1,25,26
 539 97 539 97 489.5 148 c 128,-1,27
 440 199 440 199 351 205 c 1,28,-1
 342 146 l 2,29,30
 336 116 336 116 325 89.5 c 128,-1,31
 314 63 314 63 297 42.5 c 128,-1,32
 280 22 280 22 256.5 9.5 c 128,-1,33
 233 -3 233 -3 199 -3 c 0,34,35
 155 -3 155 -3 136.5 26.5 c 128,-1,36
 118 56 118 56 130 116 c 0,37,38
 144 183 144 183 189 217.5 c 128,-1,39
 234 252 234 252 283 261 c 1,40,41
 292 302 292 302 312.5 325.5 c 128,-1,42
 333 349 333 349 355 368 c 128,-1,43
 377 387 377 387 396 408.5 c 128,-1,44
 415 430 415 430 423 466 c 0,45,46
 427 491 427 491 421 503.5 c 128,-1,47
 415 516 415 516 412 523 c 1,48,-1
 342 468 l 1,49,50
 312 505 312 505 296 520 c 128,-1,51
 280 535 280 535 256 535 c 0,52,53
 237 535 237 535 222.5 517 c 128,-1,54
 208 499 208 499 203 479 c 0,55,56
 197 457 197 457 204.5 442 c 128,-1,57
 212 427 212 427 234 427 c 0,58,59
 243 427 243 427 252.5 430 c 128,-1,60
 262 433 262 433 271 440 c 2,61,-1
 303 468 l 1,62,-1
 315 451 l 1,63,-1
 298 408 l 1,64,65
 258 376 258 376 222 376 c 0,66,67
 180 376 180 376 161.5 405.5 c 128,-1,68
 143 435 143 435 152 477 c 0,69,70
 164 529 164 529 199 561.5 c 128,-1,71
 234 594 234 594 268 594 c 0,72,73
 287 594 287 594 303.5 585.5 c 128,-1,74
 320 577 320 577 333 567 c 0,75,76
 349 555 349 555 361 541 c 1,77,-1
 446 600 l 1,78,79
 460 594 460 594 472.5 580 c 128,-1,80
 485 566 485 566 493.5 548 c 128,-1,81
 502 530 502 530 506 509.5 c 128,-1,82
 510 489 510 489 505 468 c 0,0,1
259 141 m 0,83,84
 262 158 262 158 263.5 168 c 128,-1,85
 265 178 265 178 271 202 c 1,86,87
 243 194 243 194 218 179.5 c 128,-1,88
 193 165 193 165 184 119 c 0,89,90
 177 87 177 87 185.5 68.5 c 128,-1,91
 194 50 194 50 211 50 c 0,92,93
 224 50 224 50 232 57.5 c 128,-1,94
 240 65 240 65 244.5 77.5 c 128,-1,95
 249 90 249 90 252 107 c 128,-1,96
 255 124 255 124 259 141 c 0,83,84
EndSplineSet
EndChar
StartChar: uni0E07
Encoding: 3591 3591 220
Width: 565
VWidth: 1473
Flags: W
HStem: -2 57<297.438 347.331 347.331 359.046> 545 53<430.372 489.717>
VStem: 196 87<57.5787 98.7948 98.7948 221.357>
Fore
215 423 m 1,0,1
 247 382 247 382 266.5 291 c 128,-1,2
 286 200 286 200 283 65 c 0,3,4
 283 60 283 60 297 57.5 c 128,-1,5
 311 55 311 55 328 55 c 128,-1,6
 345 55 345 55 359.5 57.5 c 128,-1,7
 374 60 374 60 376 66 c 0,8,9
 386 113 386 113 402 162.5 c 128,-1,10
 418 212 418 212 433.5 257.5 c 128,-1,11
 449 303 449 303 463 344 c 128,-1,12
 477 385 477 385 483 414 c 0,13,14
 489 442 489 442 494 466.5 c 128,-1,15
 499 491 499 491 497.5 508.5 c 128,-1,16
 496 526 496 526 486 535.5 c 128,-1,17
 476 545 476 545 451 545 c 0,18,19
 430 545 430 545 413 532 c 128,-1,20
 396 519 396 519 393 499 c 0,21,22
 389 482 389 482 398 468 c 128,-1,23
 407 454 407 454 429 454 c 2,24,-1
 473 454 l 1,25,-1
 467 429 l 1,26,-1
 418 402 l 1,27,28
 374 402 374 402 352 428.5 c 128,-1,29
 330 455 330 455 340 499 c 0,30,31
 345 522 345 522 359 539.5 c 128,-1,32
 373 557 373 557 391.5 570 c 128,-1,33
 410 583 410 583 432.5 590.5 c 128,-1,34
 455 598 455 598 477 598 c 0,35,36
 547 598 547 598 569 548.5 c 128,-1,37
 591 499 591 499 575 424 c 0,38,39
 570 401 570 401 558.5 365 c 128,-1,40
 547 329 547 329 533.5 291 c 128,-1,41
 520 253 520 253 507.5 218 c 128,-1,42
 495 183 495 183 488 159 c 0,43,44
 482 141 482 141 476 120.5 c 128,-1,45
 470 100 470 100 465 80 c 128,-1,46
 460 60 460 60 456 44 c 128,-1,47
 452 28 452 28 451 19 c 0,48,49
 449 12 449 12 429.5 6.5 c 128,-1,50
 410 1 410 1 382 -1 c 128,-1,51
 354 -3 354 -3 320.5 -2 c 128,-1,52
 287 -1 287 -1 260 1 c 128,-1,53
 233 3 233 3 214.5 8 c 128,-1,54
 196 13 196 13 196 21 c 0,55,56
 199 91 199 91 197.5 138.5 c 128,-1,57
 196 186 196 186 188 222.5 c 128,-1,58
 180 259 180 259 164.5 291 c 128,-1,59
 149 323 149 323 124 361 c 0,60,61
 121 365 121 365 130.5 373.5 c 128,-1,62
 140 382 140 382 155.5 391.5 c 128,-1,63
 171 401 171 401 188 409.5 c 128,-1,64
 205 418 205 418 215 423 c 1,0,1
EndSplineSet
EndChar
StartChar: uni0E08
Encoding: 3592 3592 221
Width: 630
VWidth: 1473
Flags: W
HStem: 3 54.5<348.594 378.423 363.508 414.91 414.031 415.788 415.788 453.995> 330 53<221.177 294.62> 526 71<351.968 482.599>
Fore
256 21 m 0,0,1
 271 81 271 81 284.5 136.5 c 128,-1,2
 298 192 298 192 301.5 235 c 128,-1,3
 305 278 305 278 297 304 c 128,-1,4
 289 330 289 330 262 330 c 0,5,6
 242 330 242 330 225 316.5 c 128,-1,7
 208 303 208 303 205 284 c 0,8,9
 200 268 200 268 209 253.5 c 128,-1,10
 218 239 218 239 240 239 c 2,11,-1
 284 239 l 1,12,-1
 278 214 l 1,13,-1
 228 187 l 1,14,15
 184 187 184 187 162.5 213.5 c 128,-1,16
 141 240 141 240 152 284 c 0,17,18
 161 329 161 329 195.5 356 c 128,-1,19
 230 383 230 383 274 383 c 0,20,21
 358 383 358 383 372 304 c 128,-1,22
 386 225 386 225 348 65 c 0,23,24
 346 60 346 60 361 57.5 c 128,-1,25
 376 55 376 55 396 55 c 256,26,27
 417 55 417 55 435.5 57.5 c 128,-1,28
 454 60 454 60 454 66 c 0,29,30
 461 115 461 115 473.5 163 c 128,-1,31
 486 211 486 211 500 253.5 c 128,-1,32
 514 296 514 296 526 331.5 c 128,-1,33
 538 367 538 367 544 393 c 0,34,35
 554 442 554 442 540 468.5 c 128,-1,36
 526 495 526 495 503 507.5 c 128,-1,37
 480 520 480 520 457.5 523 c 128,-1,38
 435 526 435 526 426 526 c 0,39,40
 358 526 358 526 305 498 c 128,-1,41
 252 470 252 470 206 426 c 0,42,43
 202 421 202 421 191.5 423.5 c 128,-1,44
 181 426 181 426 168.5 433 c 128,-1,45
 156 440 156 440 146 452 c 128,-1,46
 136 464 136 464 131 479 c 1,47,48
 149 498 149 498 183 518.5 c 128,-1,49
 217 539 217 539 259 557 c 128,-1,50
 301 575 301 575 346.5 586 c 128,-1,51
 392 597 392 597 433 597 c 0,52,53
 480 597 480 597 521.5 586.5 c 128,-1,54
 563 576 563 576 591.5 554 c 128,-1,55
 620 532 620 532 633.5 496 c 128,-1,56
 647 460 647 460 635 408 c 0,57,58
 631 385 631 385 620.5 351.5 c 128,-1,59
 610 318 610 318 597.5 282.5 c 128,-1,60
 585 247 585 247 573 215 c 128,-1,61
 561 183 561 183 554 159 c 0,62,63
 548 141 548 141 543.5 120.5 c 128,-1,64
 539 100 539 100 534.5 80 c 128,-1,65
 530 60 530 60 527 44 c 128,-1,66
 524 28 524 28 523 19 c 0,67,68
 522 13 522 13 510 9.5 c 128,-1,69
 498 6 498 6 479.5 3 c 128,-1,70
 461 0 461 0 438 -1.5 c 128,-1,71
 415 -3 415 -3 390 -3 c 256,72,73
 365 -3 365 -3 340 -1.5 c 128,-1,74
 315 0 315 0 296 3 c 128,-1,75
 277 6 277 6 266 10.5 c 128,-1,76
 255 15 255 15 256 21 c 0,0,1
EndSplineSet
EndChar
StartChar: uni0E09
Encoding: 3593 3593 222
Width: 692
VWidth: 1473
Flags: W
HStem: -6 53<491.58 571.578> 187 62<422.582 516.406> 320 51<202.692 278.016> 526 71<356.484 540.908>
VStem: 211 79<16.7253 59.8257>
Fore
608 408 m 2,0,1
 617 451 617 451 601.5 474.5 c 128,-1,2
 586 498 586 498 561 510 c 128,-1,3
 536 522 536 522 511 524 c 128,-1,4
 486 526 486 526 477 526 c 0,5,6
 411 526 411 526 347.5 501 c 128,-1,7
 284 476 284 476 239 432 c 0,8,9
 228 423 228 423 207.5 443.5 c 128,-1,10
 187 464 187 464 172 494 c 1,11,12
 233 536 233 536 317.5 566.5 c 128,-1,13
 402 597 402 597 494 597 c 0,14,15
 545 597 545 597 588 586.5 c 128,-1,16
 631 576 631 576 659 554 c 128,-1,17
 687 532 687 532 698 496 c 128,-1,18
 709 460 709 460 697 408 c 2,19,-1
 672 287 l 2,20,21
 669 274 669 274 658.5 255 c 128,-1,22
 648 236 648 236 635 224 c 1,23,24
 660 208 660 208 669 175.5 c 128,-1,25
 678 143 678 143 670 105 c 0,26,27
 657 44 657 44 615 19 c 128,-1,28
 573 -6 573 -6 529 -6 c 256,29,30
 485 -6 485 -6 455.5 19 c 128,-1,31
 426 44 426 44 438 97 c 0,32,33
 445 131 445 131 462.5 151 c 128,-1,34
 480 171 480 171 501 186 c 1,35,36
 495 187 495 187 486 187 c 0,37,38
 451 187 451 187 418.5 171.5 c 128,-1,39
 386 156 386 156 360 131 c 128,-1,40
 334 106 334 106 316 72 c 128,-1,41
 298 38 298 38 290 0 c 1,42,-1
 218 0 l 2,43,44
 212 0 212 0 209 3 c 128,-1,45
 206 6 206 6 211 21 c 0,46,47
 221 44 221 44 236.5 83 c 128,-1,48
 252 122 252 122 268 194 c 2,49,-1
 278 245 l 2,50,51
 286 278 286 278 278 299 c 128,-1,52
 270 320 270 320 247 320 c 0,53,54
 222 320 222 320 204.5 303.5 c 128,-1,55
 187 287 187 287 183 265 c 256,56,57
 178 243 178 243 187 227 c 128,-1,58
 196 211 196 211 220 211 c 2,59,-1
 256 211 l 1,60,-1
 250 184 l 1,61,-1
 205 161 l 1,62,63
 162 161 162 161 140.5 191 c 128,-1,64
 119 221 119 221 130 265 c 0,65,66
 138 309 138 309 176 340 c 128,-1,67
 214 371 214 371 258 371 c 0,68,69
 315 371 315 371 341 334.5 c 128,-1,70
 367 298 367 298 351 236 c 2,71,-1
 339 194 l 2,72,73
 334 180 334 180 324 158 c 0,74,75
 318 146 318 146 314 134 c 1,76,77
 351 190 351 190 407 219.5 c 128,-1,78
 463 249 463 249 511 249 c 0,79,80
 532 249 532 249 546.5 246 c 128,-1,81
 561 243 561 243 569 240 c 1,82,83
 572 247 572 247 576 260.5 c 128,-1,84
 580 274 580 274 583 287 c 2,85,-1
 608 408 l 2,0,1
589 108 m 0,86,87
 594 131 594 131 583 149.5 c 128,-1,88
 572 168 572 168 554 174 c 1,89,90
 526 158 526 158 510 139.5 c 128,-1,91
 494 121 494 121 491 105 c 0,92,93
 485 81 485 81 492 64 c 128,-1,94
 499 47 499 47 524 47 c 0,95,96
 576 47 576 47 589 108 c 0,86,87
EndSplineSet
EndChar
StartChar: uni0E0A
Encoding: 3594 3594 223
Width: 629
VWidth: 1473
Flags: W
HStem: -9 66<272.216 390.139> 371 55<202.853 260.168> 539 56<233.031 364.458>
Fore
631 625 m 1,0,1
 647 622 647 622 661 616 c 0,2,3
 673 611 673 611 685.5 606 c 128,-1,4
 698 601 698 601 703 594 c 1,5,6
 706 591 706 591 706 585 c 1,7,8
 703 579 703 579 698 575 c 0,9,10
 670 542 670 542 640 513.5 c 128,-1,11
 610 485 610 485 579 466 c 1,12,13
 586 460 586 460 595.5 451.5 c 128,-1,14
 605 443 605 443 613.5 430.5 c 128,-1,15
 622 418 622 418 625.5 399 c 128,-1,16
 629 380 629 380 623 354 c 2,17,-1
 583 166 l 2,18,19
 573 118 573 118 548.5 85 c 128,-1,20
 524 52 524 52 490.5 30.5 c 128,-1,21
 457 9 457 9 415.5 0 c 128,-1,22
 374 -9 374 -9 327 -9 c 0,23,24
 287 -9 287 -9 252 -1 c 128,-1,25
 217 7 217 7 192.5 25 c 128,-1,26
 168 43 168 43 157 71.5 c 128,-1,27
 146 100 146 100 155 141 c 2,28,-1
 168 206 l 2,29,30
 178 253 178 253 208.5 282.5 c 128,-1,31
 239 312 239 312 272 337 c 128,-1,32
 305 362 305 362 334.5 388.5 c 128,-1,33
 364 415 364 415 373 458 c 256,34,35
 382 501 382 501 364 520 c 128,-1,36
 346 539 346 539 301 539 c 0,37,38
 267 539 267 539 239 526.5 c 128,-1,39
 211 514 211 514 202 471 c 0,40,41
 197 452 197 452 204 439 c 128,-1,42
 211 426 211 426 231 426 c 0,43,44
 247 426 247 426 261 436 c 128,-1,45
 275 446 275 446 280 470 c 2,46,-1
 289 513 l 1,47,-1
 314 513 l 1,48,-1
 331 470 l 1,49,50
 323 426 323 426 293.5 398.5 c 128,-1,51
 264 371 264 371 220 371 c 256,52,53
 175 371 175 371 154.5 400 c 128,-1,54
 134 429 134 429 144 471 c 0,55,56
 156 524 156 524 203 559.5 c 128,-1,57
 250 595 250 595 318 595 c 0,58,59
 389 595 389 595 419 559.5 c 128,-1,60
 449 524 449 524 436 463 c 0,61,62
 426 417 426 417 400 385.5 c 128,-1,63
 374 354 374 354 345.5 328 c 128,-1,64
 317 302 317 302 292 277.5 c 128,-1,65
 267 253 267 253 259 221 c 2,66,-1
 245 152 l 2,67,68
 233 96 233 96 260 76.5 c 128,-1,69
 287 57 287 57 343 57 c 0,70,71
 377 57 377 57 402 61 c 128,-1,72
 427 65 427 65 445.5 76 c 128,-1,73
 464 87 464 87 476 107 c 128,-1,74
 488 127 488 127 494 159 c 0,75,76
 496 172 496 172 499 186 c 128,-1,77
 502 200 502 200 506.5 221 c 128,-1,78
 511 242 511 242 517 272.5 c 128,-1,79
 523 303 523 303 533 351 c 0,80,81
 538 374 538 374 537 389 c 128,-1,82
 536 404 536 404 531 412.5 c 128,-1,83
 526 421 526 421 519.5 425 c 128,-1,84
 513 429 513 429 505 429 c 0,85,86
 496 429 496 429 492 425 c 128,-1,87
 488 421 488 421 477 421 c 0,88,89
 473 421 473 421 468 429.5 c 128,-1,90
 463 438 463 438 459 447.5 c 128,-1,91
 455 457 455 457 454.5 465 c 128,-1,92
 454 473 454 473 458 474 c 0,93,94
 483 480 483 480 501 487 c 128,-1,95
 519 494 519 494 536 507 c 0,96,97
 558 523 558 523 576 543.5 c 128,-1,98
 594 564 594 564 605 582 c 0,99,100
 620 603 620 603 631 625 c 1,0,1
EndSplineSet
EndChar
StartChar: uni0E0B
Encoding: 3595 3595 224
Width: 637
VWidth: 1473
Flags: W
HStem: -9 66<281.137 399.139> 389 51<199.385 256.704> 539 55<212.93 272.845>
VStem: 383 62.5<484.753 519.874>
Fore
178 214 m 2,0,1
 190 267 190 267 218.5 297 c 128,-1,2
 247 327 247 327 279.5 350 c 128,-1,3
 312 373 312 373 340 398 c 128,-1,4
 368 423 368 423 377 466 c 0,5,6
 383 494 383 494 383 508 c 0,7,8
 383 516 383 516 382 520 c 1,9,-1
 318 476 l 1,10,11
 289 513 289 513 275 526 c 128,-1,12
 261 539 261 539 249 539 c 0,13,14
 230 539 230 539 216.5 526 c 128,-1,15
 203 513 203 513 197 492 c 0,16,17
 193 470 193 470 200.5 455 c 128,-1,18
 208 440 208 440 230 440 c 0,19,20
 239 440 239 440 252 447 c 128,-1,21
 265 454 265 454 286 471 c 1,22,-1
 296 454 l 1,23,-1
 280 420 l 1,24,25
 247 389 247 389 218 389 c 0,26,27
 175 389 175 389 156.5 418.5 c 128,-1,28
 138 448 138 448 147 491 c 0,29,30
 159 542 159 542 193 568 c 128,-1,31
 227 594 227 594 261 594 c 0,32,33
 280 594 280 594 294 585.5 c 128,-1,34
 308 577 308 577 317 566 c 0,35,36
 327 552 327 552 334 536 c 1,37,-1
 421 600 l 1,38,39
 443 579 443 579 445.5 544.5 c 128,-1,40
 448 510 448 510 439 468 c 0,41,42
 429 417 429 417 402.5 384.5 c 128,-1,43
 376 352 376 352 348 327.5 c 128,-1,44
 320 303 320 303 297 279.5 c 128,-1,45
 274 256 274 256 268 221 c 2,46,-1
 253 152 l 2,47,48
 242 96 242 96 269 76.5 c 128,-1,49
 296 57 296 57 352 57 c 0,50,51
 386 57 386 57 411 61 c 128,-1,52
 436 65 436 65 454.5 76 c 128,-1,53
 473 87 473 87 484.5 107 c 128,-1,54
 496 127 496 127 502 159 c 0,55,56
 505 172 505 172 508 186 c 128,-1,57
 511 200 511 200 515.5 221 c 128,-1,58
 520 242 520 242 526 272.5 c 128,-1,59
 532 303 532 303 542 351 c 0,60,61
 547 374 547 374 546 389 c 128,-1,62
 545 404 545 404 540 412.5 c 128,-1,63
 535 421 535 421 528.5 425 c 128,-1,64
 522 429 522 429 514 429 c 0,65,66
 505 429 505 429 500.5 425 c 128,-1,67
 496 421 496 421 486 421 c 0,68,69
 482 421 482 421 476.5 429.5 c 128,-1,70
 471 438 471 438 467.5 447.5 c 128,-1,71
 464 457 464 457 463.5 465 c 128,-1,72
 463 473 463 473 467 474 c 0,73,74
 492 480 492 480 509.5 487 c 128,-1,75
 527 494 527 494 545 507 c 0,76,77
 567 523 567 523 585 543.5 c 128,-1,78
 603 564 603 564 614 582 c 0,79,80
 629 603 629 603 639 625 c 1,81,82
 656 622 656 622 670 616 c 0,83,84
 682 611 682 611 694.5 606 c 128,-1,85
 707 601 707 601 712 594 c 1,86,87
 715 591 715 591 715 585 c 1,88,89
 712 579 712 579 707 575 c 0,90,91
 679 542 679 542 649 513.5 c 128,-1,92
 619 485 619 485 588 466 c 1,93,94
 595 460 595 460 604.5 451.5 c 128,-1,95
 614 443 614 443 622.5 430.5 c 128,-1,96
 631 418 631 418 634.5 399 c 128,-1,97
 638 380 638 380 632 354 c 2,98,-1
 592 166 l 2,99,100
 582 118 582 118 557.5 85 c 128,-1,101
 533 52 533 52 499.5 30.5 c 128,-1,102
 466 9 466 9 424.5 0 c 128,-1,103
 383 -9 383 -9 336 -9 c 0,104,105
 296 -9 296 -9 260.5 -1 c 128,-1,106
 225 7 225 7 201 25 c 128,-1,107
 177 43 177 43 166 71.5 c 128,-1,108
 155 100 155 100 164 141 c 2,109,-1
 178 214 l 2,0,1
EndSplineSet
EndChar
StartChar: uni0E0C
Encoding: 3596 3596 225
Width: 978
VWidth: 1473
Flags: W
HStem: -9 52<209.956 289.127 459.198 507.917> 205 57<636 723.35> 532 66<368.85 503.919>
Fore
533 141 m 0,0,1
 536 152 536 152 537 164.5 c 128,-1,2
 538 177 538 177 542 202 c 1,3,4
 514 194 514 194 490.5 179 c 128,-1,5
 467 164 467 164 458 119 c 0,6,7
 451 87 451 87 459.5 68.5 c 128,-1,8
 468 50 468 50 485 50 c 0,9,10
 498 50 498 50 506 57.5 c 128,-1,11
 514 65 514 65 518.5 77.5 c 128,-1,12
 523 90 523 90 526 107 c 128,-1,13
 529 124 529 124 533 141 c 0,0,1
209 113 m 2,14,15
 202 80 202 80 211.5 61.5 c 128,-1,16
 221 43 221 43 243 43 c 0,17,18
 268 43 268 43 284.5 59 c 128,-1,19
 301 75 301 75 306 97 c 128,-1,20
 311 119 311 119 301.5 134.5 c 128,-1,21
 292 150 292 150 270 150 c 2,22,-1
 228 150 l 1,23,-1
 234 174 l 1,24,-1
 281 202 l 1,25,26
 324 202 324 202 346 171.5 c 128,-1,27
 368 141 368 141 359 97 c 0,28,29
 349 53 349 53 312 22 c 128,-1,30
 275 -9 275 -9 231 -9 c 0,31,32
 206 -9 206 -9 183.5 0 c 128,-1,33
 161 9 161 9 145.5 26.5 c 128,-1,34
 130 44 130 44 124 70.5 c 128,-1,35
 118 97 118 97 125 133 c 2,36,-1
 152 262 l 2,37,38
 164 318 164 318 180.5 344 c 128,-1,39
 197 370 197 370 227 395 c 1,40,41
 222 398 222 398 211 406.5 c 128,-1,42
 200 415 200 415 189 426.5 c 128,-1,43
 178 438 178 438 171 449.5 c 128,-1,44
 164 461 164 461 165 470 c 0,45,46
 168 483 168 483 194 505 c 128,-1,47
 220 527 220 527 259.5 548 c 128,-1,48
 299 569 299 569 349 583.5 c 128,-1,49
 399 598 399 598 452 598 c 0,50,51
 502 598 502 598 546.5 587.5 c 128,-1,52
 591 577 591 577 621 550.5 c 128,-1,53
 651 524 651 524 662 479.5 c 128,-1,54
 673 435 673 435 659 367 c 2,55,-1
 636 262 l 1,56,57
 710 258 710 258 761.5 226 c 128,-1,58
 813 194 813 194 829 119 c 1,59,60
 832 137 832 137 836.5 163 c 128,-1,61
 841 189 841 189 846.5 215.5 c 128,-1,62
 852 242 852 242 857 267.5 c 128,-1,63
 862 293 862 293 865 311 c 2,64,-1
 925 589 l 1,65,-1
 1014 589 l 1,66,-1
 958 327 l 2,67,68
 947 278 947 278 937 228 c 128,-1,69
 927 178 927 178 918.5 136 c 128,-1,70
 910 94 910 94 904.5 63 c 128,-1,71
 899 32 899 32 899 21 c 0,72,73
 899 6 899 6 895 3 c 128,-1,74
 891 0 891 0 885 0 c 2,75,-1
 798 0 l 1,76,77
 796 97 796 97 756 147 c 128,-1,78
 716 197 716 197 626 205 c 1,79,-1
 616 146 l 2,80,81
 610 116 610 116 599 89.5 c 128,-1,82
 588 63 588 63 571 42.5 c 128,-1,83
 554 22 554 22 530.5 9.5 c 128,-1,84
 507 -3 507 -3 473 -3 c 0,85,86
 429 -3 429 -3 410.5 26.5 c 128,-1,87
 392 56 392 56 404 116 c 0,88,89
 418 183 418 183 461.5 216.5 c 128,-1,90
 505 250 505 250 552 259 c 1,91,92
 554 268 554 268 557 283.5 c 128,-1,93
 560 299 560 299 562 315 c 128,-1,94
 564 331 564 331 566.5 346 c 128,-1,95
 569 361 569 361 570 367 c 0,96,97
 582 424 582 424 578.5 456.5 c 128,-1,98
 575 489 575 489 557 506 c 128,-1,99
 539 523 539 523 509 527.5 c 128,-1,100
 479 532 479 532 438 532 c 0,101,102
 401 532 401 532 368.5 525.5 c 128,-1,103
 336 519 336 519 310 509 c 128,-1,104
 284 499 284 499 269.5 489.5 c 128,-1,105
 255 480 255 480 253 473 c 0,106,107
 252 468 252 468 255.5 461 c 128,-1,108
 259 454 259 454 265 446 c 128,-1,109
 271 438 271 438 277.5 432.5 c 128,-1,110
 284 427 284 427 289 427 c 0,111,112
 301 427 301 427 316 436.5 c 128,-1,113
 331 446 331 446 345 446 c 0,114,115
 349 446 349 446 355 436.5 c 128,-1,116
 361 427 361 427 365.5 415.5 c 128,-1,117
 370 404 370 404 371.5 394.5 c 128,-1,118
 373 385 373 385 367 385 c 0,119,120
 345 385 345 385 325.5 381 c 128,-1,121
 306 377 306 377 290 364.5 c 128,-1,122
 274 352 274 352 261.5 327.5 c 128,-1,123
 249 303 249 303 240 262 c 2,124,-1
 209 113 l 2,14,15
EndSplineSet
EndChar
StartChar: uni0E0D
Encoding: 3597 3597 226
Width: 976
VWidth: 1473
Flags: W
HStem: -277 59<523.839 682.025> -109 49<517.96 573.491> -9 66<648.703 756.503> -9 52<211.076 286.698> 532 66<355.965 488.72>
VStem: 499 86.5<108.953 110.5 110.5 161.945>
Fore
228 150 m 1,0,-1
 234 174 l 1,1,-1
 281 202 l 1,2,3
 324 202 324 202 346 171.5 c 128,-1,4
 368 141 368 141 359 97 c 0,5,6
 349 53 349 53 312 22 c 128,-1,7
 275 -9 275 -9 231 -9 c 0,8,9
 206 -9 206 -9 183.5 0 c 128,-1,10
 161 9 161 9 145.5 26.5 c 128,-1,11
 130 44 130 44 124 70.5 c 128,-1,12
 118 97 118 97 125 133 c 2,13,-1
 152 262 l 2,14,15
 164 318 164 318 180.5 344 c 128,-1,16
 197 370 197 370 227 395 c 1,17,18
 222 398 222 398 211 406.5 c 128,-1,19
 200 415 200 415 189 426.5 c 128,-1,20
 178 438 178 438 171 449.5 c 128,-1,21
 164 461 164 461 165 470 c 0,22,23
 168 483 168 483 191.5 505 c 128,-1,24
 215 527 215 527 252 548 c 128,-1,25
 289 569 289 569 337 583.5 c 128,-1,26
 385 598 385 598 438 598 c 0,27,28
 488 598 488 598 530.5 587.5 c 128,-1,29
 573 577 573 577 602 550.5 c 128,-1,30
 631 524 631 524 641 479.5 c 128,-1,31
 651 435 651 435 636 367 c 0,32,33
 632 349 632 349 629 336.5 c 0,34,-1
 617 286.5 l 0,35,36
 608 249 608 249 602.5 225.5 c 128,-1,37
 597 202 597 202 594 187 c 0,38,39
 586 152 586 152 585.5 132 c 128,-1,40
 585 112 585 112 595 97 c 0,41,42
 608 77 608 77 634 67 c 128,-1,43
 660 57 660 57 694 57 c 0,44,45
 765 57 765 57 810 97 c 0,46,47
 825 112 825 112 831.5 126 c 128,-1,48
 838 140 838 140 846 169 c 0,49,50
 852 194 852 194 860 238.5 c 128,-1,51
 868 283 868 283 875 320 c 2,52,-1
 933 589 l 1,53,-1
 1021 589 l 1,54,-1
 937 194 l 2,55,56
 925 138 925 138 912 106.5 c 128,-1,57
 899 75 899 75 874 52 c 0,58,59
 829 12 829 12 774 1.5 c 128,-1,60
 719 -9 719 -9 679 -9 c 0,61,62
 660 -9 660 -9 635.5 -6.5 c 128,-1,63
 611 -4 611 -4 588.5 1.5 c 128,-1,64
 566 7 566 7 545 19.5 c 128,-1,65
 524 32 524 32 511 52 c 0,66,67
 496 74 496 74 499 110.5 c 128,-1,68
 502 147 502 147 513 194 c 2,69,-1
 548 367 l 2,70,71
 560 424 560 424 557.5 456.5 c 128,-1,72
 555 489 555 489 538.5 506 c 128,-1,73
 522 523 522 523 493 527.5 c 128,-1,74
 464 532 464 532 423 532 c 0,75,76
 386 532 386 532 356 525.5 c 128,-1,77
 326 519 326 519 303 509 c 128,-1,78
 280 499 280 499 267.5 489.5 c 128,-1,79
 255 480 255 480 253 473 c 0,80,81
 252 468 252 468 255.5 461 c 128,-1,82
 259 454 259 454 265 446 c 128,-1,83
 271 438 271 438 277.5 432.5 c 128,-1,84
 284 427 284 427 289 427 c 0,85,86
 301 427 301 427 316 436.5 c 128,-1,87
 331 446 331 446 345 446 c 0,88,89
 349 446 349 446 355 436.5 c 128,-1,90
 361 427 361 427 365.5 415.5 c 128,-1,91
 370 404 370 404 371.5 394.5 c 128,-1,92
 373 385 373 385 367 385 c 0,93,94
 345 385 345 385 325.5 381 c 128,-1,95
 306 377 306 377 290 364.5 c 128,-1,96
 274 352 274 352 261.5 327.5 c 128,-1,97
 249 303 249 303 240 262 c 2,98,-1
 209 113 l 2,99,100
 202 80 202 80 211.5 61.5 c 128,-1,101
 221 43 221 43 243 43 c 0,102,103
 268 43 268 43 284.5 59 c 128,-1,104
 301 75 301 75 306 97 c 128,-1,105
 311 119 311 119 301.5 134.5 c 128,-1,106
 292 150 292 150 270 150 c 2,107,-1
 228 150 l 1,0,-1
866 -71 m 1,108,109
 857 -113 857 -113 836.5 -151 c 128,-1,110
 816 -189 816 -189 783.5 -217 c 128,-1,111
 751 -245 751 -245 706 -261 c 128,-1,112
 661 -277 661 -277 603 -277 c 0,113,114
 510 -277 510 -277 476.5 -238.5 c 128,-1,115
 443 -200 443 -200 455 -149 c 0,116,117
 466 -105 466 -105 499.5 -82.5 c 128,-1,118
 533 -60 533 -60 566 -60 c 0,119,120
 600 -60 600 -60 617.5 -81.5 c 128,-1,121
 635 -103 635 -103 625 -146 c 1,122,-1
 592 -189 l 1,123,-1
 569 -189 l 1,124,-1
 577 -146 l 2,125,126
 582 -125 582 -125 574.5 -117 c 128,-1,127
 567 -109 567 -109 555 -109 c 0,128,129
 520 -109 520 -109 511 -149 c 0,130,131
 504 -186 504 -186 526 -202 c 128,-1,132
 548 -218 548 -218 610 -218 c 0,133,134
 648 -218 648 -218 676 -211.5 c 128,-1,135
 704 -205 704 -205 724 -188 c 128,-1,136
 744 -171 744 -171 757 -142 c 128,-1,137
 770 -113 770 -113 779 -71 c 1,138,-1
 866 -71 l 1,108,109
EndSplineSet
Substitution2: "Single Substitution lookup 27 subtable" uni0E0D.alt1
Substitution2: "Single Substitution lookup 27 subtable" uni0E0D.alt1
EndChar
StartChar: uni0E0E
Encoding: 3598 3598 227
Width: 713
VWidth: 1473
Flags: W
HStem: -268 60<215.397 303.702> -128 59<225.335 307.893 306.177 309.609 309.609 318 339.5 350.438> -9 52<121.364 199.414> 152 48<134.893 180> 532 66<420.578 553.919>
Fore
488 532 m 0,0,1
 451 532 451 532 420.5 525.5 c 128,-1,2
 390 519 390 519 367.5 509 c 128,-1,3
 345 499 345 499 332.5 489.5 c 128,-1,4
 320 480 320 480 318 473 c 0,5,6
 317 468 317 468 320.5 459.5 c 128,-1,7
 324 451 324 451 330 443 c 128,-1,8
 336 435 336 435 342 428 c 128,-1,9
 348 421 348 421 352 421 c 0,10,11
 364 421 364 421 379.5 430.5 c 128,-1,12
 395 440 395 440 408 440 c 0,13,14
 412 440 412 440 417.5 430.5 c 128,-1,15
 423 421 423 421 426 409.5 c 128,-1,16
 429 398 429 398 429 388.5 c 128,-1,17
 429 379 429 379 423 379 c 0,18,19
 396 379 396 379 379 375 c 128,-1,20
 362 371 362 371 352.5 361 c 128,-1,21
 343 351 343 351 337 332.5 c 128,-1,22
 331 314 331 314 324 283 c 0,23,24
 320 258 320 258 317 238 c 128,-1,25
 314 218 314 218 311.5 198 c 128,-1,26
 309 178 309 178 305.5 157 c 128,-1,27
 302 136 302 136 296 108 c 0,28,29
 284 52 284 52 244.5 21.5 c 128,-1,30
 205 -9 205 -9 153 -9 c 256,31,32
 102 -9 102 -9 78.5 22 c 128,-1,33
 55 53 55 53 65 97 c 0,34,35
 74 141 74 141 106 170.5 c 128,-1,36
 138 200 138 200 180 200 c 1,37,-1
 209 175 l 1,38,-1
 203 152 l 1,39,-1
 169 152 l 2,40,41
 147 152 147 152 134.5 135.5 c 128,-1,42
 122 119 122 119 118 97 c 0,43,44
 112 75 112 75 122.5 59 c 128,-1,45
 133 43 133 43 158 43 c 0,46,47
 180 43 180 43 197.5 60 c 128,-1,48
 215 77 215 77 222 110 c 0,49,50
 227 127 227 127 228.5 150.5 c 128,-1,51
 230 174 230 174 231.5 199.5 c 128,-1,52
 233 225 233 225 234.5 250 c 128,-1,53
 236 275 236 275 240 295 c 0,54,55
 246 323 246 323 255 347 c 128,-1,56
 264 371 264 371 292 395 c 1,57,58
 287 398 287 398 276 406.5 c 128,-1,59
 265 415 265 415 254 426.5 c 128,-1,60
 243 438 243 438 235.5 449.5 c 128,-1,61
 228 461 228 461 230 470 c 0,62,63
 233 483 233 483 256.5 505 c 128,-1,64
 280 527 280 527 317 548 c 128,-1,65
 354 569 354 569 401.5 583.5 c 128,-1,66
 449 598 449 598 502 598 c 0,67,68
 552 598 552 598 596.5 587.5 c 128,-1,69
 641 577 641 577 671 550.5 c 128,-1,70
 701 524 701 524 712 479.5 c 128,-1,71
 723 435 723 435 709 367 c 2,72,-1
 575 -265 l 1,73,-1
 474 -265 l 1,74,75
 467 -246 467 -246 448.5 -216.5 c 128,-1,76
 430 -187 430 -187 398 -166 c 1,77,78
 373 -205 373 -205 327 -236.5 c 128,-1,79
 281 -268 281 -268 231 -268 c 0,80,81
 189 -268 189 -268 163 -246.5 c 128,-1,82
 137 -225 137 -225 149 -169 c 0,83,84
 171 -69 171 -69 290 -69 c 0,85,86
 318 -69 318 -69 339.5 -75 c 128,-1,87
 361 -81 361 -81 382 -90 c 1,88,89
 387 -80 387 -80 391.5 -70 c 128,-1,90
 396 -60 396 -60 399 -53 c 0,91,92
 404 -44 404 -44 407 -35 c 1,93,-1
 430 -41 l 2,94,95
 439 -44 439 -44 448.5 -47 c 128,-1,96
 458 -50 458 -50 463 -55 c 0,97,98
 466 -57 466 -57 464.5 -62.5 c 128,-1,99
 463 -68 463 -68 460 -72 c 0,100,101
 457 -78 457 -78 448 -92 c 128,-1,102
 439 -106 439 -106 432 -116 c 1,103,104
 457 -133 457 -133 476 -149.5 c 128,-1,105
 495 -166 495 -166 505 -183 c 1,106,107
 510 -165 510 -165 516 -134 c 128,-1,108
 522 -103 522 -103 534.5 -42 c 128,-1,109
 547 19 547 19 567.5 117 c 128,-1,110
 588 215 588 215 620 367 c 0,111,112
 632 424 632 424 628.5 456.5 c 128,-1,113
 625 489 625 489 607 506 c 128,-1,114
 589 523 589 523 559 527.5 c 128,-1,115
 529 532 529 532 488 532 c 0,0,1
243 -208 m 0,116,117
 277 -208 277 -208 303 -188.5 c 128,-1,118
 329 -169 329 -169 351 -143 c 1,119,120
 333 -136 333 -136 318 -132 c 128,-1,121
 303 -128 303 -128 283 -128 c 0,122,123
 247 -128 247 -128 230.5 -138.5 c 128,-1,124
 214 -149 214 -149 209 -172 c 0,125,126
 205 -192 205 -192 214.5 -200 c 128,-1,127
 224 -208 224 -208 243 -208 c 0,116,117
EndSplineSet
Substitution2: "Single Substitution lookup 27 subtable" uni0E0E.alt1
Substitution2: "Single Substitution lookup 27 subtable" uni0E0E.alt1
EndChar
StartChar: uni0E0F
Encoding: 3599 3599 228
Width: 713
VWidth: 1473
Flags: W
HStem: -274 60<169.834 245.644> -131 60<187.913 246.696> -9 52<121.364 199.414> 152 48<134.893 180> 532 66<420.578 553.919>
Fore
273 -172 m 1,0,1
 258 -152 258 -152 247 -141.5 c 128,-1,2
 236 -131 236 -131 218 -131 c 0,3,4
 180 -131 180 -131 171 -172 c 0,5,6
 161 -214 161 -214 202 -214 c 0,7,8
 234 -214 234 -214 273 -172 c 1,0,1
502 598 m 0,9,10
 552 598 552 598 596.5 587.5 c 128,-1,11
 641 577 641 577 671 550.5 c 128,-1,12
 701 524 701 524 712 479.5 c 128,-1,13
 723 435 723 435 709 367 c 2,14,-1
 570 -280 l 1,15,-1
 477 -280 l 1,16,-1
 417 -228 l 1,17,-1
 337 -277 l 1,18,-1
 296 -221 l 1,19,20
 267 -246 267 -246 240.5 -260 c 128,-1,21
 214 -274 214 -274 184 -274 c 0,22,23
 146 -274 146 -274 122.5 -249.5 c 128,-1,24
 99 -225 99 -225 109 -174 c 0,25,26
 116 -141 116 -141 129.5 -121.5 c 128,-1,27
 143 -102 143 -102 159 -91 c 128,-1,28
 175 -80 175 -80 193 -75.5 c 128,-1,29
 211 -71 211 -71 227 -71 c 0,30,31
 256 -71 256 -71 275.5 -87 c 128,-1,32
 295 -103 295 -103 306 -116 c 1,33,34
 314 -103 314 -103 321.5 -81.5 c 128,-1,35
 329 -60 329 -60 331 -49 c 1,36,37
 343 -49 343 -49 354 -50 c 0,38,39
 374 -53 374 -53 387 -60 c 0,40,41
 392 -63 392 -63 391 -68.5 c 128,-1,42
 390 -74 390 -74 387 -81 c 0,43,44
 385 -91 385 -91 376.5 -105 c 128,-1,45
 368 -119 368 -119 361 -133 c 0,46,47
 352 -149 352 -149 342 -164 c 1,48,-1
 359 -194 l 1,49,-1
 430 -153 l 1,50,-1
 502 -197 l 1,51,52
 507 -180 507 -180 513.5 -146 c 128,-1,53
 520 -112 520 -112 533.5 -48.5 c 128,-1,54
 547 15 547 15 567.5 115 c 128,-1,55
 588 215 588 215 620 367 c 0,56,57
 632 424 632 424 628.5 456.5 c 128,-1,58
 625 489 625 489 607 506 c 128,-1,59
 589 523 589 523 559 527.5 c 128,-1,60
 529 532 529 532 488 532 c 0,61,62
 451 532 451 532 420.5 525.5 c 128,-1,63
 390 519 390 519 367.5 509 c 128,-1,64
 345 499 345 499 332.5 489.5 c 128,-1,65
 320 480 320 480 318 473 c 0,66,67
 317 468 317 468 320.5 459.5 c 128,-1,68
 324 451 324 451 330 443 c 128,-1,69
 336 435 336 435 342 428 c 128,-1,70
 348 421 348 421 352 421 c 0,71,72
 364 421 364 421 379.5 430.5 c 128,-1,73
 395 440 395 440 408 440 c 0,74,75
 412 440 412 440 417.5 430.5 c 128,-1,76
 423 421 423 421 426 409.5 c 128,-1,77
 429 398 429 398 429 388.5 c 128,-1,78
 429 379 429 379 423 379 c 0,79,80
 396 379 396 379 379 375 c 128,-1,81
 362 371 362 371 352.5 361 c 128,-1,82
 343 351 343 351 337 332.5 c 128,-1,83
 331 314 331 314 324 283 c 0,84,85
 320 258 320 258 317 238 c 128,-1,86
 314 218 314 218 311.5 198 c 128,-1,87
 309 178 309 178 305.5 157 c 128,-1,88
 302 136 302 136 296 108 c 0,89,90
 284 52 284 52 244.5 21.5 c 128,-1,91
 205 -9 205 -9 153 -9 c 256,92,93
 102 -9 102 -9 78.5 22 c 128,-1,94
 55 53 55 53 65 97 c 0,95,96
 74 141 74 141 106 170.5 c 128,-1,97
 138 200 138 200 180 200 c 1,98,-1
 209 175 l 1,99,-1
 203 152 l 1,100,-1
 169 152 l 2,101,102
 147 152 147 152 134.5 135.5 c 128,-1,103
 122 119 122 119 118 97 c 0,104,105
 112 75 112 75 122.5 59 c 128,-1,106
 133 43 133 43 158 43 c 0,107,108
 180 43 180 43 197.5 60 c 128,-1,109
 215 77 215 77 222 110 c 0,110,111
 227 127 227 127 228.5 150.5 c 128,-1,112
 230 174 230 174 231.5 199.5 c 128,-1,113
 233 225 233 225 234.5 250 c 128,-1,114
 236 275 236 275 240 295 c 0,115,116
 246 323 246 323 255 347 c 128,-1,117
 264 371 264 371 292 395 c 1,118,119
 287 398 287 398 276 406.5 c 128,-1,120
 265 415 265 415 254 426.5 c 128,-1,121
 243 438 243 438 235.5 449.5 c 128,-1,122
 228 461 228 461 230 470 c 0,123,124
 233 483 233 483 256.5 505 c 128,-1,125
 280 527 280 527 317 548 c 128,-1,126
 354 569 354 569 401.5 583.5 c 128,-1,127
 449 598 449 598 502 598 c 0,9,10
EndSplineSet
Substitution2: "Single Substitution lookup 27 subtable" uni0E0F.alt1
Substitution2: "Single Substitution lookup 27 subtable" uni0E0F.alt1
EndChar
StartChar: uni0E10
Encoding: 3600 3600 229
Width: 602
VWidth: 1473
Flags: W
HStem: -290 56<91.9361 138.577> -159 57<114.858 176.838> -85 41<385.843 444.822> -2 57<371.829 422.109> 255 53<234.177 315.167> 374 77<357.845 466.895> 506.5 76<419.875 438.25 439.749 463.273 451.511 507.848 504.969 510.727 510.727 548.788 548.788 570.5 570.5 591.218> 523 66<278.696 359.213>
Fore
189 -196 m 1,0,1
 164 -159 164 -159 134 -159 c 0,2,3
 118 -159 118 -159 103 -168.5 c 128,-1,4
 88 -178 88 -178 84 -197 c 256,5,6
 80 -217 80 -217 91.5 -225.5 c 128,-1,7
 103 -234 103 -234 119 -234 c 256,8,9
 136 -234 136 -234 153.5 -227.5 c 128,-1,10
 171 -221 171 -221 189 -196 c 1,0,1
292 138 m 1,11,-1
 243 112 l 1,12,13
 199 112 199 112 177 138.5 c 128,-1,14
 155 165 155 165 165 209 c 0,15,16
 174 253 174 253 208.5 280.5 c 128,-1,17
 243 308 243 308 287 308 c 0,18,19
 334 308 334 308 357 291.5 c 128,-1,20
 380 275 380 275 386.5 243.5 c 128,-1,21
 393 212 393 212 385 167 c 128,-1,22
 377 122 377 122 362 65 c 0,23,24
 361 60 361 60 371.5 57.5 c 128,-1,25
 382 55 382 55 396 55 c 128,-1,26
 410 55 410 55 422.5 57.5 c 128,-1,27
 435 60 435 60 436 66 c 0,28,29
 457 133 457 133 478 186.5 c 128,-1,30
 499 240 499 240 511 292 c 0,31,32
 514 306 514 306 512.5 321 c 128,-1,33
 511 336 511 336 499.5 347.5 c 128,-1,34
 488 359 488 359 460.5 366.5 c 128,-1,35
 433 374 433 374 385 374 c 0,36,37
 339 374 339 374 298.5 368 c 128,-1,38
 258 362 258 362 228 362 c 0,39,40
 186 362 186 362 177 394 c 128,-1,41
 168 426 168 426 177 466 c 0,42,43
 189 526 189 526 229.5 557.5 c 128,-1,44
 270 589 270 589 324 589 c 0,45,46
 334 589 334 589 352.5 587.5 c 128,-1,47
 371 586 371 586 393 584 c 128,-1,48
 415 582 415 582 439 580.5 c 128,-1,49
 463 579 463 579 483 579 c 0,50,51
 510 579 510 579 538.5 582.5 c 128,-1,52
 567 586 567 586 592 591 c 0,53,54
 648 603 l 1,55,56
 650 588 650 588 650 575 c 0,57,58
 650 563 650 563 650.5 552 c 128,-1,59
 651 541 651 541 648 533 c 1,60,61
 647 524 647 524 632 519 c 1,62,63
 623 517 623 517 607 514 c 128,-1,64
 591 511 591 511 570.5 509.5 c 128,-1,65
 550 508 550 508 527 506.5 c 128,-1,66
 504 505 504 505 483 505 c 0,67,68
 464 505 464 505 443.5 508 c 128,-1,69
 423 511 423 511 403 514 c 128,-1,70
 383 517 383 517 367 520 c 128,-1,71
 351 523 351 523 342 523 c 0,72,73
 299 523 299 523 282 509.5 c 128,-1,74
 265 496 265 496 258 463 c 0,75,76
 255 446 255 446 261 438 c 128,-1,77
 267 430 267 430 296 430 c 256,78,79
 326 430 326 430 373.5 440.5 c 128,-1,80
 421 451 421 451 473 451 c 0,81,82
 511 451 511 451 538.5 437.5 c 128,-1,83
 566 424 566 424 581.5 403 c 128,-1,84
 597 382 597 382 602 355.5 c 128,-1,85
 607 329 607 329 601 301 c 0,86,87
 597 280 597 280 586 248.5 c 128,-1,88
 575 217 575 217 560 179 c 128,-1,89
 545 141 545 141 530.5 100 c 128,-1,90
 516 59 516 59 504 19 c 0,91,92
 502 12 502 12 484.5 6.5 c 128,-1,93
 467 1 467 1 442 -1 c 128,-1,94
 417 -3 417 -3 389 -2 c 128,-1,95
 361 -1 361 -1 337.5 1 c 128,-1,96
 314 3 314 3 299 8 c 128,-1,97
 284 13 284 13 286 21 c 0,98,99
 301 81 301 81 311 124.5 c 128,-1,100
 321 168 321 168 322.5 197.5 c 128,-1,101
 324 227 324 227 313 241 c 128,-1,102
 302 255 302 255 275 255 c 0,103,104
 255 255 255 255 238 241.5 c 128,-1,105
 221 228 221 228 218 209 c 0,106,107
 214 193 214 193 222.5 178.5 c 128,-1,108
 231 164 231 164 253 164 c 2,109,-1
 298 164 l 1,110,-1
 292 138 l 1,11,-1
220 -150 m 1,111,112
 227 -137 227 -137 230.5 -120 c 128,-1,113
 234 -103 234 -103 237 -91 c 1,114,115
 247 -91 247 -91 258 -93 c 0,116,117
 278 -96 278 -96 289 -102 c 0,118,119
 293 -105 293 -105 292.5 -110 c 128,-1,120
 292 -115 292 -115 289 -122 c 0,121,122
 286 -133 286 -133 282 -139.5 c 0,123,-1
 264 -172 l 0,124,125
 256 -189 256 -189 246 -203 c 1,126,-1
 262 -224 l 1,127,-1
 326 -193 l 1,128,-1
 390 -231 l 1,129,130
 398 -200 398 -200 418.5 -179.5 c 128,-1,131
 439 -159 439 -159 446 -128 c 0,132,133
 449 -112 449 -112 444 -98.5 c 128,-1,134
 439 -85 439 -85 421 -85 c 0,135,136
 389 -85 389 -85 382 -119 c 0,137,138
 379 -131 379 -131 383 -137.5 c 128,-1,139
 387 -144 387 -144 392 -149 c 2,140,-1
 408 -164 l 1,141,-1
 393 -180 l 1,142,-1
 359 -174 l 1,143,144
 349 -164 349 -164 344 -150.5 c 128,-1,145
 339 -137 339 -137 342 -122 c 0,146,147
 349 -85 349 -85 375 -64.5 c 128,-1,148
 401 -44 401 -44 433 -44 c 0,149,150
 476 -44 476 -44 493 -70.5 c 128,-1,151
 510 -97 510 -97 502 -127 c 0,152,153
 496 -153 496 -153 475 -196.5 c 128,-1,154
 454 -240 454 -240 443 -289 c 1,155,-1
 362 -289 l 1,156,-1
 314 -255 l 1,157,-1
 242 -292 l 1,158,-1
 205 -242 l 1,159,160
 178 -268 178 -268 154.5 -279 c 128,-1,161
 131 -290 131 -290 105 -290 c 0,162,163
 69 -290 69 -290 43.5 -268.5 c 128,-1,164
 18 -247 18 -247 28 -197 c 0,165,166
 34 -169 34 -169 47 -151 c 128,-1,167
 60 -133 60 -133 76.5 -121.5 c 128,-1,168
 93 -110 93 -110 111.5 -106 c 128,-1,169
 130 -102 130 -102 144 -102 c 0,170,171
 171 -102 171 -102 190 -119 c 128,-1,172
 209 -136 209 -136 220 -150 c 1,111,112
EndSplineSet
Substitution2: "Single Substitution lookup 27 subtable" uni0E10.alt1
Substitution2: "Single Substitution lookup 27 subtable" uni0E10.alt1
EndChar
StartChar: uni0E11
Encoding: 3601 3601 230
Width: 715
VWidth: 1473
Flags: W
HStem: 0 21G<162 249.4 547 639.24> 393 49<200.556 259.597> 504 90<588.462 673.503> 542 52<212.379 282.818>
Fore
296 454 m 1,0,-1
 281 423 l 1,1,2
 250 393 250 393 218 393 c 0,3,4
 178 393 178 393 159 422.5 c 128,-1,5
 140 452 140 452 147 492 c 0,6,7
 159 544 159 544 193 569 c 128,-1,8
 227 594 227 594 258 594 c 0,9,10
 277 594 277 594 289.5 586.5 c 128,-1,11
 302 579 302 579 311 569 c 0,12,13
 321 557 321 557 327 542 c 1,14,-1
 399 600 l 1,15,16
 418 583 418 583 428 556.5 c 128,-1,17
 438 530 438 530 430 494 c 0,18,19
 423 460 423 460 406 438.5 c 128,-1,20
 389 417 389 417 369 395 c 128,-1,21
 349 373 349 373 329 342 c 128,-1,22
 309 311 309 311 298 256 c 2,23,-1
 277 175 l 1,24,25
 309 231 309 231 355.5 303.5 c 128,-1,26
 402 376 402 376 453.5 440.5 c 128,-1,27
 505 505 505 505 557.5 549.5 c 128,-1,28
 610 594 610 594 651 594 c 0,29,30
 712 592 712 592 731 565.5 c 128,-1,31
 750 539 750 539 734 467 c 2,32,-1
 635 0 l 1,33,-1
 547 0 l 1,34,-1
 642 454 l 2,35,36
 650 488 650 488 641.5 496 c 128,-1,37
 633 504 633 504 619 504 c 0,38,39
 597 504 597 504 567.5 482 c 128,-1,40
 538 460 538 460 505.5 422.5 c 128,-1,41
 473 385 473 385 439 337.5 c 128,-1,42
 405 290 405 290 372 239.5 c 128,-1,43
 339 189 339 189 309.5 139.5 c 128,-1,44
 280 90 280 90 256 50 c 1,45,-1
 245 0 l 1,46,-1
 165 0 l 2,47,48
 159 0 159 0 156 3 c 128,-1,49
 153 6 153 6 158 21 c 0,50,51
 168 44 168 44 181 99.5 c 128,-1,52
 194 155 194 155 215 253 c 0,53,54
 225 302 225 302 249 336.5 c 128,-1,55
 273 371 273 371 298.5 398.5 c 128,-1,56
 324 426 324 426 345.5 449.5 c 128,-1,57
 367 473 367 473 373 499 c 0,58,59
 374 513 374 513 373 519 c 2,60,-1
 371 523 l 1,61,-1
 309 479 l 1,62,63
 290 514 290 514 280.5 528 c 128,-1,64
 271 542 271 542 253 542 c 0,65,66
 231 542 231 542 215.5 528 c 128,-1,67
 200 514 200 514 196 494 c 128,-1,68
 192 474 192 474 201.5 458 c 128,-1,69
 211 442 211 442 233 442 c 0,70,71
 242 442 242 442 253.5 448 c 128,-1,72
 265 454 265 454 286 471 c 1,73,-1
 296 454 l 1,0,-1
EndSplineSet
EndChar
StartChar: uni0E12
Encoding: 3602 3602 231
Width: 985
VWidth: 1473
Flags: W
HStem: -3 53<466.456 515.444> 376 51<356.551 433.545> 578 20<305 378.323 523.692 604 928.612 1021>
VStem: 118 79<16.7253 72.5598> 137 74.5<234.04 260 260 309.395>
Fore
343 247 m 1,0,-1
 299 253 l 1,1,2
 287 270 287 270 284 287.5 c 128,-1,3
 281 305 281 305 284 324 c 0,4,5
 295 367 295 367 331 397 c 128,-1,6
 367 427 367 427 410 427 c 0,7,8
 435 427 435 427 451.5 417.5 c 128,-1,9
 468 408 468 408 478.5 394 c 128,-1,10
 489 380 489 380 491.5 363 c 128,-1,11
 494 346 494 346 491 329 c 0,12,13
 482 289 482 289 462 259.5 c 128,-1,14
 442 230 442 230 404 206 c 0,15,16
 367 183 367 183 333 162 c 128,-1,17
 299 141 299 141 272 118.5 c 128,-1,18
 245 96 245 96 225 67 c 128,-1,19
 205 38 205 38 197 0 c 1,20,-1
 125 0 l 2,21,22
 119 0 119 0 116 3 c 128,-1,23
 113 6 113 6 118 21 c 0,24,25
 128 44 128 44 144.5 69 c 128,-1,26
 161 94 161 94 180 115 c 0,27,28
 192 128 192 128 187 136 c 0,29,30
 178 147 178 147 165.5 161 c 128,-1,31
 153 175 153 175 145.5 198.5 c 128,-1,32
 138 222 138 222 137 260 c 128,-1,33
 136 298 136 298 149 357 c 0,34,35
 169 451 169 451 215.5 510 c 128,-1,36
 262 569 262 569 348 598 c 1,37,-1
 442 536 l 1,38,-1
 560 601 l 1,39,40
 648 585 648 585 666.5 521 c 128,-1,41
 685 457 685 457 663 348 c 2,42,-1
 645 267 l 1,43,44
 719 262 719 262 770 229 c 128,-1,45
 821 196 821 196 837 121 c 1,46,47
 840 138 840 138 844.5 163.5 c 128,-1,48
 849 189 849 189 854 216 c 128,-1,49
 859 243 859 243 864 268 c 128,-1,50
 869 293 869 293 872 311 c 2,51,-1
 933 589 l 1,52,-1
 1021 589 l 1,53,-1
 965 327 l 2,54,55
 955 278 955 278 944.5 228 c 128,-1,56
 934 178 934 178 926 136 c 128,-1,57
 918 94 918 94 912 63 c 128,-1,58
 906 32 906 32 906 21 c 0,59,60
 906 6 906 6 902.5 3 c 128,-1,61
 899 0 899 0 893 0 c 2,62,-1
 806 0 l 1,63,64
 803 97 803 97 763 147 c 128,-1,65
 723 197 723 197 633 205 c 1,66,-1
 623 146 l 2,67,68
 617 116 617 116 606 89.5 c 128,-1,69
 595 63 595 63 578 42.5 c 128,-1,70
 561 22 561 22 537.5 9.5 c 128,-1,71
 514 -3 514 -3 480 -3 c 0,72,73
 436 -3 436 -3 417.5 26.5 c 128,-1,74
 399 56 399 56 411 116 c 0,75,76
 426 183 426 183 470 219 c 128,-1,77
 514 255 514 255 561 264 c 1,78,79
 564 283 564 283 567 307 c 128,-1,80
 570 331 570 331 576 365 c 0,81,82
 591 443 591 443 585 480 c 128,-1,83
 579 517 579 517 542 532 c 1,84,-1
 427 470 l 1,85,-1
 339 530 l 1,86,87
 286 514 286 514 262.5 473 c 128,-1,88
 239 432 239 432 222 357 c 0,89,90
 211 302 211 302 211.5 270.5 c 128,-1,91
 212 239 212 239 218.5 220.5 c 128,-1,92
 225 202 225 202 234 191 c 128,-1,93
 243 180 243 180 249 166 c 1,94,95
 256 175 256 175 275.5 188.5 c 128,-1,96
 295 202 295 202 316 215 c 128,-1,97
 337 228 337 228 357 240 c 128,-1,98
 377 252 377 252 387 258 c 0,99,100
 412 274 412 274 423.5 290 c 128,-1,101
 435 306 435 306 438 321 c 0,102,103
 443 346 443 346 432 361 c 128,-1,104
 421 376 421 376 401 376 c 0,105,106
 379 376 379 376 359.5 360.5 c 128,-1,107
 340 345 340 345 336 323 c 0,108,109
 331 305 331 305 343 290 c 2,110,-1
 364 262 l 1,111,-1
 343 247 l 1,0,-1
550 202 m 1,112,113
 522 194 522 194 498 179 c 128,-1,114
 474 164 474 164 466 119 c 0,115,116
 458 87 458 87 467 68.5 c 128,-1,117
 476 50 476 50 492 50 c 0,118,119
 505 50 505 50 513.5 57.5 c 128,-1,120
 522 65 522 65 526 77.5 c 128,-1,121
 530 90 530 90 533 107 c 128,-1,122
 536 124 536 124 541 141 c 0,123,124
 544 152 544 152 544.5 164.5 c 128,-1,125
 545 177 545 177 550 202 c 1,112,113
EndSplineSet
EndChar
StartChar: uni0E13
Encoding: 3603 3603 232
Width: 970
VWidth: 1473
Flags: W
HStem: -9 52<210.798 289.125 766.125 846.703> 202 62<686.117 788.819 770.638 787> 532 66<355.965 488.258>
Fore
874 112 m 0,0,1
 882 162 882 162 826 184 c 1,2,3
 798 168 798 168 783.5 148 c 128,-1,4
 769 128 769 128 766 112 c 0,5,6
 753 50 753 50 804 50 c 0,7,8
 859 50 859 50 874 112 c 0,0,1
211 118 m 2,9,10
 203 84 203 84 211.5 63.5 c 128,-1,11
 220 43 220 43 242 43 c 0,12,13
 267 43 267 43 284 59 c 128,-1,14
 301 75 301 75 306 97 c 128,-1,15
 311 119 311 119 301.5 135.5 c 128,-1,16
 292 152 292 152 270 152 c 2,17,-1
 228 152 l 1,18,-1
 234 175 l 1,19,-1
 281 203 l 1,20,21
 324 203 324 203 346 172 c 128,-1,22
 368 141 368 141 359 97 c 0,23,24
 349 53 349 53 311.5 22 c 128,-1,25
 274 -9 274 -9 230 -9 c 0,26,27
 174 -9 174 -9 141.5 23.5 c 128,-1,28
 109 56 109 56 122 118 c 2,29,-1
 152 262 l 2,30,31
 164 318 164 318 180.5 344 c 128,-1,32
 197 370 197 370 227 395 c 1,33,34
 222 398 222 398 211 406.5 c 128,-1,35
 200 415 200 415 189 426.5 c 128,-1,36
 178 438 178 438 171 449.5 c 128,-1,37
 164 461 164 461 165 470 c 0,38,39
 168 483 168 483 191.5 505 c 128,-1,40
 215 527 215 527 252 548 c 128,-1,41
 289 569 289 569 337 583.5 c 128,-1,42
 385 598 385 598 438 598 c 0,43,44
 488 598 488 598 530 587.5 c 128,-1,45
 572 577 572 577 599 550.5 c 128,-1,46
 626 524 626 524 635 479.5 c 128,-1,47
 644 435 644 435 629 367 c 2,48,-1
 607 261 l 1,49,-1
 583 164 l 1,50,51
 631 220 631 220 684.5 242 c 128,-1,52
 738 264 738 264 787 264 c 0,53,54
 807 264 807 264 819 261 c 128,-1,55
 831 258 831 258 850 250 c 1,56,57
 856 261 856 261 862 287 c 2,58,-1
 927 589 l 1,59,-1
 1015 589 l 1,60,-1
 947 273 l 2,61,62
 940 243 940 243 912 220 c 1,63,64
 937 203 937 203 951 175 c 128,-1,65
 965 147 965 147 956 109 c 0,66,67
 950 80 950 80 934.5 58.5 c 128,-1,68
 919 37 919 37 898 23.5 c 128,-1,69
 877 10 877 10 853 3.5 c 128,-1,70
 829 -3 829 -3 807 -3 c 0,71,72
 763 -3 763 -3 732 24.5 c 128,-1,73
 701 52 701 52 713 105 c 0,74,75
 720 138 720 138 743 161 c 128,-1,76
 766 184 766 184 787 199 c 1,77,78
 775 202 775 202 754 202 c 0,79,80
 719 202 719 202 685 184 c 128,-1,81
 651 166 651 166 624 138 c 128,-1,82
 597 110 597 110 577.5 74 c 128,-1,83
 558 38 558 38 551 0 c 1,84,-1
 471 0 l 2,85,86
 466 0 466 0 463 3 c 128,-1,87
 460 6 460 6 464 21 c 0,88,89
 468 32 468 32 477 69 c 128,-1,90
 486 106 486 106 497 156 c 128,-1,91
 508 206 508 206 519 262 c 128,-1,92
 530 318 530 318 541 367 c 0,93,94
 552 424 552 424 551 456.5 c 128,-1,95
 550 489 550 489 535 506 c 128,-1,96
 520 523 520 523 492 527.5 c 128,-1,97
 464 532 464 532 423 532 c 0,98,99
 386 532 386 532 356 525.5 c 128,-1,100
 326 519 326 519 303 509 c 128,-1,101
 280 499 280 499 267.5 489.5 c 128,-1,102
 255 480 255 480 253 473 c 0,103,104
 252 468 252 468 255.5 461 c 128,-1,105
 259 454 259 454 265 446 c 128,-1,106
 271 438 271 438 277.5 432.5 c 128,-1,107
 284 427 284 427 289 427 c 0,108,109
 301 427 301 427 316 436.5 c 128,-1,110
 331 446 331 446 345 446 c 0,111,112
 349 446 349 446 355 436.5 c 128,-1,113
 361 427 361 427 365.5 415.5 c 128,-1,114
 370 404 370 404 371.5 394.5 c 128,-1,115
 373 385 373 385 367 385 c 0,116,117
 345 385 345 385 325.5 381 c 128,-1,118
 306 377 306 377 290 364.5 c 128,-1,119
 274 352 274 352 261.5 327.5 c 128,-1,120
 249 303 249 303 240 262 c 2,121,-1
 211 118 l 2,9,10
EndSplineSet
EndChar
StartChar: uni0E14
Encoding: 3604 3604 233
Width: 655
VWidth: 1473
Flags: W
HStem: 0 21G<122 201 486 579.195> 376 56<363.901 441.581> 532 66<342.999 524.643>
VStem: 118 79<16.7253 72.5598> 137 74.5<234.04 260 260 309.395>
Fore
149 357 m 0,0,1
 161 414 161 414 190.5 459 c 128,-1,2
 220 504 220 504 260.5 535 c 128,-1,3
 301 566 301 566 350 582 c 128,-1,4
 399 598 399 598 451 598 c 0,5,6
 592 598 592 598 633.5 537 c 128,-1,7
 675 476 675 476 648 348 c 2,8,-1
 575 0 l 1,9,-1
 486 0 l 1,10,-1
 557 333 l 2,11,12
 569 390 569 390 574 428.5 c 128,-1,13
 579 467 579 467 568.5 490 c 128,-1,14
 558 513 558 513 527 522.5 c 128,-1,15
 496 532 496 532 436 532 c 0,16,17
 358 532 358 532 300.5 493 c 128,-1,18
 243 454 243 454 222 357 c 0,19,20
 211 302 211 302 211.5 270.5 c 128,-1,21
 212 239 212 239 218.5 220.5 c 128,-1,22
 225 202 225 202 234 191 c 128,-1,23
 243 180 243 180 249 166 c 1,24,25
 256 175 256 175 277 188.5 c 128,-1,26
 298 202 298 202 320.5 216 c 128,-1,27
 343 230 343 230 364.5 241.5 c 128,-1,28
 386 253 386 253 395 259 c 0,29,30
 420 275 420 275 431 290.5 c 128,-1,31
 442 306 442 306 445 321 c 0,32,33
 451 346 451 346 440 361 c 128,-1,34
 429 376 429 376 408 376 c 0,35,36
 386 376 386 376 367 360.5 c 128,-1,37
 348 345 348 345 343 323 c 0,38,39
 339 305 339 305 351 290 c 2,40,-1
 371 262 l 1,41,-1
 351 247 l 1,42,-1
 306 253 l 1,43,44
 295 270 295 270 292 287.5 c 128,-1,45
 289 305 289 305 292 324 c 0,46,47
 302 367 302 367 339 399.5 c 128,-1,48
 376 432 376 432 418 432 c 0,49,50
 470 430 470 430 492 399 c 128,-1,51
 514 368 514 368 505 329 c 256,52,53
 496 289 496 289 472.5 259.5 c 128,-1,54
 449 230 449 230 411 206 c 0,55,56
 374 183 374 183 339.5 162 c 128,-1,57
 305 141 305 141 275.5 118.5 c 128,-1,58
 246 96 246 96 225.5 67 c 128,-1,59
 205 38 205 38 197 0 c 1,60,-1
 125 0 l 2,61,62
 119 0 119 0 116 3 c 128,-1,63
 113 6 113 6 118 21 c 0,64,65
 128 44 128 44 144.5 69 c 128,-1,66
 161 94 161 94 180 115 c 0,67,68
 192 128 192 128 187 136 c 0,69,70
 178 147 178 147 165.5 161 c 128,-1,71
 153 175 153 175 145.5 198.5 c 128,-1,72
 138 222 138 222 137 260 c 128,-1,73
 136 298 136 298 149 357 c 0,0,1
EndSplineSet
EndChar
StartChar: uni0E15
Encoding: 3605 3605 234
Width: 670
VWidth: 1473
Flags: W
HStem: 0 21G<122 208.5 501 593.253> 376 54<363.901 441.156> 578 20G<305 379.29 524.615 604>
VStem: 118 87<16.1086 72.1456> 137 83<233.762 309.395>
Fore
430 470 m 1,0,-1
 339 530 l 1,1,2
 296 514 296 514 271 473 c 128,-1,3
 246 432 246 432 230 357 c 0,4,5
 220 308 220 308 220 275 c 128,-1,6
 220 242 220 242 226.5 221 c 128,-1,7
 233 200 233 200 241.5 190 c 128,-1,8
 250 180 250 180 258 174 c 1,9,10
 268 183 268 183 287 195.5 c 128,-1,11
 306 208 306 208 327 219.5 c 128,-1,12
 348 231 348 231 367 242 c 128,-1,13
 386 253 386 253 395 259 c 0,14,15
 420 275 420 275 431 290.5 c 128,-1,16
 442 306 442 306 445 321 c 0,17,18
 451 346 451 346 440 361 c 128,-1,19
 429 376 429 376 408 376 c 0,20,21
 386 376 386 376 367 360.5 c 128,-1,22
 348 345 348 345 343 323 c 0,23,24
 339 305 339 305 351 290 c 2,25,-1
 371 262 l 1,26,-1
 351 247 l 1,27,-1
 306 253 l 1,28,29
 295 270 295 270 292 287.5 c 128,-1,30
 289 305 289 305 292 324 c 0,31,32
 302 367 302 367 339 398.5 c 128,-1,33
 376 430 376 430 418 430 c 0,34,35
 468 429 468 429 491 398.5 c 128,-1,36
 514 368 514 368 505 329 c 256,37,38
 496 289 496 289 468 257 c 128,-1,39
 440 225 440 225 404 202 c 256,40,41
 367 178 367 178 334.5 158 c 128,-1,42
 302 138 302 138 275.5 116 c 128,-1,43
 249 94 249 94 230.5 66 c 128,-1,44
 212 38 212 38 205 0 c 1,45,-1
 125 0 l 2,46,47
 119 0 119 0 116 3 c 128,-1,48
 113 6 113 6 118 21 c 0,49,50
 128 44 128 44 144.5 69 c 128,-1,51
 161 94 161 94 180 115 c 0,52,53
 192 128 192 128 187 136 c 0,54,55
 178 147 178 147 165.5 161 c 128,-1,56
 153 175 153 175 145.5 198.5 c 128,-1,57
 138 222 138 222 137 260 c 128,-1,58
 136 298 136 298 149 357 c 0,59,60
 169 451 169 451 215.5 510 c 128,-1,61
 262 569 262 569 348 598 c 1,62,-1
 445 536 l 1,63,-1
 560 601 l 1,64,65
 648 585 648 585 666.5 521 c 128,-1,66
 685 457 685 457 663 348 c 2,67,-1
 589 0 l 1,68,-1
 501 0 l 1,69,-1
 577 365 l 2,70,71
 586 404 586 404 590.5 432 c 128,-1,72
 595 460 595 460 592 479.5 c 128,-1,73
 589 499 589 499 577.5 511.5 c 128,-1,74
 566 524 566 524 542 532 c 1,75,-1
 430 470 l 1,0,-1
EndSplineSet
EndChar
StartChar: uni0E16
Encoding: 3606 3606 235
Width: 662
VWidth: 1473
Flags: W
HStem: -9 52<211.076 286.698> 532 66<374.994 510.72>
Fore
253 473 m 0,0,1
 252 464 252 464 262.5 445.5 c 128,-1,2
 273 427 273 427 281 427 c 0,3,4
 293 427 293 427 308.5 436.5 c 128,-1,5
 324 446 324 446 337 446 c 0,6,7
 342 446 342 446 348 436.5 c 128,-1,8
 354 427 354 427 358 415.5 c 128,-1,9
 362 404 362 404 363.5 394.5 c 128,-1,10
 365 385 365 385 359 385 c 0,11,12
 337 385 337 385 319.5 381 c 128,-1,13
 302 377 302 377 287.5 364.5 c 128,-1,14
 273 352 273 352 261 327.5 c 128,-1,15
 249 303 249 303 240 262 c 2,16,-1
 209 113 l 2,17,18
 202 80 202 80 211.5 61.5 c 128,-1,19
 221 43 221 43 243 43 c 0,20,21
 268 43 268 43 284.5 59 c 128,-1,22
 301 75 301 75 306 97 c 128,-1,23
 311 119 311 119 301.5 134.5 c 128,-1,24
 292 150 292 150 270 150 c 2,25,-1
 228 150 l 1,26,-1
 234 174 l 1,27,-1
 281 202 l 1,28,29
 324 202 324 202 346 171.5 c 128,-1,30
 368 141 368 141 359 97 c 0,31,32
 349 53 349 53 312 22 c 128,-1,33
 275 -9 275 -9 231 -9 c 0,34,35
 206 -9 206 -9 183.5 0 c 128,-1,36
 161 9 161 9 145.5 26.5 c 128,-1,37
 130 44 130 44 124 70.5 c 128,-1,38
 118 97 118 97 125 133 c 2,39,-1
 152 262 l 2,40,41
 164 318 164 318 180.5 344 c 128,-1,42
 197 370 197 370 227 395 c 1,43,44
 222 398 222 398 211 406.5 c 128,-1,45
 200 415 200 415 189 426.5 c 128,-1,46
 178 438 178 438 171 449.5 c 128,-1,47
 164 461 164 461 165 470 c 0,48,49
 168 483 168 483 194.5 505 c 128,-1,50
 221 527 221 527 262 548 c 128,-1,51
 303 569 303 569 355 583.5 c 128,-1,52
 407 598 407 598 460 598 c 0,53,54
 510 598 510 598 552.5 587.5 c 128,-1,55
 595 577 595 577 624 550.5 c 128,-1,56
 653 524 653 524 663 479.5 c 128,-1,57
 673 435 673 435 659 367 c 2,58,-1
 582 0 l 1,59,-1
 494 0 l 1,60,-1
 570 367 l 2,61,62
 582 424 582 424 579.5 456.5 c 128,-1,63
 577 489 577 489 560.5 506 c 128,-1,64
 544 523 544 523 515 527.5 c 128,-1,65
 486 532 486 532 445 532 c 0,66,67
 408 532 408 532 374 525.5 c 128,-1,68
 340 519 340 519 313.5 509 c 128,-1,69
 287 499 287 499 271 489.5 c 128,-1,70
 255 480 255 480 253 473 c 0,0,1
EndSplineSet
EndChar
StartChar: uni0E17
Encoding: 3607 3607 236
Width: 733
VWidth: 1473
Flags: W
HStem: 0 21G<180 267.455 564 657.17> 527 67<566.364 656.793> 548 52<248.483 308.987>
Fore
273 439 m 1,0,-1
 267 415 l 1,1,-1
 227 389 l 1,2,3
 184 389 184 389 165 419 c 128,-1,4
 146 449 146 449 156 494 c 0,5,6
 161 516 161 516 175 535 c 128,-1,7
 189 554 189 554 207 568.5 c 128,-1,8
 225 583 225 583 248 591.5 c 128,-1,9
 271 600 271 600 293 600 c 0,10,11
 345 600 345 600 370 569.5 c 128,-1,12
 395 539 395 539 383 483 c 0,13,14
 377 451 377 451 363 417 c 128,-1,15
 349 383 349 383 333 323 c 2,16,-1
 301 208 l 1,17,18
 334 283 334 283 372 353 c 128,-1,19
 410 423 410 423 452 476 c 128,-1,20
 494 529 494 529 538.5 561.5 c 128,-1,21
 583 594 583 594 629 594 c 0,22,23
 656 594 656 594 681 588 c 128,-1,24
 706 582 706 582 724 567 c 128,-1,25
 742 552 742 552 750.5 528.5 c 128,-1,26
 759 505 759 505 751 470 c 2,27,-1
 653 0 l 1,28,-1
 564 0 l 1,29,-1
 660 455 l 2,30,31
 667 491 667 491 656 509 c 128,-1,32
 645 527 645 527 622 527 c 0,33,34
 595 527 595 527 561 501.5 c 128,-1,35
 527 476 527 476 492 434 c 128,-1,36
 457 392 457 392 422 339 c 128,-1,37
 387 286 387 286 357 229 c 128,-1,38
 327 172 327 172 303.5 118.5 c 128,-1,39
 280 65 280 65 268 22 c 2,40,-1
 262 0 l 1,41,-1
 183 0 l 2,42,43
 177 0 177 0 174 3 c 128,-1,44
 171 6 171 6 175 21 c 0,45,46
 180 32 180 32 188.5 63 c 128,-1,47
 197 94 197 94 207 136 c 128,-1,48
 217 178 217 178 228 228 c 128,-1,49
 239 278 239 278 249 327 c 0,50,51
 255 355 255 355 264 376.5 c 128,-1,52
 273 398 273 398 281.5 415.5 c 128,-1,53
 290 433 290 433 298 448.5 c 128,-1,54
 306 464 306 464 309 480 c 0,55,56
 323 548 323 548 275 548 c 0,57,58
 250 548 250 548 232 532 c 128,-1,59
 214 516 214 516 209 494 c 0,60,61
 203 471 203 471 210.5 455 c 128,-1,62
 218 439 218 439 240 439 c 2,63,-1
 273 439 l 1,0,-1
EndSplineSet
EndChar
StartChar: uni0E18
Encoding: 3608 3608 237
Width: 621
VWidth: 1473
Flags: W
HStem: -9 66<271.994 372.194> 503.5 76<437.695 511.106 500.454 521.758 521.758 546.954 546.954 548.5 566.5 596.311> 520 69<262.086 359.042>
VStem: 135.5 86<108.953 110.5 110.5 161.945>
Fore
645 603 m 1,0,1
 647 588 647 588 647 575 c 0,2,3
 647 563 647 563 647.5 552 c 128,-1,4
 648 541 648 541 645 533 c 1,5,6
 644 524 644 524 629 519 c 1,7,8
 620 517 620 517 604 514 c 128,-1,9
 588 511 588 511 566.5 508 c 128,-1,10
 545 505 545 505 522 503.5 c 128,-1,11
 499 502 499 502 479 502 c 0,12,13
 433 502 433 502 395.5 511 c 128,-1,14
 358 520 358 520 324 520 c 0,15,16
 286 520 286 520 266 506 c 128,-1,17
 246 492 246 492 239 464 c 0,18,19
 234 439 234 439 237 432.5 c 128,-1,20
 240 426 240 426 249 423 c 256,21,22
 258 420 258 420 289.5 420 c 128,-1,23
 321 420 321 420 363 417 c 128,-1,24
 405 414 405 414 450 406 c 128,-1,25
 495 398 495 398 530.5 379.5 c 128,-1,26
 566 361 566 361 585 330 c 128,-1,27
 604 299 604 299 594 252 c 2,28,-1
 582 194 l 2,29,30
 570 138 570 138 557 106.5 c 128,-1,31
 544 75 544 75 519 52 c 0,32,33
 496 32 496 32 469.5 19.5 c 128,-1,34
 443 7 443 7 416.5 1.5 c 128,-1,35
 390 -4 390 -4 365 -6.5 c 128,-1,36
 340 -9 340 -9 320 -9 c 0,37,38
 301 -9 301 -9 275.5 -6.5 c 128,-1,39
 250 -4 250 -4 226.5 1.5 c 128,-1,40
 203 7 203 7 182 19.5 c 128,-1,41
 161 32 161 32 147 52 c 0,42,43
 133 74 133 74 135.5 110.5 c 128,-1,44
 138 147 138 147 149 194 c 2,45,-1
 172 306 l 1,46,-1
 256 302 l 1,47,48
 249 265 249 265 243 241 c 128,-1,49
 237 217 237 217 230 187 c 0,50,51
 222 152 222 152 221.5 132 c 128,-1,52
 221 112 221 112 231 97 c 0,53,54
 245 77 245 77 267 67 c 128,-1,55
 289 57 289 57 334 57 c 256,56,57
 380 57 380 57 405 67 c 128,-1,58
 430 77 430 77 455 97 c 0,59,60
 470 112 470 112 475 126 c 128,-1,61
 480 140 480 140 488 169 c 2,62,-1
 505 252 l 2,63,64
 513 286 513 286 493.5 304.5 c 128,-1,65
 474 323 474 323 440.5 332.5 c 128,-1,66
 407 342 407 342 365 345 c 128,-1,67
 323 348 323 348 284 350 c 128,-1,68
 245 352 245 352 214.5 355.5 c 128,-1,69
 184 359 184 359 174 370 c 0,70,71
 158 386 158 386 156.5 407.5 c 128,-1,72
 155 429 155 429 162 458 c 0,73,74
 174 519 174 519 219 554 c 128,-1,75
 264 589 264 589 321 589 c 0,76,77
 331 589 331 589 352 587 c 128,-1,78
 373 585 373 585 398 582.5 c 128,-1,79
 423 580 423 580 448.5 578 c 128,-1,80
 474 576 474 576 495 576 c 0,81,82
 522 576 522 576 548.5 579.5 c 128,-1,83
 575 583 575 583 597 589 c 0,84,85
 623 595 623 595 645 603 c 1,0,1
EndSplineSet
EndChar
StartChar: uni0E19
Encoding: 3609 3609 238
Width: 701
VWidth: 1473
Flags: W
HStem: -3 53<496.708 576.808> 200 64<414.043 515.812> 548 52<249.983 308.996>
Fore
267 415 m 1,0,-1
 227 389 l 1,1,2
 184 389 184 389 165 419 c 128,-1,3
 146 449 146 449 156 494 c 0,4,5
 161 516 161 516 175 535 c 128,-1,6
 189 554 189 554 208.5 568.5 c 128,-1,7
 228 583 228 583 251 591.5 c 128,-1,8
 274 600 274 600 296 600 c 0,9,10
 348 600 348 600 375 569.5 c 128,-1,11
 402 539 402 539 390 483 c 0,12,13
 387 467 387 467 380 451.5 c 128,-1,14
 373 436 373 436 365 417.5 c 128,-1,15
 357 399 357 399 348.5 376.5 c 128,-1,16
 340 354 340 354 333 323 c 2,17,-1
 296 149 l 1,18,19
 343 205 343 205 398.5 234.5 c 128,-1,20
 454 264 454 264 502 264 c 0,21,22
 544 264 544 264 580 250 c 1,23,24
 586 261 586 261 592 287 c 2,25,-1
 657 589 l 1,26,-1
 745 589 l 1,27,-1
 678 273 l 2,28,29
 670 243 670 243 642 220 c 1,30,31
 667 203 667 203 681 175 c 128,-1,32
 695 147 695 147 687 109 c 0,33,34
 681 80 681 80 665.5 58.5 c 128,-1,35
 650 37 650 37 628.5 23.5 c 128,-1,36
 607 10 607 10 583.5 3.5 c 128,-1,37
 560 -3 560 -3 538 -3 c 0,38,39
 494 -3 494 -3 463 24.5 c 128,-1,40
 432 52 432 52 443 105 c 0,41,42
 451 138 451 138 473 160.5 c 128,-1,43
 495 183 495 183 517 196 c 1,44,45
 507 200 507 200 485 200 c 0,46,47
 449 200 449 200 413 183 c 128,-1,48
 377 166 377 166 347.5 137.5 c 128,-1,49
 318 109 318 109 296 73.5 c 128,-1,50
 274 38 274 38 267 0 c 1,51,-1
 187 0 l 2,52,53
 181 0 181 0 178 3 c 128,-1,54
 175 6 175 6 180 21 c 0,55,56
 184 32 184 32 192 63 c 128,-1,57
 200 94 200 94 209 136 c 128,-1,58
 218 178 218 178 228.5 228 c 128,-1,59
 239 278 239 278 249 327 c 0,60,61
 255 355 255 355 264 376.5 c 128,-1,62
 273 398 273 398 281.5 415.5 c 128,-1,63
 290 433 290 433 298 448.5 c 128,-1,64
 306 464 306 464 309 480 c 0,65,66
 323 548 323 548 275 548 c 0,67,68
 250 548 250 548 232 532 c 128,-1,69
 214 516 214 516 209 494 c 0,70,71
 203 471 203 471 210.5 455 c 128,-1,72
 218 439 218 439 240 439 c 2,73,-1
 273 439 l 1,74,-1
 267 415 l 1,0,-1
604 112 m 0,75,76
 613 162 613 162 557 184 c 1,77,78
 529 168 529 168 514 148 c 128,-1,79
 499 128 499 128 496 112 c 0,80,81
 483 50 483 50 535 50 c 0,82,83
 589 50 589 50 604 112 c 0,75,76
EndSplineSet
EndChar
StartChar: uni0E1A
Encoding: 3610 3610 239
Width: 729
VWidth: 1473
Flags: W
HStem: -9 66<370.245 496.187> 548 52<248.483 308.987>
VStem: 208 86<107.903 110.5 110.5 161.945>
Fore
277 439 m 1,0,-1
 271 415 l 1,1,-1
 231 387 l 1,2,3
 189 387 189 387 167.5 418 c 128,-1,4
 146 449 146 449 156 494 c 0,5,6
 161 516 161 516 175 535 c 128,-1,7
 189 554 189 554 207 568.5 c 128,-1,8
 225 583 225 583 248 591.5 c 128,-1,9
 271 600 271 600 293 600 c 0,10,11
 345 600 345 600 370 569.5 c 128,-1,12
 395 539 395 539 383 483 c 0,13,14
 380 467 380 467 374 451.5 c 128,-1,15
 368 436 368 436 361.5 417.5 c 128,-1,16
 355 399 355 399 347.5 376.5 c 128,-1,17
 340 354 340 354 333 323 c 0,18,19
 326 286 326 286 317.5 251.5 c 128,-1,20
 309 217 309 217 302 187 c 0,21,22
 295 152 295 152 294 132 c 128,-1,23
 293 112 293 112 303 97 c 0,24,25
 317 77 317 77 348 67 c 128,-1,26
 379 57 379 57 424 57 c 0,27,28
 517 57 517 57 563 97 c 0,29,30
 577 112 577 112 584 126 c 128,-1,31
 591 140 591 140 598 169 c 0,32,33
 604 194 604 194 608.5 223.5 c 128,-1,34
 613 253 613 253 620 290 c 2,35,-1
 685 589 l 1,36,-1
 773 589 l 1,37,-1
 689 194 l 2,38,39
 678 138 678 138 664.5 106.5 c 128,-1,40
 651 75 651 75 626 52 c 0,41,42
 604 32 604 32 574.5 19.5 c 128,-1,43
 545 7 545 7 515.5 1.5 c 128,-1,44
 486 -4 486 -4 458 -6.5 c 128,-1,45
 430 -9 430 -9 410 -9 c 128,-1,46
 390 -9 390 -9 363 -6.5 c 128,-1,47
 336 -4 336 -4 308 1.5 c 128,-1,48
 280 7 280 7 256.5 19.5 c 128,-1,49
 233 32 233 32 220 52 c 0,50,51
 205 74 205 74 208 110.5 c 128,-1,52
 211 147 211 147 221 194 c 2,53,-1
 249 327 l 2,54,55
 255 355 255 355 264 376.5 c 128,-1,56
 273 398 273 398 281.5 415.5 c 128,-1,57
 290 433 290 433 298 448.5 c 128,-1,58
 306 464 306 464 309 480 c 0,59,60
 323 548 323 548 275 548 c 0,61,62
 250 548 250 548 232 532 c 128,-1,63
 214 516 214 516 209 494 c 0,64,65
 203 471 203 471 212 455 c 128,-1,66
 221 439 221 439 243 439 c 2,67,-1
 277 439 l 1,0,-1
EndSplineSet
EndChar
